<?xml version="1.0" encoding="utf-8"?>
<!-- Generator: Adobe Illustrator 19.2.1, SVG Export Plug-In . SVG Version: 6.00 Build 0)  -->
<svg version="1.1" xmlns="http://www.w3.org/2000/svg" xmlns:xlink="http://www.w3.org/1999/xlink" x="0px" y="0px" width="110px"
	 height="110px" viewBox="0 0 110 110" style="enable-background:new 0 0 110 110;" xml:space="preserve">
<style type="text/css">
	.st0{fill:none;stroke:#387CC6;stroke-width:2;stroke-miterlimit:10;}
	.st1{fill:#EDDD4F;}
	.st2{fill:#387CC6;}
	.st3{fill:#FFFFFF;}
	.st4{fill:none;stroke:#387CC6;stroke-width:2;stroke-linecap:round;stroke-linejoin:round;stroke-miterlimit:10;}
	.st5{fill:#EDDD4F;stroke:#387CC6;stroke-width:2;stroke-miterlimit:10;}
	.st6{opacity:0.3;}
	.st7{clip-path:url(#SVGID_2_);}
	.st8{clip-path:url(#SVGID_4_);fill-rule:evenodd;clip-rule:evenodd;}
	.st9{clip-path:url(#SVGID_4_);fill-rule:evenodd;clip-rule:evenodd;fill:#231F20;}
	.st10{clip-path:url(#SVGID_6_);}
	.st11{clip-path:url(#SVGID_8_);}
	.st12{clip-path:url(#SVGID_8_);fill:none;stroke:#000000;stroke-width:0.728;stroke-linejoin:bevel;}
	.st13{clip-path:url(#SVGID_8_);fill:none;stroke:#000000;stroke-width:0.894;stroke-linejoin:bevel;}
	.st14{clip-path:url(#SVGID_8_);fill:none;stroke:#000000;stroke-width:1.457;stroke-linejoin:bevel;}
	.st15{clip-path:url(#SVGID_8_);fill:none;stroke:#000000;stroke-width:0.088;}
	.st16{fill:#231F20;}
	.st17{fill:#ADACAC;}
	.st18{fill:#686868;}
	.st19{fill:#020202;}
	.st20{fill:none;stroke:#FFFFFF;stroke-width:0.215;}
	.st21{fill:none;stroke:#387CC6;stroke-width:2;stroke-linecap:round;stroke-miterlimit:10;}
	.st22{fill:none;stroke:#387CC6;stroke-miterlimit:10;}
	.st23{fill:none;stroke:#387CC6;stroke-linecap:round;stroke-miterlimit:10;}
	.st24{fill:#FA3700;}
	.st25{fill:#FFFFFF;stroke:#387CC6;stroke-width:2;stroke-miterlimit:10;}
</style>
<g id="Layer_3">
</g>
<g id="colour">
	<g>
		<path class="st1" d="M10.69656,80.94045l0.90918,4.14301c0,0,4.42343,1.70428,4.81625,1.4822S22.41668,88,22.41668,88H25
			l0.55365,2.7557l-2.85494,10.91914l3.79827,0.24175l5.74178-1.48863l3.76102-3.24585l3.22935-3.93346l1.21417-2.98515L36,83.55689
			V78l-2.24804-2.52367l-8.66767-3.47957l-4.04963-0.13607l-3.15859,4.74185l-5.24355,3.0418L10.69656,80.94045z"/>
		<path class="st1" d="M73.69656,63.94045l0.90918,4.14302c0,0,4.42343,1.70428,4.81625,1.4822S85.41668,71,85.41668,71H88
			l0.55365,2.7557l-2.85493,10.91914l3.79827,0.24175l5.74178-1.48863l3.76102-3.24585l3.22935-3.93346l1.21416-2.98515L99,66.55689
			V61l-2.24804-2.52367l-8.66766-3.47956l-4.04963-0.13607l-3.15859,4.74185l-5.24355,3.0418L73.69656,63.94045z"/>
		<path class="st1" d="M37.69656,20.94045l0.90918,4.14302c0,0,4.42343,1.70428,4.81625,1.4822
			C43.8148,26.34358,49.41668,28,49.41668,28H52l0.55365,2.7557l-2.85494,10.91914l3.79827,0.24175l5.74178-1.48863l3.76102-3.24585
			l3.22935-3.93346l1.21416-2.98515L63,23.55689V18l-2.24804-2.52367l-8.66767-3.47956l-4.04963-0.13608l-3.15859,4.74185
			l-5.24355,3.0418L37.69656,20.94045z"/>
	</g>
	<g>
		<g>
			<path class="st21" d="M27.76704,77.71931c0.15436,0.98032,0.7476,4.37784,2.06349,7.95233
				c0.5207,1.41479,1.22016,2.17431,2.07909,2.2585c0.20676,0.02001,0.40835-0.00057,0.60114-0.0517
				c1.12212-0.29759,1.95984-1.62006,2.06578-1.79295c0.0697-0.13809,1.22573-2.53127,1.98138-5.71152
				c0.8327-3.50426-2.01344-4.75143-2.04182-4.76349l-4.66971-2.37167"/>
			<path class="st0" d="M22.75476,102.03823c-0.46481-2.96927,1.81751-10.1865,3.05077-12.2453l-1.40041-3.07313
				c-11.26331,0.83611-14.1251-2.70663-13.91685-5.87426c0.01758-0.26505,8.16277-4.08184,8.16277-4.08184
				s-0.04553-5.86085,6.68326-4.76694c2.95133,0.4798,6.98614,1.94652,7.97177,2.99917"/>
			<path class="st0" d="M35.99979,82.39745c1.09344,2.75159,4.02346,6.41763,4.79877,7.39529"/>
		</g>
		<circle class="st0" cx="23.48134" cy="83.55689" r="18.48134"/>
	</g>
	<g>
		<g>
			<path class="st21" d="M55.00581,18.16594c0.15436,0.98033,0.7476,4.37784,2.06349,7.95233
				c0.5207,1.41479,1.22017,2.17431,2.07909,2.2585c0.20676,0.02001,0.40835-0.00057,0.60114-0.0517
				c1.12212-0.29758,1.95984-1.62005,2.06578-1.79295c0.0697-0.1381,1.22574-2.53127,1.98138-5.71152
				c0.8327-3.50426-2.01344-4.75143-2.04182-4.76348l-4.66971-2.37167"/>
			<path class="st0" d="M49.99353,42.48486c-0.46481-2.96927,1.81751-10.1865,3.05077-12.2453l-1.40041-3.07313
				c-11.26331,0.8361-14.1251-2.70663-13.91685-5.87426c0.01758-0.26505,8.16277-4.08183,8.16277-4.08183
				s-0.04552-5.86085,6.68326-4.76694c2.95133,0.4798,6.98615,1.94652,7.97177,2.99916"/>
			<path class="st0" d="M63.23855,22.84407c1.09344,2.75158,4.02346,6.41762,4.79876,7.39528"/>
		</g>
		<circle class="st0" cx="50.72011" cy="24.00352" r="18.48134"/>
	</g>
	<g>
		<g>
			<path class="st21" d="M90.80436,60.87393c0.15436,0.98033,0.7476,4.37783,2.06349,7.95234
				c0.5207,1.41479,1.22016,2.17431,2.07909,2.2585c0.20676,0.02001,0.40836-0.00057,0.60114-0.0517
				c1.12212-0.29758,1.95984-1.62006,2.06578-1.79295c0.0697-0.13809,1.22574-2.53127,1.98138-5.71152
				c0.8327-3.50426-2.01344-4.75143-2.04182-4.76348l-4.66971-2.37167"/>
			<path class="st0" d="M85.79208,85.19285c-0.46481-2.96927,1.81751-10.1865,3.05077-12.24531l-1.40041-3.07312
				c-11.26331,0.8361-14.1251-2.70663-13.91685-5.87427c0.01758-0.26505,8.16277-4.08183,8.16277-4.08183
				s-0.04552-5.86085,6.68327-4.76694c2.95132,0.4798,6.98615,1.94652,7.97177,2.99916"/>
			<path class="st0" d="M99.0371,65.55206c1.09344,2.75159,4.02346,6.41762,4.79877,7.39528"/>
		</g>
		<circle class="st0" cx="86.51866" cy="66.7115" r="18.48134"/>
	</g>
	<circle class="st0" cx="89.93729" cy="25.23135" r="5.008"/>
	<circle class="st0" cx="24.22863" cy="47.03159" r="6.76317"/>
	<line class="st0" x1="23.48134" y1="65.07555" x2="24.22863" y2="53.79477"/>
	<line class="st0" x1="29.225" y1="42.48486" x2="36.71049" y2="36.04969"/>
	<line class="st0" x1="30.99181" y1="48.23016" x2="69.20145" y2="60.24804"/>
	<line class="st0" x1="75.1827" y1="81.30257" x2="39.00653" y2="93.57774"/>
	<line class="st0" x1="74.31619" y1="52.83593" x2="63.23855" y2="37.59602"/>
	<line class="st0" x1="91.94185" y1="48.23016" x2="89.93729" y2="30.23936"/>
	<circle class="st0" cx="68.28972" cy="98.85543" r="5.6224"/>
	<line class="st0" x1="73.51519" y1="96.00349" x2="81.53683" y2="84.50791"/>
	<line class="st0" x1="63.23855" y1="101.31252" x2="32.96774" y2="99.41841"/>
	<line class="st0" x1="86.02948" y1="22.10383" x2="67.75625" y2="16.82762"/>
</g>
<g id="lines">
</g>
</svg>
