<?xml version="1.0" encoding="utf-8"?>
<!-- Generator: Adobe Illustrator 19.2.1, SVG Export Plug-In . SVG Version: 6.00 Build 0)  -->
<svg version="1.1" xmlns="http://www.w3.org/2000/svg" xmlns:xlink="http://www.w3.org/1999/xlink" x="0px" y="0px" width="110px"
	 height="110px" viewBox="0 0 110 110" style="enable-background:new 0 0 110 110;" xml:space="preserve">
<style type="text/css">
	.st0{fill:none;stroke:#387CC6;stroke-width:2;stroke-miterlimit:10;}
	.st1{fill:#EDDD4F;}
	.st2{fill:#387CC6;}
	.st3{fill:#FFFFFF;}
	.st4{fill:none;stroke:#387CC6;stroke-width:2;stroke-linecap:round;stroke-linejoin:round;stroke-miterlimit:10;}
	.st5{fill:#EDDD4F;stroke:#387CC6;stroke-width:2;stroke-miterlimit:10;}
	.st6{opacity:0.3;}
	.st7{clip-path:url(#SVGID_2_);}
	.st8{clip-path:url(#SVGID_4_);fill-rule:evenodd;clip-rule:evenodd;}
	.st9{clip-path:url(#SVGID_4_);fill-rule:evenodd;clip-rule:evenodd;fill:#231F20;}
	.st10{clip-path:url(#SVGID_6_);}
	.st11{clip-path:url(#SVGID_8_);}
	.st12{clip-path:url(#SVGID_8_);fill:none;stroke:#000000;stroke-width:0.728;stroke-linejoin:bevel;}
	.st13{clip-path:url(#SVGID_8_);fill:none;stroke:#000000;stroke-width:0.894;stroke-linejoin:bevel;}
	.st14{clip-path:url(#SVGID_8_);fill:none;stroke:#000000;stroke-width:1.457;stroke-linejoin:bevel;}
	.st15{clip-path:url(#SVGID_8_);fill:none;stroke:#000000;stroke-width:0.088;}
	.st16{fill:#231F20;}
	.st17{fill:#ADACAC;}
	.st18{fill:#686868;}
	.st19{fill:#020202;}
	.st20{fill:none;stroke:#FFFFFF;stroke-width:0.215;}
	.st21{fill:none;stroke:#387CC6;stroke-width:2;stroke-linecap:round;stroke-miterlimit:10;}
	.st22{fill:none;stroke:#387CC6;stroke-miterlimit:10;}
	.st23{fill:none;stroke:#387CC6;stroke-linecap:round;stroke-miterlimit:10;}
	.st24{fill:#FA3700;}
	.st25{fill:#FFFFFF;stroke:#387CC6;stroke-width:2;stroke-miterlimit:10;}
</style>
<g id="Layer_3">
</g>
<g id="colour">
	<g>
		<path class="st0" d="M31.70351,41.07262c0-1.66471,0.64779-3.228,1.82415-4.40207c1.1558-1.15671,2.69031-1.80313,4.32076-1.81912
			l0.32344-0.0032l0.0032-0.32344c0.01873-1.63319,0.66333-3.16679,1.81593-4.31939
			c1.17361-1.17407,2.73737-1.82049,4.40345-1.82004c1.66608,0.00046,3.22984,0.64779,4.40345,1.82232
			c1.17544,1.17498,1.82278,2.73828,1.82278,4.40162c0,1.60852-0.61125,3.13527-1.7209,4.29837l-0.22157,0.23162l18.86255,18.86506
			l0.23344-0.22385c1.1542-1.1092,2.68003-1.72044,4.29632-1.72044c1.66357,0,3.2271,0.64734,4.40231,1.82323
			c1.17612,1.1759,1.82369,2.73919,1.82369,4.40253c0,1.6638-0.64734,3.22663-1.82301,4.40162
			c-1.15625,1.15672-2.69099,1.80268-4.32121,1.81821l-0.32275,0.0032l-0.00411,0.32344
			c-0.01827,1.63273-0.66356,3.16633-1.81661,4.31847c-1.1759,1.17727-2.73942,1.82552-4.40231,1.82552
			c-1.66357,0.00092-3.22641-0.64642-4.40093-1.82323c-1.17749-1.17544-1.8262-2.73965-1.8262-4.4039
			c0-1.60898,0.61125-3.13481,1.72113-4.29609l0.22293-0.23162L42.45973,45.35774l-0.23207,0.22248
			c-1.16265,1.10874-2.68894,1.71907-4.29837,1.71907c-1.66517,0-3.22846-0.64779-4.40162-1.82415
			C32.35131,44.29971,31.70351,42.73642,31.70351,41.07262z"/>
	</g>
	<g>
		<path class="st5" d="M44.3918,74.9773c-1.66471,0-3.228-0.6478-4.40207-1.82415c-1.15671-1.15579-1.80313-2.69031-1.81912-4.32076
			l-0.0032-0.32344l-0.32344-0.0032c-1.63319-0.01873-3.16679-0.66333-4.31939-1.81593
			c-1.17407-1.17361-1.82049-2.73737-1.82004-4.40345c0.00046-1.66608,0.64779-3.22984,1.82232-4.40345
			c1.17498-1.17544,2.73828-1.82278,4.40162-1.82278c1.60852,0,3.13527,0.61124,4.29837,1.7209l0.23162,0.22157l18.86506-18.86255
			l-0.22385-0.23344c-1.1092-1.1542-1.72044-2.68003-1.72044-4.29632c0-1.66357,0.64734-3.22709,1.82323-4.4023
			c1.1759-1.17613,2.73919-1.82369,4.40253-1.82369c1.6638,0,3.22663,0.64734,4.40161,1.82301
			c1.15672,1.15625,1.80268,2.69099,1.81821,4.32121l0.0032,0.32276l0.32344,0.00411
			c1.63273,0.01827,3.16633,0.66355,4.31847,1.81661c1.17727,1.1759,1.82552,2.73942,1.82552,4.40231
			c0.00092,1.66357-0.64642,3.22641-1.82323,4.40093c-1.17544,1.17749-2.73965,1.8262-4.4039,1.8262
			c-1.60898,0-3.13481-0.61125-4.29609-1.72113l-0.23161-0.22293L48.67693,64.22109l0.22248,0.23207
			c1.10874,1.16265,1.71907,2.68894,1.71907,4.29837c0,1.66517-0.64779,3.22846-1.82415,4.40162
			C47.61889,74.32951,46.0556,74.9773,44.3918,74.9773z"/>
	</g>
	<path class="st4" d="M55.00053,105l-0.47578-0.14861c-0.42019-0.13044-10.38586-3.33366-20.38789-15.48792
		C17.614,69.28564,14.14563,40.63631,14.14563,20.13616v-1.55563l1.55563-0.04811
		c0.24056-0.00748,24.24009-0.87458,38.26753-12.66532L55.00053,5l1.03175,0.86709
		C70.07788,17.67387,94.05817,18.526,94.29874,18.53241l1.55563,0.04704v1.5567c0,20.49909-3.46837,49.14948-19.99016,69.22731
		c-10.00204,12.15427-19.96772,15.35854-20.3879,15.48898L55.00053,105z"/>
</g>
<g id="lines">
</g>
</svg>
