<?xml version="1.0" encoding="utf-8"?>
<!-- Generator: Adobe Illustrator 19.2.1, SVG Export Plug-In . SVG Version: 6.00 Build 0)  -->
<svg version="1.1" xmlns="http://www.w3.org/2000/svg" xmlns:xlink="http://www.w3.org/1999/xlink" x="0px" y="0px" width="110px"
	 height="110px" viewBox="0 0 110 110" style="enable-background:new 0 0 110 110;" xml:space="preserve">
<style type="text/css">
	.st0{fill:#EDDD4F;}
	.st1{fill:#387CC6;}
	.st2{fill:#FFFFFF;}
	.st3{fill:none;stroke:#387CC6;stroke-width:2;stroke-linecap:round;stroke-linejoin:round;stroke-miterlimit:10;}
	.st4{opacity:0.3;}
	.st5{clip-path:url(#SVGID_2_);}
	.st6{clip-path:url(#SVGID_4_);fill-rule:evenodd;clip-rule:evenodd;}
	.st7{clip-path:url(#SVGID_4_);fill-rule:evenodd;clip-rule:evenodd;fill:#231F20;}
	.st8{clip-path:url(#SVGID_6_);}
	.st9{clip-path:url(#SVGID_8_);}
	.st10{clip-path:url(#SVGID_8_);fill:none;stroke:#000000;stroke-width:0.728;stroke-linejoin:bevel;}
	.st11{clip-path:url(#SVGID_8_);fill:none;stroke:#000000;stroke-width:0.894;stroke-linejoin:bevel;}
	.st12{clip-path:url(#SVGID_8_);fill:none;stroke:#000000;stroke-width:1.457;stroke-linejoin:bevel;}
	.st13{clip-path:url(#SVGID_8_);fill:none;stroke:#000000;stroke-width:0.088;}
	.st14{fill:#231F20;}
	.st15{fill:#ADACAC;}
	.st16{fill:#686868;}
	.st17{fill:#020202;}
	.st18{fill:none;stroke:#FFFFFF;stroke-width:0.215;}
	.st19{fill:none;stroke:#387CC6;stroke-width:2;stroke-miterlimit:10;}
	.st20{fill:none;stroke:#387CC6;stroke-width:2;stroke-linecap:round;stroke-miterlimit:10;}
	.st21{fill:none;stroke:#387CC6;stroke-miterlimit:10;}
	.st22{fill:none;stroke:#387CC6;stroke-linecap:round;stroke-miterlimit:10;}
	.st23{fill:#FA3700;}
	.st24{fill:#FFFFFF;stroke:#387CC6;stroke-width:2;stroke-miterlimit:10;}
	.st25{fill:#EDDD4F;stroke:#387CC6;stroke-width:2;stroke-miterlimit:10;}
</style>
<g id="Layer_3">
</g>
<g id="colour">
	<polygon class="st0" points="39.60059,81.89062 81.88184,39.60205 79.21415,37.25096 36.83362,79.22976 	"/>
	<g>
		<g>
			<g>
				<path class="st1" d="M32.32324,104.7998c-3.55859,0-6.90039-1.38477-9.41016-3.89941
					c-2.47266-2.4707-3.85449-5.75098-3.88867-9.23633l-0.00684-0.69141l-0.69141-0.00684
					c-3.49121-0.04004-6.76953-1.41797-9.2334-3.88184c-2.50977-2.50879-3.8916-5.85156-3.89062-9.41309
					s1.38477-6.9043,3.89551-9.41309c2.51172-2.5127,5.85352-3.89648,9.40918-3.89648c3.43848,0,6.70215,1.30664,9.18848,3.67871
					l0.49512,0.47363l40.32715-40.32178l-0.47852-0.49902c-2.37109-2.46729-3.67773-5.729-3.67773-9.18408
					c0-3.55615,1.38379-6.89844,3.89746-9.41064c2.51367-2.51416,5.85547-3.89844,9.41113-3.89844
					c3.55664,0,6.89746,1.38379,9.40918,3.89697c2.47266,2.47168,3.85352,5.75244,3.88672,9.2373l0.00684,0.68994l0.69141,0.00879
					c3.49023,0.03906,6.76855,1.41846,9.23145,3.8833c2.5166,2.51367,3.90234,5.85596,3.90234,9.41064
					c0.00195,3.55615-1.38184,6.89697-3.89746,9.40771c-2.5127,2.51709-5.85645,3.90381-9.41406,3.90381
					c-3.43945,0-6.70117-1.30664-9.18359-3.6792l-0.49512-0.47656L41.4834,81.80664l0.47559,0.49609
					c2.37012,2.48535,3.6748,5.74805,3.6748,9.18848c0,3.55957-1.38477,6.90137-3.89941,9.40918
					C39.22168,103.41504,35.87988,104.7998,32.32324,104.7998z M20.16211,88.8584c0.25977,0.00586,0.50391,0.11035,0.6875,0.29395
					c0.21484,0.20898,0.32227,0.52344,0.2832,0.83496c-0.47266,3.53223,0.69141,6.99316,3.19336,9.5
					c2.13965,2.13574,4.98145,3.31152,8,3.31152c3.01562,0,5.85547-1.17578,7.99805-3.31152
					c2.13477-2.1377,3.31055-4.97754,3.31055-7.99609c0-3.01758-1.17578-5.85742-3.31055-7.99707
					c-0.30664-0.30469-0.62402-0.58789-0.94238-0.83984c-0.22266-0.17285-0.3623-0.43945-0.37988-0.72754
					c-0.01562-0.28418,0.08984-0.5625,0.28906-0.76367l41.87695-41.8667c0.18945-0.18994,0.44336-0.29443,0.71387-0.29443
					c0.33691,0.01904,0.59668,0.15088,0.78027,0.38232c0.30859,0.38428,0.57129,0.68018,0.82617,0.92871
					c2.14355,2.14502,4.98438,3.32373,8.00293,3.32373c3.02148,0,5.86328-1.17725,8.00098-3.31445
					c2.13574-2.13916,3.31152-4.97852,3.31152-7.99463c0-3.01709-1.17676-5.85693-3.3125-7.99609
					c-2.09863-2.09473-5.0127-3.29639-7.99414-3.29639c-0.48047,0-0.96777,0.03125-1.44922,0.09326
					c-0.45703-0.00293-0.70312-0.08789-0.89746-0.27881c-0.21875-0.22021-0.32422-0.53223-0.28516-0.83887
					c0.47461-3.53125-0.68945-6.99219-3.19434-9.49756c-2.13672-2.13525-4.97559-3.31104-7.99316-3.31104
					s-5.8584,1.17627-7.99902,3.31201c-2.13477,2.14014-3.31055,4.98047-3.31055,7.99561c0,3.02002,1.17578,5.85889,3.31055,7.99316
					c0.28027,0.28711,0.57812,0.55225,0.94238,0.83936c0.22266,0.1748,0.3623,0.44092,0.38184,0.729
					c0.01465,0.28662-0.09375,0.5625-0.29688,0.76416L28.83301,70.70703c-0.18652,0.18848-0.44531,0.29395-0.72461,0.29395
					c-0.33203-0.01562-0.58887-0.14844-0.76953-0.38379c-0.28516-0.3623-0.55957-0.6709-0.83496-0.93945
					c-2.13965-2.1377-4.97852-3.3125-7.99707-3.3125c-3.01758,0-5.85645,1.1748-7.99414,3.30762
					c-4.40527,4.41211-4.4082,11.58984-0.00586,16c2.09766,2.09277,5.00781,3.29395,7.98438,3.29395
					c0.50977,0,1.01855-0.0332,1.51367-0.09961l0.13965-0.00879H20.16211z"/>
			</g>
		</g>
	</g>
</g>
<g id="lines">
</g>
</svg>
