<?xml version="1.0" encoding="utf-8"?>
<!-- Generator: Adobe Illustrator 16.0.0, SVG Export Plug-In . SVG Version: 6.00 Build 0)  -->
<!DOCTYPE svg PUBLIC "-//W3C//DTD SVG 1.1//EN" "http://www.w3.org/Graphics/SVG/1.1/DTD/svg11.dtd">
<svg version="1.1" id="Layer_1" xmlns="http://www.w3.org/2000/svg" xmlns:xlink="http://www.w3.org/1999/xlink" x="0px" y="0px"
	 width="308.878px" height="286.792px" viewBox="-0.687 5.908 308.878 286.792"
	 enable-background="new -0.687 5.908 308.878 286.792" xml:space="preserve">
<g>
	<ellipse fill="#776A5B" cx="148.989" cy="281.878" rx="90.6" ry="10.822"/>
	<g>
		<path fill="none" stroke="#000000" stroke-width="4.1749" stroke-linecap="round" stroke-miterlimit="10" d="M179.137,118.924
			c-9.276,1.314-19.017,9.045-22.959,21.876"/>
	</g>
	<g>
		
			<path fill="#FFFFFF" stroke="#000000" stroke-width="2.7833" stroke-linecap="round" stroke-linejoin="round" stroke-miterlimit="10" d="
			M176.586,101.531l-7.729,20.563l18.861,11.363l84.491-29.452l-11.132-31.927L176.586,101.531z M181.225,120.006
			c-1.393,0.464-2.938-0.232-3.401-1.623c-0.464-1.391,0.232-2.938,1.623-3.402c1.394-0.463,2.939,0.233,3.401,1.624
			C183.388,117.997,182.616,119.543,181.225,120.006z"/>
	</g>
	<g>
		<path fill="#EA0A0A" d="M188.877,109.648l5.798-2.011l0.387,1.16l-4.407,1.546l1.237,3.557l4.098-1.391l0.386,1.159l-4.098,1.392
			l1.702,4.87l-1.393,0.463L188.877,109.648z"/>
		<path fill="#EA0A0A" d="M207.739,108.952c1.315,3.71-0.308,6.416-3.014,7.421c-2.86,1.005-5.565-0.541-6.726-3.788
			c-1.159-3.401,0.155-6.416,3.015-7.42C203.874,104.237,206.58,105.783,207.739,108.952z M199.391,112.044
			c0.772,2.319,2.782,3.943,4.947,3.17c2.163-0.773,2.705-3.247,1.854-5.644c-0.773-2.164-2.628-3.942-4.947-3.169
			C199.004,107.174,198.618,109.725,199.391,112.044z"/>
		<path fill="#EA0A0A" d="M207.739,103.232c0.619-0.387,1.625-0.851,2.552-1.16c1.469-0.542,2.552-0.619,3.401-0.232
			c0.695,0.31,1.236,0.928,1.546,1.778c0.464,1.392-0.077,2.706-1.082,3.479v0.077c0.927,0,1.7,0.618,2.318,1.623
			c0.852,1.392,1.47,2.319,1.856,2.628l-1.47,0.464c-0.309-0.232-0.85-1.082-1.623-2.319c-0.851-1.391-1.623-1.7-2.861-1.313
			l-1.313,0.463l1.624,4.638l-1.391,0.464L207.739,103.232z M210.831,107.638l1.393-0.463c1.469-0.541,2.165-1.623,1.7-2.86
			c-0.464-1.391-1.7-1.623-3.17-1.16c-0.695,0.232-1.159,0.464-1.313,0.619L210.831,107.638z"/>
		<path fill="#EA0A0A" d="M222.582,108.024c0.773,0.155,1.777,0.155,2.706-0.154c1.391-0.464,2.01-1.546,1.623-2.629
			c-0.387-1.005-1.16-1.391-2.783-1.469c-1.933,0-3.401-0.541-3.864-2.087c-0.619-1.701,0.386-3.401,2.473-4.098
			c1.082-0.386,2.01-0.386,2.552-0.309v1.236c-0.387-0.077-1.237-0.155-2.242,0.232c-1.469,0.542-1.7,1.546-1.469,2.319
			c0.387,1.005,1.16,1.237,2.86,1.314c2.087,0.078,3.324,0.618,3.865,2.165c0.541,1.624-0.154,3.556-2.705,4.406
			c-1.006,0.387-2.241,0.464-3.014,0.232v-1.16H222.582z"/>
		<path fill="#EA0A0A" d="M231.781,102.923l0.077,3.788l-1.469,0.463l-0.077-12.059l1.7-0.619l7.421,9.509l-1.468,0.541
			l-2.319-3.015L231.781,102.923z M234.951,100.604l-2.166-2.706c-0.463-0.618-0.85-1.236-1.236-1.778l0,0
			c0.077,0.695,0.154,1.392,0.154,2.165v3.479L234.951,100.604z"/>
		<path fill="#EA0A0A" d="M237.269,92.796l1.391-0.464l3.325,9.586l4.561-1.624l0.387,1.16l-5.953,2.087L237.269,92.796z"/>
		<path fill="#EA0A0A" d="M252.343,93.956l-4.175,1.468l1.313,3.865l4.639-1.623l0.387,1.159l-6.029,2.087l-3.711-10.745l5.798-2.01
			l0.387,1.16l-4.406,1.546l1.16,3.401l4.174-1.468L252.343,93.956z"/>
	</g>
	<path fill="none" stroke="#000000" stroke-width="4.1749" stroke-linecap="round" stroke-miterlimit="10" d="M160.971,142.733
		c7.652-4.947,14.533-13.063,18.708-23.577"/>
	<g>
		
			<path fill="#E28437" stroke="#000000" stroke-width="6" stroke-linecap="round" stroke-linejoin="round" stroke-miterlimit="10" d="
			M229.616,211.843c0.464-1.005,1.083-2.011,1.933-2.784c0.851-0.851,2.01-1.468,3.402-2.01c-1.315-0.465-2.939-0.618-4.485-0.231
			c-1.546,0.386-3.092,1.236-4.252,2.318c-2.472,2.241-3.942,5.179-4.87,8.038c-0.465,1.47-0.851,2.938-1.08,4.407
			c-0.31,1.469-0.233,2.937-0.31,4.483l0.153,0.154l0,0c0-0.077-0.153,0.155-0.153-0.154h-0.077l-0.078,0.079v0.231v0.541
			l-0.078,1.005l-0.077,2.01l-0.078,4.098c0,1.159,0,2.319,0.078,3.557l-31.616-52.257l-35.405-55.427l-53.88,5.025v145.947h20.64
			h12.368h24.582h1.933h30.844c13.683,0,26.052-5.565,34.786-14.764l0.31-0.233c2.629-2.859,5.025-5.951,6.881-9.43l-3.635-5.952
			c0-0.078,0-0.155,0-0.232c0.619-5.411,0.929-10.822,0.929-16.233l-0.077-4.098l-0.078-2.01l-0.078-1.005v-0.541v-0.231v-0.232
			v-0.077c-0.153-2.319-0.153-4.87,0-7.267C228.302,216.249,228.688,213.852,229.616,211.843z"/>
		<polyline fill="none" stroke="#000000" stroke-width="4.0181" stroke-linecap="round" stroke-miterlimit="10" points="
			110.956,189.192 110.956,281.26 98.587,281.26 98.587,189.192 		"/>
		<polyline fill="none" stroke="#000000" stroke-width="4.0181" stroke-linecap="round" stroke-miterlimit="10" points="
			128.582,189.192 128.582,281.26 116.213,281.26 116.213,189.192 		"/>
		
			<path fill="#E28437" stroke="#000000" stroke-width="6" stroke-linecap="round" stroke-linejoin="round" stroke-miterlimit="10" d="
			M231.007,256.601l-43.058-71.196c-25.974,0.619-46.846,21.8-46.846,47.928c0,14.146,6.107,26.824,15.848,35.637h-1.701h-6.725
			c-3.247,0-5.875,2.628-5.875,5.876v0.464v0.154v5.876h5.875h38.188h5.874v-0.156C209.13,279.945,223.355,270.36,231.007,256.601z"
			/>
		
			<line fill="none" stroke="#000000" stroke-width="2.6787" stroke-linecap="round" stroke-linejoin="round" stroke-miterlimit="10" x1="120.155" y1="279.173" x2="120.155" y2="274.303"/>
		
			<line fill="none" stroke="#000000" stroke-width="2.6787" stroke-linecap="round" stroke-linejoin="round" stroke-miterlimit="10" x1="124.33" y1="279.173" x2="124.33" y2="274.303"/>
		
			<line fill="none" stroke="#000000" stroke-width="2.6787" stroke-linecap="round" stroke-linejoin="round" stroke-miterlimit="10" x1="148.139" y1="280.178" x2="148.139" y2="275.308"/>
		
			<line fill="none" stroke="#000000" stroke-width="2.6787" stroke-linecap="round" stroke-linejoin="round" stroke-miterlimit="10" x1="152.236" y1="280.178" x2="152.236" y2="275.308"/>
		
			<line fill="none" stroke="#000000" stroke-width="2.6787" stroke-linecap="round" stroke-linejoin="round" stroke-miterlimit="10" x1="102.685" y1="279.173" x2="102.685" y2="274.303"/>
		
			<line fill="none" stroke="#EA0A0A" stroke-width="14.4827" stroke-miterlimit="10" x1="128.582" y1="138.405" x2="163.445" y2="138.405"/>
		
			<line fill="none" stroke="#000000" stroke-width="2.6787" stroke-linecap="round" stroke-linejoin="round" stroke-miterlimit="10" x1="106.859" y1="279.173" x2="106.859" y2="274.303"/>
		<g>
			<g>
				<path fill="#FEE252" d="M126.417,114.286c-0.077,1.623-1.082,2.087-2.396,1.082L99.052,95.656
					c-1.237-1.004-1.083-2.319,0.386-3.014l25.124-11.054c1.468-0.619,2.628,0.154,2.628,1.778L126.417,114.286z"/>
				
					<path fill="none" stroke="#000000" stroke-width="5.9248" stroke-linecap="round" stroke-linejoin="round" stroke-miterlimit="10" d="
					M126.417,114.286c-0.077,1.623-1.082,2.087-2.396,1.082L99.052,95.656c-1.237-1.004-1.083-2.319,0.386-3.014l25.124-11.054
					c1.468-0.619,2.628,0.154,2.628,1.778L126.417,114.286z"/>
			</g>
			<path stroke="#000000" stroke-width="4.0181" stroke-miterlimit="10" d="M36.591,123.949l10.899-4.793l-5.566,14.146
				C39.915,130.443,38.137,127.273,36.591,123.949z"/>
			
				<path fill="#E28437" stroke="#000000" stroke-width="6" stroke-linecap="round" stroke-linejoin="round" stroke-miterlimit="10" d="
				M102.375,153.634c-21.722,6.261-46.613-2.242-59.755-20.408l5.333-13.219l86.039-37.724l0,0l-0.31,0.155l21.026,49.706
				l-51.484,21.335L102.375,153.634z"/>
			<g>
				<path fill="#E28437" d="M133.683,108.102c-0.077,1.623-1.083,2.087-2.396,1.082l-24.969-19.712
					c-1.237-1.005-1.082-2.319,0.386-3.014l25.124-11.054c1.469-0.619,2.628,0.154,2.628,1.778L133.683,108.102z"/>
				
					<path fill="none" stroke="#000000" stroke-width="5.9248" stroke-linecap="round" stroke-linejoin="round" stroke-miterlimit="10" d="
					M133.683,108.102c-0.077,1.623-1.083,2.087-2.396,1.082l-24.969-19.712c-1.237-1.005-1.082-2.319,0.386-3.014l25.124-11.054
					c1.469-0.619,2.628,0.154,2.628,1.778L133.683,108.102z"/>
			</g>
			
				<line fill="none" stroke="#000000" stroke-width="4.0181" stroke-linecap="round" stroke-linejoin="round" stroke-miterlimit="10" x1="100.752" y1="108.179" x2="111.961" y2="109.957"/>
			<path d="M109.951,112.199c-0.232,1.314-1.468,2.242-2.783,2.087c-1.314-0.231-2.242-1.469-2.087-2.783
				c0.232-1.313,1.469-2.241,2.783-2.086C109.256,109.57,110.183,110.808,109.951,112.199z"/>
		</g>
	</g>
</g>
</svg>
