<?xml version="1.0" encoding="utf-8"?>
<!-- Generator: Adobe Illustrator 19.2.1, SVG Export Plug-In . SVG Version: 6.00 Build 0)  -->
<svg version="1.1" id="illustration" xmlns="http://www.w3.org/2000/svg" xmlns:xlink="http://www.w3.org/1999/xlink" x="0px"
	 y="0px" width="600px" height="355.05554px" viewBox="0 0 600 355.05554" style="enable-background:new 0 0 600 355.05554;"
	 xml:space="preserve">
<style type="text/css">
	.st0{fill:none;stroke:#5E5E5E;stroke-miterlimit:10;}
	.st1{fill:#EDDD4F;}
	.st2{fill:none;stroke:#FFFFFF;stroke-miterlimit:10;}
	.st3{fill:#C1C0BF;}
	.st4{fill:none;stroke:#387CC6;stroke-width:2;stroke-miterlimit:10;}
	.st5{fill:none;stroke:#387CC6;stroke-width:2;stroke-linecap:round;stroke-linejoin:round;stroke-miterlimit:10;}
	.st6{fill:none;stroke:#387CC6;stroke-width:2;stroke-linecap:round;stroke-miterlimit:10;}
	.st7{fill:#EDDD4F;stroke:#387CC6;stroke-width:2;stroke-miterlimit:10;}
	.st8{fill:#EDDD4F;stroke:#FFFFFF;stroke-miterlimit:10;}
	.st9{fill:none;stroke:#5E5E5E;stroke-width:2;stroke-linecap:round;stroke-linejoin:round;stroke-miterlimit:10;}
	.st10{fill:none;stroke:#5E5E5E;stroke-width:2;stroke-miterlimit:10;}
</style>
<g>
	<path class="st1" d="M94.7434,189.55452c0,0.55,0.45,1,1,1h13.26182c0.55,0,1-0.45,1-1v-1.48741c0-0.54999-0.45-1-1-1H95.7434
		c-0.55,0-1,0.45001-1,1V189.55452z"/>
	<path class="st2" d="M94.7434,189.55452c0,0.55,0.45,1,1,1h13.26182c0.55,0,1-0.45,1-1v-1.48741c0-0.54999-0.45-1-1-1H95.7434
		c-0.55,0-1,0.45001-1,1V189.55452z"/>
</g>
<g>
	<path class="st1" d="M93.07228,186.06711c0,0.55,0.45,1,1,1h13.26182c0.55,0,1-0.45,1-1v-1.4874c0-0.55-0.45-1-1-1H94.07228
		c-0.55,0-1,0.45-1,1V186.06711z"/>
	<path class="st2" d="M93.07228,186.06711c0,0.55,0.45,1,1,1h13.26182c0.55,0,1-0.45,1-1v-1.4874c0-0.55-0.45-1-1-1H94.07228
		c-0.55,0-1,0.45-1,1V186.06711z"/>
</g>
<g>
	<path class="st1" d="M93.7262,182.57971c0,0.55,0.45,1,1,1h13.26182c0.55,0,1-0.45,1-1v-1.4874c0-0.55-0.45-1-1-1H94.7262
		c-0.55,0-1,0.45-1,1V182.57971z"/>
	<path class="st2" d="M93.7262,182.57971c0,0.55,0.45,1,1,1h13.26182c0.55,0,1-0.45,1-1v-1.4874c0-0.55-0.45-1-1-1H94.7262
		c-0.55,0-1,0.45-1,1V182.57971z"/>
</g>
<g>
	<path class="st1" d="M94.7434,179.10422c0,0.55,0.45,1,1,1h13.26182c0.55,0,1-0.45,1-1v-1.4874c0-0.55-0.45-1-1-1H95.7434
		c-0.55,0-1,0.45-1,1V179.10422z"/>
	<path class="st2" d="M94.7434,179.10422c0,0.55,0.45,1,1,1h13.26182c0.55,0,1-0.45,1-1v-1.4874c0-0.55-0.45-1-1-1H95.7434
		c-0.55,0-1,0.45-1,1V179.10422z"/>
</g>
<g>
	<path class="st1" d="M91.98242,175.38307c0,0.54999,0.45,1,1,1h13.26182c0.55,0,1-0.45001,1-1v-1.48741c0-0.54999-0.45-1-1-1
		H92.98242c-0.55,0-1,0.45001-1,1V175.38307z"/>
	<path class="st2" d="M91.98242,175.38307c0,0.54999,0.45,1,1,1h13.26182c0.55,0,1-0.45001,1-1v-1.48741c0-0.54999-0.45-1-1-1
		H92.98242c-0.55,0-1,0.45001-1,1V175.38307z"/>
</g>
<g>
	<path class="st1" d="M93.36292,172.00555c0,0.55,0.45,1,1,1h13.26181c0.55,0,1-0.45,1-1v-1.4874c0-0.55-0.45-1-1-1H94.36292
		c-0.55,0-1,0.45-1,1V172.00555z"/>
	<path class="st2" d="M93.36292,172.00555c0,0.55,0.45,1,1,1h13.26181c0.55,0,1-0.45,1-1v-1.4874c0-0.55-0.45-1-1-1H94.36292
		c-0.55,0-1,0.45-1,1V172.00555z"/>
</g>
<g>
	<path class="st1" d="M94.45277,168.7135c0,0.54999,0.45,1,1,1h13.26181c0.55,0,1-0.45001,1-1v-1.48741c0-0.55-0.45-1-1-1H95.45277
		c-0.55,0-1,0.45-1,1V168.7135z"/>
	<path class="st2" d="M94.45277,168.7135c0,0.54999,0.45,1,1,1h13.26181c0.55,0,1-0.45001,1-1v-1.48741c0-0.55-0.45-1-1-1H95.45277
		c-0.55,0-1,0.45-1,1V168.7135z"/>
</g>
<g>
	<path class="st1" d="M92.78165,165.22609c0,0.55,0.45,1,1,1h13.26182c0.55,0,1-0.45,1-1v-1.4874c0-0.55-0.45-1-1-1H93.78165
		c-0.55,0-1,0.45-1,1V165.22609z"/>
	<path class="st2" d="M92.78165,165.22609c0,0.55,0.45,1,1,1h13.26182c0.55,0,1-0.45,1-1v-1.4874c0-0.55-0.45-1-1-1H93.78165
		c-0.55,0-1,0.45-1,1V165.22609z"/>
</g>
<g>
	<path class="st1" d="M93.43557,161.73869c0,0.55,0.45,1,1,1h13.26182c0.55,0,1-0.45,1-1v-1.4874c0-0.55-0.45-1-1-1H94.43557
		c-0.55,0-1,0.45-1,1V161.73869z"/>
	<path class="st2" d="M93.43557,161.73869c0,0.55,0.45,1,1,1h13.26182c0.55,0,1-0.45,1-1v-1.4874c0-0.55-0.45-1-1-1H94.43557
		c-0.55,0-1,0.45-1,1V161.73869z"/>
</g>
<g>
	<path class="st1" d="M94.45277,158.2632c0,0.55,0.45,1,1,1h13.26181c0.55,0,1-0.45,1-1v-1.4874c0-0.55-0.45-1-1-1H95.45277
		c-0.55,0-1,0.45-1,1V158.2632z"/>
	<path class="st2" d="M94.45277,158.2632c0,0.55,0.45,1,1,1h13.26181c0.55,0,1-0.45,1-1v-1.4874c0-0.55-0.45-1-1-1H95.45277
		c-0.55,0-1,0.45-1,1V158.2632z"/>
</g>
<g>
	<path class="st1" d="M91.6918,154.54204c0,0.55,0.45,1,1,1h13.26182c0.55,0,1-0.45,1-1v-1.4874c0-0.55-0.45-1-1-1H92.6918
		c-0.55,0-1,0.45-1,1V154.54204z"/>
	<path class="st2" d="M91.6918,154.54204c0,0.55,0.45,1,1,1h13.26182c0.55,0,1-0.45,1-1v-1.4874c0-0.55-0.45-1-1-1H92.6918
		c-0.55,0-1,0.45-1,1V154.54204z"/>
</g>
<g>
	<path class="st1" d="M93.07228,151.16454c0,0.55,0.45,1,1,1h13.26182c0.55,0,1-0.45,1-1v-1.4874c0-0.55-0.45-1-1-1H94.07228
		c-0.55,0-1,0.45-1,1V151.16454z"/>
	<path class="st2" d="M93.07228,151.16454c0,0.55,0.45,1,1,1h13.26182c0.55,0,1-0.45,1-1v-1.4874c0-0.55-0.45-1-1-1H94.07228
		c-0.55,0-1,0.45-1,1V151.16454z"/>
</g>
<g>
	<path class="st1" d="M87.29982,150.1015c0-0.55-0.45-1-1-1H73.038c-0.55,0-1,0.45-1,1v1.4874c0,0.55,0.45,1,1,1h13.26182
		c0.55,0,1-0.45,1-1V150.1015z"/>
	<path class="st2" d="M87.29982,150.1015c0-0.55-0.45-1-1-1H73.038c-0.55,0-1,0.45-1,1v1.4874c0,0.55,0.45,1,1,1h13.26182
		c0.55,0,1-0.45,1-1V150.1015z"/>
</g>
<g>
	<path class="st1" d="M88.97094,153.5889c0-0.55-0.45-1-1-1H74.70912c-0.55,0-1,0.45-1,1v1.4874c0,0.55,0.45,1,1,1h13.26182
		c0.55,0,1-0.45,1-1V153.5889z"/>
	<path class="st2" d="M88.97094,153.5889c0-0.55-0.45-1-1-1H74.70912c-0.55,0-1,0.45-1,1v1.4874c0,0.55,0.45,1,1,1h13.26182
		c0.55,0,1-0.45,1-1V153.5889z"/>
</g>
<g>
	<path class="st1" d="M88.31702,157.07629c0-0.55-0.45-1-1-1H74.05521c-0.55,0-1,0.45-1,1v1.48741c0,0.54999,0.45,1,1,1h13.26182
		c0.55,0,1-0.45001,1-1V157.07629z"/>
	<path class="st2" d="M88.31702,157.07629c0-0.55-0.45-1-1-1H74.05521c-0.55,0-1,0.45-1,1v1.48741c0,0.54999,0.45,1,1,1h13.26182
		c0.55,0,1-0.45001,1-1V157.07629z"/>
</g>
<g>
	<path class="st1" d="M87.29982,160.55179c0-0.55-0.45-1-1-1H73.038c-0.55,0-1,0.45-1,1v1.48741c0,0.54999,0.45,1,1,1h13.26182
		c0.55,0,1-0.45001,1-1V160.55179z"/>
	<path class="st2" d="M87.29982,160.55179c0-0.55-0.45-1-1-1H73.038c-0.55,0-1,0.45-1,1v1.48741c0,0.54999,0.45,1,1,1h13.26182
		c0.55,0,1-0.45001,1-1V160.55179z"/>
</g>
<g>
	<path class="st1" d="M90.0608,164.27295c0-0.55-0.45-1-1-1H75.79898c-0.55,0-1,0.45-1,1v1.4874c0,0.55,0.45,1,1,1H89.0608
		c0.55,0,1-0.45,1-1V164.27295z"/>
	<path class="st2" d="M90.0608,164.27295c0-0.55-0.45-1-1-1H75.79898c-0.55,0-1,0.45-1,1v1.4874c0,0.55,0.45,1,1,1H89.0608
		c0.55,0,1-0.45,1-1V164.27295z"/>
</g>
<g>
	<path class="st1" d="M85.91933,132.44264c0-0.55-0.45-1-1-1H71.65752c-0.55,0-1,0.45-1,1v1.48741c0,0.54999,0.45,1,1,1h13.26182
		c0.55,0,1-0.45001,1-1V132.44264z"/>
	<path class="st2" d="M85.91933,132.44264c0-0.55-0.45-1-1-1H71.65752c-0.55,0-1,0.45-1,1v1.48741c0,0.54999,0.45,1,1,1h13.26182
		c0.55,0,1-0.45001,1-1V132.44264z"/>
</g>
<g>
	<path class="st1" d="M87.59045,135.93005c0-0.55-0.45-1-1-1H73.32864c-0.55,0-1,0.45-1,1v1.4874c0,0.55,0.45,1,1,1h13.26181
		c0.55,0,1-0.45,1-1V135.93005z"/>
	<path class="st2" d="M87.59045,135.93005c0-0.55-0.45-1-1-1H73.32864c-0.55,0-1,0.45-1,1v1.4874c0,0.55,0.45,1,1,1h13.26181
		c0.55,0,1-0.45,1-1V135.93005z"/>
</g>
<g>
	<path class="st1" d="M86.93653,139.41745c0-0.55-0.45-1-1-1H72.67472c-0.55,0-1,0.45-1,1v1.4874c0,0.55,0.45,1,1,1h13.26181
		c0.55,0,1-0.45,1-1V139.41745z"/>
	<path class="st2" d="M86.93653,139.41745c0-0.55-0.45-1-1-1H72.67472c-0.55,0-1,0.45-1,1v1.4874c0,0.55,0.45,1,1,1h13.26181
		c0.55,0,1-0.45,1-1V139.41745z"/>
</g>
<g>
	<path class="st1" d="M85.91933,142.89294c0-0.55-0.45-1-1-1H71.65752c-0.55,0-1,0.45-1,1v1.4874c0,0.55,0.45,1,1,1h13.26182
		c0.55,0,1-0.45,1-1V142.89294z"/>
	<path class="st2" d="M85.91933,142.89294c0-0.55-0.45-1-1-1H71.65752c-0.55,0-1,0.45-1,1v1.4874c0,0.55,0.45,1,1,1h13.26182
		c0.55,0,1-0.45,1-1V142.89294z"/>
</g>
<g>
	<path class="st1" d="M88.68031,146.61409c0-0.55-0.45-1-1-1H74.4185c-0.55,0-1,0.45-1,1v1.48741c0,0.54999,0.45,1,1,1h13.26181
		c0.55,0,1-0.45001,1-1V146.61409z"/>
	<path class="st2" d="M88.68031,146.61409c0-0.55-0.45-1-1-1H74.4185c-0.55,0-1,0.45-1,1v1.48741c0,0.54999,0.45,1,1,1h13.26181
		c0.55,0,1-0.45001,1-1V146.61409z"/>
</g>
<g>
	<path class="st1" d="M88.68031,167.65045c0-0.55-0.45-1-1-1H74.4185c-0.55,0-1,0.45-1,1v1.4874c0,0.55,0.45,1,1,1h13.26181
		c0.55,0,1-0.45,1-1V167.65045z"/>
	<path class="st2" d="M88.68031,167.65045c0-0.55-0.45-1-1-1H74.4185c-0.55,0-1,0.45-1,1v1.4874c0,0.55,0.45,1,1,1h13.26181
		c0.55,0,1-0.45,1-1V167.65045z"/>
</g>
<g>
	<path class="st1" d="M87.59045,170.94252c0-0.55-0.45-1-1-1H73.32864c-0.55,0-1,0.45-1,1v1.4874c0,0.55,0.45,1,1,1h13.26181
		c0.55,0,1-0.45,1-1V170.94252z"/>
	<path class="st2" d="M87.59045,170.94252c0-0.55-0.45-1-1-1H73.32864c-0.55,0-1,0.45-1,1v1.4874c0,0.55,0.45,1,1,1h13.26181
		c0.55,0,1-0.45,1-1V170.94252z"/>
</g>
<g>
	<path class="st1" d="M89.26157,174.42992c0-0.55-0.45-1-1-1H74.99975c-0.55,0-1,0.45-1,1v1.4874c0,0.55,0.45,1,1,1h13.26182
		c0.55,0,1-0.45,1-1V174.42992z"/>
	<path class="st2" d="M89.26157,174.42992c0-0.55-0.45-1-1-1H74.99975c-0.55,0-1,0.45-1,1v1.4874c0,0.55,0.45,1,1,1h13.26182
		c0.55,0,1-0.45,1-1V174.42992z"/>
</g>
<g>
	<path class="st1" d="M88.60765,177.91731c0-0.54999-0.45-1-1-1H74.34583c-0.55,0-1,0.45001-1,1v1.48741c0,0.55,0.45,1,1,1h13.26182
		c0.55,0,1-0.45,1-1V177.91731z"/>
	<path class="st2" d="M88.60765,177.91731c0-0.54999-0.45-1-1-1H74.34583c-0.55,0-1,0.45001-1,1v1.48741c0,0.55,0.45,1,1,1h13.26182
		c0.55,0,1-0.45,1-1V177.91731z"/>
</g>
<g>
	<path class="st1" d="M87.59045,181.39281c0-0.54999-0.45-1-1-1H73.32864c-0.55,0-1,0.45001-1,1v1.48741c0,0.54999,0.45,1,1,1
		h13.26181c0.55,0,1-0.45001,1-1V181.39281z"/>
	<path class="st2" d="M87.59045,181.39281c0-0.54999-0.45-1-1-1H73.32864c-0.55,0-1,0.45001-1,1v1.48741c0,0.54999,0.45,1,1,1
		h13.26181c0.55,0,1-0.45001,1-1V181.39281z"/>
</g>
<g>
	<path class="st1" d="M90.35143,185.11397c0-0.55-0.45-1-1-1H76.08961c-0.55,0-1,0.45-1,1v1.4874c0,0.55,0.45,1,1,1h13.26182
		c0.55,0,1-0.45,1-1V185.11397z"/>
	<path class="st2" d="M90.35143,185.11397c0-0.55-0.45-1-1-1H76.08961c-0.55,0-1,0.45-1,1v1.4874c0,0.55,0.45,1,1,1h13.26182
		c0.55,0,1-0.45,1-1V185.11397z"/>
</g>
<g>
	<path class="st1" d="M88.97094,188.49147c0-0.54999-0.45-1-1-1H74.70912c-0.55,0-1,0.45001-1,1v1.48741c0,0.54999,0.45,1,1,1
		h13.26182c0.55,0,1-0.45001,1-1V188.49147z"/>
	<path class="st2" d="M88.97094,188.49147c0-0.54999-0.45-1-1-1H74.70912c-0.55,0-1,0.45001-1,1v1.48741c0,0.54999,0.45,1,1,1
		h13.26182c0.55,0,1-0.45001,1-1V188.49147z"/>
</g>
<path class="st3" d="M147.15289,185.91481c-12.04988,4.99535-17.81299-4.10292-17.81299-4.10292
	c-12.05192-2.08255-4.98299-13.72627-3.79243-15.55086c-2.0744,0.62996-3.97108,1.56784-5.60419,2.75848
	c-2.68281,2.12817-4.31929,4.71423-5.24506,6.60535c-0.33118,0.84354-0.57649,1.72023-0.72495,2.62285
	c-0.09214-0.00484-0.92561-0.01624-1.01878-0.01624c-3.30099,0-4.75034,2.83405-4.75034,6.68988l-0.20012,6.11079
	c15.56987-0.10886,29.72749-0.05823,45.5826,0.23463C147.63556,189.63795,147.15289,185.91481,147.15289,185.91481z"/>
<path class="st1" d="M314.03604,72.17483c0,0-12.87201,15.7156-13.1644,40.71671c0,0-0.14029,3.80134,6.58218,2.63169
	l0.23166,1.87833l-9.02032,2.13273c0,0-2.22046-11.45463,3.07776-28.4164c4.37387-14.00254,10.01218-18.56045,10.64551-18.71798
	C313.02176,72.24239,314.03604,72.17483,314.03604,72.17483z"/>
<g>
	<path class="st4" d="M298.66501,119.53699c-1.17209-8.90376-1.08746-26.07803,11.30142-45.26585
		c1.37845-2.1334,4.22589-2.74771,6.36002-1.36956s2.74738,4.22552,1.36957,6.36002
		c-6.37299,9.87062-9.82071,20.22621-10.24744,30.77975c-0.1153,2.85842,0.0192,5.34638,0.23862,7.3603"/>
	<g>
		<path class="st1" d="M275.79022,164.20821c0,0-4.71527,5.20682-1.1965,10.66412
			c3.5188,5.45731,14.26477,13.15544,11.46884,24.15544l0,0h-3.93402c-0.10733-1-0.35986-2.78755-0.88745-5.56076
			c-1.46106-7.68019-8.78625-12.0618-12.09689-15.19633c-3.31061-3.13454-1.6127-11.92287,1.24329-12.88567
			C273.24344,164.42221,274.03525,164.08908,275.79022,164.20821z"/>
		<path class="st1" d="M287.04645,169.81776c0,0-9.64288-2.66991-14.51834-1.57562l1.30112-3.93152
			c0,0,4.74765-0.627,8.30527,1.06245C282.13449,165.37308,285.21738,169.0864,287.04645,169.81776z"/>
		<path class="st1" d="M284.90536,188.52913c0,0,3.78641,9.49193,16.83939,11.36992c13.05298,1.87801,0,0,0,0l-18.54788-1.3586
			l0.57343-3.69928L284.90536,188.52913z"/>
	</g>
	<path class="st1" d="M322.90195,155.38167c0,0,3.02148,17.98097-4.6524,22.11028c0,0,12.74088,8.631,18.9603,25.09761l0,0
		c0,0,25.28683,1.26685,27.20789,1.15515c-6.7319-4.05388-18.82138-12.02728-25.34384-20.52751
		C329.71301,171.01782,322.90195,155.38167,322.90195,155.38167z"/>
</g>
<path class="st4" d="M290.49765,178.23143l10.10315,11.95805c0,0,16.46487-7.80331,16.05737,11.23257"/>
<path class="st5" d="M322.79749,155.23659c0,0,2.48865,14.7952-2.89203,20.74225
	c-7.80402,8.62549-27.87796,4.06329-27.87796,4.06329"/>
<path class="st6" d="M287.04645,169.81776c-11.29529-6.36642-9.95798-25.84119-9.95798-25.84119
	c0-14.95575,16.97623-27.07979,37.91742-27.07979c35.08881,0,42.70483,30.12256,60.25519,47.27209
	c11.98657,11.71284,21.15118,12.1689,32.75388,21.17934"/>
<path class="st5" d="M324.19919,84.53294c0,0-5.7673,6.229-5.1152,13.16989"/>
<path class="st5" d="M327.45544,89.88789c0,0-4.79507,7.00497-3.13559,13.77604"/>
<path class="st5" d="M293.4292,74.67281c0,0-4.5549,7.75277-2.83182,13.04401"/>
<path class="st4" d="M312.97534,200.35574c0.09219-1.56233-0.14697-4.11975-2.13852-6.44325"/>
<path class="st4" d="M307.53766,200.35597c0.05908-1.26587-0.09634-3.18523-1.18332-5.10457"/>
<path class="st4" d="M267.12567,152.32639c0,0-15.63112-37.50925-57.56361-45.11725"/>
<path class="st4" d="M201.6008,129.48088c-3.33342-0.1066-6.81331-0.02251-10.4395,0.28688"/>
<path class="st4" d="M258.2179,156.21884c0,0-16.9335-22.80023-50.56903-26.32629"/>
<path class="st4" d="M247.24823,161.25426c0,0-12.20821-14.94351-36.44766-12.64342"/>
<path class="st6" d="M282.55328,144.67563c0,0-0.70285,6.97731,1.40567,10.56096"/>
<path class="st6" d="M288.06177,149.37016c0,0-0.22427,5.21558,1.70853,6.86642"/>
<path class="st6" d="M363.86011,160.38095c0,0,7.11621,9.83972,15.37454,13.96889"/>
<path class="st5" d="M282.03668,198.54277c-1.36176-18.56883-14.87463-15.85098-14.87463-25.79613
	c0-12.93823,14.97244-7.39568,14.97244-7.39568"/>
<path class="st5" d="M337.22141,202.24625c-1.35681-3.49835-3.40781-7.71352-5.97482-11.25606
	c-6.46545-8.92247-13.04929-13.57158-13.04929-13.57158v0.00078c-8.49265,6.64319-26.24158,2.62274-26.24158,2.62274
	l0.03775,0.00223l8.58939,10.14513c0,0,16.20947-7.67809,16.07294,10.77768"/>
<path class="st5" d="M282.05807,165.24637c-5.8652-8.22731-4.9696-21.26979-4.9696-21.26979
	c0-14.95575,16.97623-27.07979,37.91742-27.07979c35.08881,0,42.70483,30.12256,60.25519,47.27209
	c11.9855,11.71181,21.14954,12.16881,32.75076,21.17693"/>
<path class="st5" d="M426.53543,199.25099c0,0,5.85922-2.8735,9.01263-0.57529c0.80026,0.58324,1.54645,7.83607,1.54645,7.83607"/>
<path class="st5" d="M386.50363,208.83139c1.44888-3.46771,4.72849-10.74724,7.72131-13.33804
	c3.98639-3.45091,15.70908-10.10451,18.52658-8.09778c13.52197,9.63077,18.65472,20.00575,18.65472,20.00575"/>
<path class="st7" d="M413.44125,187.02576c0.23181,0.38582-1.47321,0.88008-1.93945,1.00047
	c-0.22739,0.05943-17.60388,4.75708-23.28293,19.49413c-0.43332,1.12379-1.50528,1.81354-2.64221,1.81354
	c-0.33865,0-0.68283-0.06081-1.01733-0.19005c-1.45898-0.5619-2.18536-2.20058-1.62347-3.65956
	c5.46432-14.1796,19.3262-20.29437,24.85376-22.22354C407.78961,183.26074,410.74173,182.53314,413.44125,187.02576z"/>
<path class="st4" d="M493.845,206.51155l2.06592-14.49399c0.32446-2.27625,2.43274-3.85847,4.70895-3.53403l7.24704,1.03296"/>
<path class="st4" d="M511.37039,190.01587l7.56924,1.07889c2.27625,0.32445,3.85852,2.43272,3.53406,4.70897l-1.19434,8.37927"/>
<g>
	<path class="st8" d="M189.24796,105.92605l0.31253,2.7947c0.09807,0.87696,2.93956,1.27903,6.33917,0.89886
		c3.39958-0.38017,6.08208-1.39997,5.98401-2.27692l-0.31253-2.79471L189.24796,105.92605z"/>
	
		<ellipse transform="matrix(0.99381 -0.11113 0.11113 0.99381 -10.48742 22.37193)" class="st8" cx="195.43704" cy="105.26023" rx="6.19388" ry="1.85124"/>
</g>
<g>
	<path class="st8" d="M176.43921,133.54477l2.02159,2.05067c0.63437,0.64349,3.2796-0.93558,5.90251-3.52129
		c2.62289-2.58569,4.23959-5.2081,3.60522-5.85159l-2.02159-2.05068L176.43921,133.54477z"/>
	
		<ellipse transform="matrix(0.71214 -0.70204 0.70204 0.71214 -38.29448 164.32434)" class="st8" cx="181.23083" cy="128.85869" rx="6.66889" ry="1.89567"/>
</g>
<g>
	<path class="st8" d="M199.20503,144.10054l-1.97377,2.1653c-0.61935,0.67946,1.04195,3.20232,3.70477,5.62961
		c2.66281,2.42728,5.32832,3.8485,5.94768,3.16904l1.97377-2.16531L199.20503,144.10054z"/>
	
		<ellipse transform="matrix(0.67367 -0.73904 0.73904 0.67367 -43.19189 199.26022)" class="st8" cx="204.03218" cy="148.53754" rx="1.92878" ry="6.52398"/>
</g>
<g>
	<g>
		<g>
			<path class="st1" d="M478.74979,167.84486c0-0.55-0.44998-1-1-1h-13.6763c-0.54999,0-1,0.45-1,1v1.3353c0,0.55,0.45001,1,1,1
				h13.6763c0.55002,0,1-0.45,1-1V167.84486z"/>
			<path class="st2" d="M478.74979,167.84486c0-0.55-0.44998-1-1-1h-13.6763c-0.54999,0-1,0.45-1,1v1.3353c0,0.55,0.45001,1,1,1
				h13.6763c0.55002,0,1-0.45,1-1V167.84486z"/>
		</g>
		<g>
			<path class="st1" d="M480.46631,171.18016c0-0.55-0.45001-1-1-1h-13.67633c-0.54999,0-1,0.45-1,1v1.3353c0,0.55,0.45001,1,1,1
				h13.67633c0.54999,0,1-0.45,1-1V171.18016z"/>
			<path class="st2" d="M480.46631,171.18016c0-0.55-0.45001-1-1-1h-13.67633c-0.54999,0-1,0.45-1,1v1.3353c0,0.55,0.45001,1,1,1
				h13.67633c0.54999,0,1-0.45,1-1V171.18016z"/>
		</g>
		<g>
			<path class="st1" d="M479.79462,174.51546c0-0.55-0.45001-1-1-1h-13.6763c-0.54999,0-1,0.45-1,1v1.3353c0,0.55,0.45001,1,1,1
				h13.6763c0.54999,0,1-0.45,1-1V174.51546z"/>
			<path class="st2" d="M479.79462,174.51546c0-0.55-0.45001-1-1-1h-13.6763c-0.54999,0-1,0.45-1,1v1.3353c0,0.55,0.45001,1,1,1
				h13.6763c0.54999,0,1-0.45,1-1V174.51546z"/>
		</g>
		<g>
			<path class="st1" d="M478.74979,177.83936c0-0.54999-0.44998-1-1-1h-13.6763c-0.54999,0-1,0.45001-1,1v1.3353
				c0,0.55,0.45001,1,1,1h13.6763c0.55002,0,1-0.45,1-1V177.83936z"/>
			<path class="st2" d="M478.74979,177.83936c0-0.54999-0.44998-1-1-1h-13.6763c-0.54999,0-1,0.45001-1,1v1.3353
				c0,0.55,0.45001,1,1,1h13.6763c0.55002,0,1-0.45,1-1V177.83936z"/>
		</g>
		<g>
			<path class="st1" d="M481.58575,181.39821c0-0.55-0.45001-1-1-1h-13.6763c-0.55002,0-1,0.45-1,1v1.3353c0,0.55,0.44998,1,1,1
				h13.6763c0.54999,0,1-0.45,1-1V181.39821z"/>
			<path class="st2" d="M481.58575,181.39821c0-0.55-0.45001-1-1-1h-13.6763c-0.55002,0-1,0.45-1,1v1.3353c0,0.55,0.44998,1,1,1
				h13.6763c0.54999,0,1-0.45,1-1V181.39821z"/>
		</g>
		<g>
			<path class="st1" d="M477.33182,150.95622c0-0.55-0.45001-1-1-1h-13.6763c-0.55002,0-1,0.45-1,1v1.3353c0,0.54999,0.44998,1,1,1
				h13.6763c0.54999,0,1-0.45001,1-1V150.95622z"/>
			<path class="st2" d="M477.33182,150.95622c0-0.55-0.45001-1-1-1h-13.6763c-0.55002,0-1,0.45-1,1v1.3353c0,0.54999,0.44998,1,1,1
				h13.6763c0.54999,0,1-0.45001,1-1V150.95622z"/>
		</g>
		<g>
			<path class="st1" d="M479.04831,154.29152c0-0.55-0.44998-1-1-1h-13.6763c-0.54999,0-1,0.45-1,1v1.3353c0,0.54999,0.45001,1,1,1
				h13.6763c0.55002,0,1-0.45001,1-1V154.29152z"/>
			<path class="st2" d="M479.04831,154.29152c0-0.55-0.44998-1-1-1h-13.6763c-0.54999,0-1,0.45-1,1v1.3353c0,0.54999,0.45001,1,1,1
				h13.6763c0.55002,0,1-0.45001,1-1V154.29152z"/>
		</g>
		<g>
			<path class="st1" d="M478.37665,157.62682c0-0.55-0.45001-1-1-1h-13.6763c-0.55002,0-1,0.45-1,1v1.33528c0,0.55,0.44998,1,1,1
				h13.6763c0.54999,0,1-0.45,1-1V157.62682z"/>
			<path class="st2" d="M478.37665,157.62682c0-0.55-0.45001-1-1-1h-13.6763c-0.55002,0-1,0.45-1,1v1.33528c0,0.55,0.44998,1,1,1
				h13.6763c0.54999,0,1-0.45,1-1V157.62682z"/>
		</g>
		<g>
			<path class="st1" d="M477.33182,160.95071c0-0.55-0.45001-1-1-1h-13.6763c-0.55002,0-1,0.45-1,1v1.3353c0,0.55,0.44998,1,1,1
				h13.6763c0.54999,0,1-0.45,1-1V160.95071z"/>
			<path class="st2" d="M477.33182,160.95071c0-0.55-0.45001-1-1-1h-13.6763c-0.55002,0-1,0.45-1,1v1.3353c0,0.55,0.44998,1,1,1
				h13.6763c0.54999,0,1-0.45,1-1V160.95071z"/>
		</g>
		<g>
			<path class="st1" d="M480.16779,164.50957c0-0.55-0.45001-1-1-1h-13.67633c-0.54999,0-1,0.45-1,1v1.3353c0,0.55,0.45001,1,1,1
				h13.67633c0.54999,0,1-0.45,1-1V164.50957z"/>
			<path class="st2" d="M480.16779,164.50957c0-0.55-0.45001-1-1-1h-13.67633c-0.54999,0-1,0.45-1,1v1.3353c0,0.55,0.45001,1,1,1
				h13.67633c0.54999,0,1-0.45,1-1V164.50957z"/>
		</g>
		<g>
			<path class="st1" d="M480.16779,184.6284c0-0.54999-0.45001-1-1-1h-13.67633c-0.54999,0-1,0.45001-1,1v1.3353
				c0,0.55,0.45001,1,1,1h13.67633c0.54999,0,1-0.45,1-1V184.6284z"/>
			<path class="st2" d="M480.16779,184.6284c0-0.54999-0.45001-1-1-1h-13.67633c-0.54999,0-1,0.45001-1,1v1.3353
				c0,0.55,0.45001,1,1,1h13.67633c0.54999,0,1-0.45,1-1V184.6284z"/>
		</g>
		<g>
			<path class="st1" d="M479.04831,187.77689c0-0.55-0.44998-1-1-1h-13.6763c-0.54999,0-1,0.45-1,1v1.3353c0,0.55,0.45001,1,1,1
				h13.6763c0.55002,0,1-0.45,1-1V187.77689z"/>
			<path class="st2" d="M479.04831,187.77689c0-0.55-0.44998-1-1-1h-13.6763c-0.54999,0-1,0.45-1,1v1.3353c0,0.55,0.45001,1,1,1
				h13.6763c0.55002,0,1-0.45,1-1V187.77689z"/>
		</g>
		<g>
			<path class="st1" d="M480.7648,191.11218c0-0.55-0.44998-1-1-1h-13.6763c-0.54999,0-1,0.45-1,1v1.3353c0,0.55,0.45001,1,1,1
				h13.6763c0.55002,0,1-0.45,1-1V191.11218z"/>
			<path class="st2" d="M480.7648,191.11218c0-0.55-0.44998-1-1-1h-13.6763c-0.54999,0-1,0.45-1,1v1.3353c0,0.55,0.45001,1,1,1
				h13.6763c0.55002,0,1-0.45,1-1V191.11218z"/>
		</g>
		<g>
			<path class="st1" d="M480.09314,194.44748c0-0.55-0.45001-1-1-1h-13.6763c-0.54999,0-1,0.45-1,1v1.3353c0,0.55,0.45001,1,1,1
				h13.6763c0.54999,0,1-0.45,1-1V194.44748z"/>
			<path class="st2" d="M480.09314,194.44748c0-0.55-0.45001-1-1-1h-13.6763c-0.54999,0-1,0.45-1,1v1.3353c0,0.55,0.45001,1,1,1
				h13.6763c0.54999,0,1-0.45,1-1V194.44748z"/>
		</g>
		<g>
			<path class="st1" d="M479.04831,197.77138c0-0.54999-0.44998-1-1-1h-13.6763c-0.54999,0-1,0.45001-1,1v1.3353
				c0,0.55,0.45001,1,1,1h13.6763c0.55002,0,1-0.45,1-1V197.77138z"/>
			<path class="st2" d="M479.04831,197.77138c0-0.54999-0.44998-1-1-1h-13.6763c-0.54999,0-1,0.45001-1,1v1.3353
				c0,0.55,0.45001,1,1,1h13.6763c0.55002,0,1-0.45,1-1V197.77138z"/>
		</g>
		<g>
			<path class="st1" d="M481.88428,201.33023c0-0.54999-0.45001-1-1-1h-13.6763c-0.55002,0-1,0.45001-1,1v1.3353
				c0,0.55,0.44998,1,1,1h13.6763c0.54999,0,1-0.45,1-1V201.33023z"/>
			<path class="st2" d="M481.88428,201.33023c0-0.54999-0.45001-1-1-1h-13.6763c-0.55002,0-1,0.45001-1,1v1.3353
				c0,0.55,0.44998,1,1,1h13.6763c0.54999,0,1-0.45,1-1V201.33023z"/>
		</g>
		<g>
			<path class="st1" d="M480.46631,204.56044c0-0.55-0.45001-1-1-1h-13.67633c-0.54999,0-1,0.45-1,1v1.33528c0,0.55,0.45001,1,1,1
				h13.67633c0.54999,0,1-0.45,1-1V204.56044z"/>
			<path class="st2" d="M480.46631,204.56044c0-0.55-0.45001-1-1-1h-13.67633c-0.54999,0-1,0.45-1,1v1.33528c0,0.55,0.45001,1,1,1
				h13.67633c0.54999,0,1-0.45,1-1V204.56044z"/>
		</g>
	</g>
</g>
<path class="st4" d="M508.62723,198.07355c-0.06552-0.00269-0.13235-0.00854-0.19916-0.01816
	c-0.96729-0.1385-1.64981-0.96036-1.52435-1.83569l20.87735-145.4917c0.12549-0.87471,1.01062-1.47432,1.97858-1.33391
	c0.96729,0.13882,1.64984,0.96066,1.52435,1.836l-20.87735,145.49107C510.28992,197.53607,509.51431,198.10976,508.62723,198.07355z
	"/>
<path class="st9" d="M600.47632,200.91075c0.11548-0.31439,0.09924-0.49638-1.9903-0.59012
	c2.758,0.27042-7.74396-0.23938-3.64941,0.05032c-0.26251-0.45454-6.53406,0.22539-4.7724,0.10484
	c-4.95154-0.19376-3.83533,0.34879-5.93121,0.17728c1.80664,0.04517-4.54755,0.16136-7.12592,0.26764
	c-18.04889,0.74385-46.14734,2.3721-86.34561,5.9097c-12.59097,1.10806-32.46484,1.09737-56.20612,0.38803
	c-2.22995-0.06662-4.6279,0.19585-7.12411,0.62015c-2.49619,0.42429-4.94824-4.76578-7.71356,1.59103
	c-3.16504-4.19969-4.9754,8.01407-7.88431,1.55823c-3.46805-3.11113-5.05649-0.83743-7.63638,0.52173
	c-2.91425,2.35124-5.30252,1.59793-7.63083-0.75922c-2.36267-0.98732-4.66684,3.49443-7.52319-1.38422
	c-2.50085-0.5322-5.00034-1.11848-7.51511-1.70882c-7.54422-1.77097-15.22568-3.5782-23.49225-4.06987
	c-10.15109-0.60376-20.37686-1.24596-30.51501-1.90663c-42.18314-2.74893-82.84962-5.81772-110.30836-7.76834
	C120.16856,187.02576,0.5146,194.4238,0.5146,194.4238"/>
<g>
	<path class="st8" d="M147.74338,175.79536l0.31871,2.85008c0.10002,0.89433,3.03922,1.29974,6.55714,0.90634
		c3.51791-0.3934,6.29495-1.43805,6.19495-2.33238l-0.31871-2.85008L147.74338,175.79536z"/>
	
		<ellipse transform="matrix(0.99381 -0.11113 0.11113 0.99381 -18.50549 18.21593)" class="st8" cx="154.14783" cy="175.10599" rx="6.40946" ry="1.88793"/>
</g>
<g>
	<path class="st8" d="M170.32776,183.81491l0.36774,2.75665c0.1154,0.86501,3.01605,1.19179,6.47119,0.73087
		c3.45511-0.46092,6.16867-1.53667,6.05327-2.40167l-0.36775-2.75665L170.32776,183.81491z"/>
	
		<ellipse transform="matrix(0.99122 -0.13223 0.13223 0.99122 -22.64776 24.96156)" class="st8" cx="176.61839" cy="183.0018" rx="6.31147" ry="1.8308"/>
</g>
<g>
	<path class="st8" d="M156.92784,153.32275l-1.73891,1.90767c-0.54567,0.5986,0.96423,2.86345,3.36717,5.05383
		c2.40292,2.19038,4.79753,3.48466,5.34319,2.88605l1.73892-1.90765L156.92784,153.32275z"/>
	
		<ellipse transform="matrix(0.67367 -0.73904 0.73904 0.67367 -63.63722 170.53601)" class="st8" cx="161.28426" cy="157.32628" rx="1.69927" ry="5.88724"/>
</g>
<path class="st9" d="M216,193.90416v-5.85271c0-5.42349-4.61821-9.62427-11.02979-9.62427
	c-3.50954,0-6.06886,1.60059-8.1976,3.60059h-0.49583c-0.65836-5-4.71082-9.4823-9.62535-9.4823
	c-1.7007,0-3.29805,0.38826-4.68909,1.23801c-0.89238-1.89093-3.03809-3.25168-5.26778-3.25168
	c-0.50867,0-1.69456,0.02515-1.69456,0.15266v-3.8567c0-10.19388-9.27849-18.4576-21.00439-18.4576
	c-11.17975,0-20.22095,7.51349-21.05019,17.04785c-0.47472-0.03178-0.89633-0.05269-1.38081-0.05269
	c-9.00099,0-16.40932,5.60527-17.60619,12.88239c-0.09214-0.00484-0.03554-0.01624-0.12872-0.01624
	c-3.30099,0-5.8297,3.12582-5.8297,6.98166v5.81902C142,190.77936,181,191.37823,216,193.90416z"/>
<g>
	<path class="st8" d="M120.44954,181.39101l1.93845,1.96634c0.60827,0.61702,3.07356-0.82697,5.50101-3.21999
		c2.42744-2.39302,3.90649-4.83743,3.29822-5.45445l-1.93845-1.96634L120.44954,181.39101z"/>
	
		<ellipse transform="matrix(0.71214 -0.70204 0.70204 0.71214 -88.34979 138.64098)" class="st8" cx="124.88474" cy="177.05475" rx="6.17194" ry="1.8177"/>
</g>
<path class="st9" d="M26.0179,205.53941c0,0,83.75324-7.76225,173.52797-1.78773
	c90.6622,6.03358,137.67554,13.26505,137.67554,13.26505"/>
<path class="st9" d="M312.9917,224.52094c24.02509,2.64496,36.26099,4.52705,36.26099,4.52705"/>
<path class="st9" d="M114.58629,213.77194c28.42825-0.55577,62.25891-0.30042,96.99084,2.011
	c40.30765,2.68248,71.98759,5.60173,94.74416,8.01701"/>
<path class="st9" d="M38.04916,217.57068c0,0,26.29772-2.43727,65.21672-3.52919"/>
<path class="st9" d="M581.58112,208.83139c-30.65643,1.03217-74.39035,14.65726-104.98001,14.65726
	s-52.38983-3.06564-52.38983-3.06564"/>
<path class="st9" d="M504.33047,232.69089c2.41571-0.36603,4.77396-0.81754,7.03992-1.36781
	c25.24796-6.13129,46.70743-5.79066,46.70743-5.79066"/>
<path class="st9" d="M449.41772,231.32307c0,0,22.51758,3.76143,44.4108,2.44588"/>
<path class="st9" d="M267.12524,235.0802c39.18988,3.68993,88.6145,9.11642,123.70456,15.65865
	c60.29105,11.24071,121.94461-1.70314,121.94461-1.70314"/>
<path class="st9" d="M204.07674,229.78856c0,0,22.82117,1.6089,54.12224,4.46434"/>
<path class="st9" d="M408.95462,284.73505c28.42032,1.03647,49.76157-0.98505,63.77579-4.29294"/>
<path class="st9" d="M137.73689,258.98181c36.18205-1.99832,99.19283-2.73599,157.63457,10.11862
	c40.255,8.85431,74.56653,13.40936,102.73264,15.10751"/>
<path class="st9" d="M107.47038,261.38806c0,0,8.163-0.97049,21.89916-1.89435"/>
<ellipse class="st10" cx="97.46181" cy="262.64044" rx="3.00266" ry="2.19954"/>
<ellipse class="st10" cx="183.69688" cy="222.26038" rx="3.00266" ry="2.19954"/>
<ellipse class="st9" cx="321.61588" cy="288.42514" rx="3.00266" ry="2.19954"/>
<ellipse class="st9" cx="421.20862" cy="234.2529" rx="3.00266" ry="2.19954"/>
</svg>
