<?xml version="1.0" encoding="utf-8"?>
<!-- Generator: Adobe Illustrator 16.0.0, SVG Export Plug-In . SVG Version: 6.00 Build 0)  -->
<!DOCTYPE svg PUBLIC "-//W3C//DTD SVG 1.1//EN" "http://www.w3.org/Graphics/SVG/1.1/DTD/svg11.dtd">
<svg version="1.1" id="Layer_1" xmlns="http://www.w3.org/2000/svg" xmlns:xlink="http://www.w3.org/1999/xlink" x="0px" y="0px"
	 width="200.878px" height="185.083px" viewBox="113.651 148.517 200.878 185.083"
	 enable-background="new 113.651 148.517 200.878 185.083" xml:space="preserve">
<g>
	
		<path fill="none" stroke="#E01212" stroke-width="1.7573" stroke-linecap="round" stroke-linejoin="round" stroke-miterlimit="10" d="
		M193.801,289.494c0,0,10.571,7.375,21.799,7.375c14.564,0.235,29.223-6.342,29.223-6.342"/>
	
		<path fill="none" stroke="#18D1EF" stroke-width="1.7573" stroke-linecap="round" stroke-linejoin="round" stroke-miterlimit="10" d="
		M197.794,285.501c0,0,6.671,5.355,18.792,5.591c18.699,0.375,30.068-7.235,30.068-7.235"/>
	<g>
		
			<path fill="#27CCF2" stroke="#000000" stroke-width="1.318" stroke-linecap="round" stroke-linejoin="round" stroke-miterlimit="10" d="
			M126.335,245.66c-0.375,0.939-1.081,1.551-1.644,1.316l-4.558-1.787c-0.516-0.187-0.657-1.126-0.329-2.066l0,0
			c0.376-0.938,1.081-1.55,1.645-1.315l4.558,1.786C126.571,243.781,126.711,244.72,126.335,245.66L126.335,245.66z"/>
		
			<path fill="none" stroke="#000000" stroke-width="1.318" stroke-linecap="round" stroke-linejoin="round" stroke-miterlimit="10" d="
			M126.335,245.708c0,0,3.994,1.831,7.658,0.47c3.665-1.363,5.122-2.444,6.061-2.256"/>
	</g>
	<path fill="#FFDF22" d="M140.429,229.593l1.362-2.678c0,0,2.583-0.987,2.913-0.939c0.375,0.094,7.705,0.188,9.256,0.563
		c1.55,0.376,11.463,16.49,11.463,16.49l-0.751,1.551l-2.771,3.102l-5.309-0.094L140.429,229.593z"/>
	<g>
		<path stroke="#000000" stroke-width="1.318" stroke-miterlimit="10" d="M123.516,229.358h4.417l-3.947,3.946
			C123.656,232.035,123.516,230.72,123.516,229.358z"/>
		
			<path fill="#E28437" stroke="#000000" stroke-width="1.7573" stroke-linecap="round" stroke-linejoin="round" stroke-miterlimit="10" d="
			M141.698,249.09l-0.376-0.282c-8.222-1.127-15.41-7.188-17.148-15.269l3.712-3.57h34.531l0,0h-0.235v19.402h-20.625
			L141.698,249.09z"/>
		
			<path fill="none" stroke="#000000" stroke-width="1.318" stroke-linecap="round" stroke-linejoin="round" stroke-miterlimit="10" d="
			M146.02,233.539c0,0,3.712-1.315,5.826,1.598"/>
	</g>
	<polygon fill="#FFDF22" points="142.449,226.398 144.752,223.391 150.625,220.573 154.618,219.914 159.88,221.089 165.658,225.694 
		168.666,231.66 168.76,236.406 167.491,241.057 165.8,243.875 164.343,244.955 163.873,241.009 162.135,237.626 160.021,235.043 
		156.874,231.848 152.175,228.606 148.417,226.962 145.598,226.304 	"/>
	
		<path fill="none" stroke="#000000" stroke-width="1.318" stroke-linecap="round" stroke-linejoin="round" stroke-miterlimit="10" d="
		M140.665,229.874c0-0.893,0.234-1.69,0.751-2.302c2.302-2.771,9.209-0.846,15.411,4.275c6.201,5.169,9.678,12.497,5.966,15.27"/>
	
		<path fill="none" stroke="#000000" stroke-width="1.318" stroke-linecap="round" stroke-linejoin="round" stroke-miterlimit="10" d="
		M164.202,245.566c2.914-2.677,4.746-6.529,4.746-10.806c0-8.127-6.578-14.705-14.706-14.705c-5.402,0-10.148,2.914-12.685,7.282"/>
	
		<path fill="#E28437" stroke="#000000" stroke-width="1.7573" stroke-linecap="round" stroke-linejoin="round" stroke-miterlimit="10" d="
		M174.209,267.789l-11.98-18.418h-21.001v53.701h7.752h4.51h9.021h0.705h11.369c5.027,0,9.584-2.161,12.779-5.545l0.094-0.14
		c0.986-1.081,1.833-2.209,2.538-3.523L174.209,267.789z"/>
	
		<path fill="#E28437" stroke="#000000" stroke-width="1.7573" stroke-linecap="round" stroke-linejoin="round" stroke-miterlimit="10" d="
		M200.143,285.078c0.375-0.141,0.799-0.235,1.269-0.188c0.423,0,0.893,0.188,1.362,0.423c-0.188-0.47-0.563-0.939-1.081-1.269
		c-0.47-0.329-1.127-0.517-1.691-0.564c-1.222-0.094-2.396,0.235-3.383,0.705c-0.517,0.235-0.986,0.518-1.457,0.799
		c-0.47,0.282-0.893,0.61-1.362,0.987l-0.094,0.046l0,0c0.047-0.046,0,0.048,0.047,0l0,0h-0.047l-0.046,0.048l-0.094,0.141
		l-0.281,0.281l-0.563,0.47l-1.081,1.035c-0.329,0.282-2.49,2.114-2.772,2.442l0.329,3.806c0.046-0.047,0.046-0.047,0.046-0.047
		c1.597-1.175,3.148-2.489,4.604-3.806l1.081-1.033l0.516-0.564l0.282-0.281l0.141-0.142l0.047-0.047l0.047-0.047
		c0,0,0,0,0.047-0.047c0.563-0.611,1.268-1.27,1.973-1.832C198.593,285.828,199.344,285.36,200.143,285.078z"/>
	<polyline fill="none" stroke="#000000" stroke-width="1.318" stroke-linecap="round" stroke-miterlimit="10" points="
		145.927,269.104 145.927,302.978 141.322,302.978 141.322,269.104 	"/>
	<polyline fill="none" stroke="#000000" stroke-width="1.318" stroke-linecap="round" stroke-miterlimit="10" points="
		152.363,269.104 152.363,302.978 147.806,302.978 147.806,269.104 	"/>
	
		<path fill="#E28437" stroke="#000000" stroke-width="1.7573" stroke-linecap="round" stroke-linejoin="round" stroke-miterlimit="10" d="
		M190.042,293.864l-15.833-26.216c-9.584,0.235-17.194,8.033-17.194,17.617c0,5.216,2.255,9.867,5.825,13.108h-0.658h-2.49
		c-1.174,0-2.161,0.986-2.161,2.161v0.188v0.047v2.16h2.161h14.047h2.161v-0.046C182.009,302.461,187.223,298.938,190.042,293.864z"
		/>
	
		<line fill="none" stroke="#000000" stroke-width="0.8786" stroke-linecap="round" stroke-linejoin="round" stroke-miterlimit="10" x1="149.309" y1="302.179" x2="149.309" y2="300.394"/>
	
		<line fill="none" stroke="#000000" stroke-width="0.8786" stroke-linecap="round" stroke-linejoin="round" stroke-miterlimit="10" x1="150.813" y1="302.179" x2="150.813" y2="300.394"/>
	
		<line fill="none" stroke="#000000" stroke-width="0.8786" stroke-linecap="round" stroke-linejoin="round" stroke-miterlimit="10" x1="159.598" y1="302.555" x2="159.598" y2="300.771"/>
	
		<line fill="none" stroke="#000000" stroke-width="0.8786" stroke-linecap="round" stroke-linejoin="round" stroke-miterlimit="10" x1="161.101" y1="302.555" x2="161.101" y2="300.771"/>
	
		<line fill="none" stroke="#000000" stroke-width="0.8786" stroke-linecap="round" stroke-linejoin="round" stroke-miterlimit="10" x1="142.873" y1="302.179" x2="142.873" y2="300.394"/>
	
		<line fill="none" stroke="#000000" stroke-width="0.8786" stroke-linecap="round" stroke-linejoin="round" stroke-miterlimit="10" x1="144.376" y1="302.179" x2="144.376" y2="300.394"/>
	
		<line fill="none" stroke="#EA0A0A" stroke-width="3.2046" stroke-miterlimit="10" x1="140.242" y1="249.748" x2="164.297" y2="249.748"/>
	
		<path fill="none" stroke="#E01212" stroke-width="1.7573" stroke-linecap="round" stroke-linejoin="round" stroke-miterlimit="10" d="
		M145.457,219.821c0,0,5.121-14.376,25.699-11.369c21.188,4.698,23.49,16.679,33.639,36.316
		c12.215,23.679,37.914,20.014,37.914,20.014"/>
	
		<path fill="none" stroke="#18D1EF" stroke-width="1.7573" stroke-linecap="round" stroke-linejoin="round" stroke-miterlimit="10" d="
		M155.416,218.881c0,0-0.47-12.638,8.128-17.336c8.503-4.604,26.168-5.216,31.712,21.847c5.544,27.062,18.605,54.969,47.124,51.915"
		/>
	
		<path fill="none" stroke="#7BE019" stroke-width="1.7573" stroke-linecap="round" stroke-linejoin="round" stroke-miterlimit="10" d="
		M166.034,223.391c0,0,1.88-15.503,14.518-18.229c0,0,14.987-3.759,19.404,15.927c9.819,43.692,38.101,38.571,42.753,38.571"/>
	
		<path fill="none" stroke="#E01212" stroke-width="1.7573" stroke-linecap="round" stroke-linejoin="round" stroke-miterlimit="10" d="
		M170.404,233.727c0,0,3.852-11.322,12.779-10.336c6.108,0.705,8.88,3.383,15.081,22.316c13.813,41.954,44.258,34.155,44.258,34.155
		"/>
	
		<path fill="none" stroke="#7BE019" stroke-width="1.7573" stroke-linecap="round" stroke-linejoin="round" stroke-miterlimit="10" d="
		M168.196,243.029c0,0,6.107-9.771,18.322-1.033c12.215,8.739,15.269,12.967,20.719,17.007
		c19.45,14.425,35.565,11.136,35.565,11.136"/>
	<circle fill="#E01212" stroke="#020202" stroke-width="1.318" stroke-miterlimit="10" cx="193.143" cy="290.058" r="1.738"/>
	
		<circle fill="#27CCF2" stroke="#000000" stroke-width="1.318" stroke-linecap="round" stroke-linejoin="round" stroke-miterlimit="10" cx="196.713" cy="284.091" r="1.737"/>
	<polyline fill="#A5A5A5" points="159.504,333.6 159.504,314.535 157.437,314.535 157.437,333.6 	"/>
	
		<path fill="#FFDF22" stroke="#000000" stroke-width="1.7573" stroke-linecap="round" stroke-linejoin="round" stroke-miterlimit="10" d="
		M142.168,313.925h32.793c2.349,0,4.275-1.269,4.275-2.866V306.5c0-1.597-1.879-2.865-4.275-2.865h-32.793
		c-2.349,0-4.275,1.268-4.275,2.865v4.559C137.892,312.656,139.819,313.925,142.168,313.925z"/>
	<circle cx="145.363" cy="220.902" r="1.598"/>
	<circle cx="155.416" cy="218.881" r="1.597"/>
	<circle cx="166.034" cy="223.391" r="1.597"/>
	<circle cx="170.404" cy="233.727" r="1.598"/>
	<circle cx="168.196" cy="243.029" r="1.598"/>
	
		<rect x="247.783" y="149.396" fill="#FFDF22" stroke="#000000" stroke-width="1.7573" stroke-linecap="round" stroke-linejoin="round" stroke-miterlimit="10" width="65.867" height="183.368"/>
	
		<circle fill="none" stroke="#000000" stroke-width="1.318" stroke-linecap="round" stroke-linejoin="round" stroke-miterlimit="10" cx="260.092" cy="254.54" r="3.429"/>
	
		<circle fill="none" stroke="#000000" stroke-width="1.318" stroke-linecap="round" stroke-linejoin="round" stroke-miterlimit="10" cx="280.999" cy="254.54" r="3.429"/>
	
		<circle fill="none" stroke="#000000" stroke-width="1.318" stroke-linecap="round" stroke-linejoin="round" stroke-miterlimit="10" cx="301.858" cy="254.54" r="3.429"/>
	
		<rect x="256.427" y="158.134" fill="none" stroke="#000000" stroke-width="1.318" stroke-linecap="round" stroke-linejoin="round" stroke-miterlimit="10" width="48.813" height="54.687"/>
	
		<rect x="269.16" y="203.942" fill="#E01212" stroke="#000000" stroke-width="1.318" stroke-linecap="round" stroke-linejoin="round" stroke-miterlimit="10" width="3.711" height="2.677"/>
	
		<rect x="276.018" y="203.942" fill="#E01212" stroke="#000000" stroke-width="1.318" stroke-linecap="round" stroke-linejoin="round" stroke-miterlimit="10" width="3.712" height="2.677"/>
	
		<rect x="282.925" y="203.942" fill="#E01212" stroke="#000000" stroke-width="1.318" stroke-linecap="round" stroke-linejoin="round" stroke-miterlimit="10" width="3.712" height="2.677"/>
	
		<rect x="289.361" y="203.942" fill="#E01212" stroke="#000000" stroke-width="1.318" stroke-linecap="round" stroke-linejoin="round" stroke-miterlimit="10" width="3.712" height="2.677"/>
	
		<path fill="none" stroke="#000000" stroke-width="1.318" stroke-linecap="round" stroke-linejoin="round" stroke-miterlimit="10" d="
		M298.241,208.545c-1.786,0-3.242-1.457-3.242-3.241c0-1.786,1.456-3.289,3.242-3.289c1.785,0,3.241,1.457,3.241,3.289
		C301.482,207.088,300.026,208.545,298.241,208.545z"/>
	
		<path fill="none" stroke="#000000" stroke-width="1.318" stroke-linecap="round" stroke-linejoin="round" stroke-miterlimit="10" d="
		M296.409,198.632c-2.726,0-4.981-2.255-4.981-5.027c0-2.772,2.209-5.028,4.981-5.028c2.725,0,4.933,2.255,4.933,5.028
		C301.342,196.424,299.134,198.632,296.409,198.632z"/>
	
		<ellipse fill="none" stroke="#000000" stroke-width="1.318" stroke-linecap="round" stroke-linejoin="round" stroke-miterlimit="10" cx="284.663" cy="165.839" rx="3.477" ry="3.523"/>
	<path fill="#7BE019" stroke="#000000" stroke-width="1.318" stroke-miterlimit="10" d="M275.878,164.147
		c0.893,0,1.645,0.752,1.645,1.644c0,0.939-0.752,1.644-1.645,1.644s-1.645-0.751-1.645-1.644
		C274.233,164.899,274.985,164.147,275.878,164.147z"/>
	<path fill="#E01212" stroke="#000000" stroke-width="1.318" stroke-miterlimit="10" d="M269.535,164.147
		c0.893,0,1.646,0.752,1.646,1.644c0,0.939-0.753,1.644-1.646,1.644s-1.645-0.751-1.645-1.644
		C267.89,164.899,268.642,164.147,269.535,164.147z"/>
	<path fill="#E01212" stroke="#000000" stroke-width="1.318" stroke-miterlimit="10" d="M263.098,164.147
		c0.893,0,1.645,0.752,1.645,1.644c0,0.939-0.752,1.644-1.645,1.644s-1.644-0.751-1.644-1.644
		C261.455,164.899,262.159,164.147,263.098,164.147z"/>
	
		<rect x="291.335" y="164.147" fill="none" stroke="#000000" stroke-width="1.318" stroke-linecap="round" stroke-linejoin="round" stroke-miterlimit="10" width="9.96" height="20.813"/>
	
		<path fill="none" stroke="#000000" stroke-width="1.318" stroke-linecap="round" stroke-linejoin="round" stroke-miterlimit="10" d="
		M263.943,202.014c1.786,0,3.243,1.457,3.243,3.289c0,1.785-1.457,3.241-3.243,3.241c-1.784,0-3.241-1.457-3.241-3.241
		C260.702,203.471,262.159,202.014,263.943,202.014z"/>
	
		<path fill="none" stroke="#000000" stroke-width="1.318" stroke-linecap="round" stroke-linejoin="round" stroke-miterlimit="10" d="
		M284.475,173.543c0.893,0,1.645,0.753,1.645,1.645c0,0.939-0.752,1.644-1.645,1.644s-1.645-0.751-1.645-1.644
		C282.831,174.248,283.535,173.543,284.475,173.543z"/>
	<g>
		<path d="M280.247,190.128c0.282,0,0.517-0.188,0.517-0.516v-0.517h-0.986v0.517C279.73,189.94,279.918,190.128,280.247,190.128z"
			/>
		<path d="M281.703,190.128c0.283,0,0.518-0.188,0.518-0.516v-0.517h-0.986v0.517C281.234,189.94,281.422,190.128,281.703,190.128z"
			/>
		<path d="M278.743,190.128c0.282,0,0.518-0.188,0.518-0.516v-0.517h-0.987v0.517C278.227,189.94,278.462,190.128,278.743,190.128z"
			/>
		<path d="M277.24,190.128c0.282,0,0.518-0.188,0.518-0.516v-0.517h-0.987v0.517C276.77,189.94,276.958,190.128,277.24,190.128z"/>
		<path d="M275.783,190.128c0.283,0,0.518-0.188,0.518-0.516v-0.517h-0.987v0.517C275.267,189.94,275.502,190.128,275.783,190.128z"
			/>
		<path d="M274.28,190.128c0.282,0,0.518-0.188,0.518-0.516v-0.517h-0.987v0.517C273.81,189.94,273.998,190.128,274.28,190.128z"/>
		<path d="M272.824,190.128c0.281,0,0.517-0.188,0.517-0.516v-0.517h-0.987v0.517C272.307,189.94,272.495,190.128,272.824,190.128z"
			/>
		<path d="M271.32,190.128c0.283,0,0.518-0.188,0.518-0.516v-0.517h-0.987v0.517C270.803,189.94,271.039,190.128,271.32,190.128z"/>
		<path d="M269.817,190.128c0.281,0,0.517-0.188,0.517-0.516v-0.517h-0.986v0.517C269.347,189.94,269.535,190.128,269.817,190.128z"
			/>
		<path d="M268.36,190.128c0.282,0,0.517-0.188,0.517-0.516v-0.517h-0.986v0.517C267.844,189.94,268.079,190.128,268.36,190.128z"/>
		<path d="M266.857,190.128c0.282,0,0.518-0.188,0.518-0.516v-0.517h-0.987v0.517C266.387,189.94,266.576,190.128,266.857,190.128z"
			/>
		<path d="M265.4,190.128c0.282,0,0.518-0.188,0.518-0.516v-0.517h-0.986v0.517C264.884,189.94,265.071,190.128,265.4,190.128z"/>
		<path d="M263.897,190.128c0.281,0,0.517-0.188,0.517-0.516v-0.517h-0.986v0.517C263.427,189.94,263.616,190.128,263.897,190.128z"
			/>
		<path d="M262.394,190.128c0.282,0,0.517-0.188,0.517-0.516v-0.517h-0.986v0.517C261.925,189.94,262.112,190.128,262.394,190.128z"
			/>
		<path d="M263.897,182.705c-0.281,0-0.517,0.188-0.517,0.517v0.517h0.986v-0.517C264.414,182.893,264.178,182.705,263.897,182.705z
			"/>
		<path d="M262.394,182.705c-0.282,0-0.517,0.188-0.517,0.517v0.517h0.985v-0.517C262.911,182.893,262.722,182.705,262.394,182.705z
			"/>
		<path d="M265.4,182.705c-0.281,0-0.517,0.188-0.517,0.517v0.517h0.987v-0.517C265.871,182.893,265.682,182.705,265.4,182.705z"/>
		<path d="M266.857,182.705c-0.281,0-0.517,0.188-0.517,0.517v0.517h0.986v-0.517C267.375,182.893,267.186,182.705,266.857,182.705z
			"/>
		<path d="M268.36,182.705c-0.281,0-0.517,0.188-0.517,0.517v0.517h0.987v-0.517C268.831,182.893,268.642,182.705,268.36,182.705z"
			/>
		<path d="M269.817,182.705c-0.282,0-0.518,0.188-0.518,0.517v0.517h0.987v-0.517C270.334,182.893,270.146,182.705,269.817,182.705z
			"/>
		<path d="M271.32,182.705c-0.281,0-0.517,0.188-0.517,0.517v0.517h0.987v-0.517C271.838,182.893,271.602,182.705,271.32,182.705z"
			/>
		<path d="M272.824,182.705c-0.282,0-0.517,0.188-0.517,0.517v0.517h0.986v-0.517C273.294,182.893,273.105,182.705,272.824,182.705z
			"/>
		<path d="M274.28,182.705c-0.282,0-0.517,0.188-0.517,0.517v0.517h0.986v-0.517C274.798,182.893,274.609,182.705,274.28,182.705z"
			/>
		<path d="M275.783,182.705c-0.281,0-0.516,0.188-0.516,0.517v0.517h0.985v-0.517C276.253,182.893,276.066,182.705,275.783,182.705z
			"/>
		<path d="M277.24,182.705c-0.282,0-0.517,0.188-0.517,0.517v0.517h0.986v-0.517C277.758,182.893,277.569,182.705,277.24,182.705z"
			/>
		<path d="M278.743,182.705c-0.281,0-0.516,0.188-0.516,0.517v0.517h0.985v-0.517C279.26,182.893,279.025,182.705,278.743,182.705z"
			/>
		<path d="M280.247,182.705c-0.282,0-0.517,0.188-0.517,0.517v0.517h0.986v-0.517C280.717,182.893,280.529,182.705,280.247,182.705z
			"/>
		<path d="M281.703,182.705c-0.281,0-0.517,0.188-0.517,0.517v0.517h0.987v-0.517C282.219,182.893,282.032,182.705,281.703,182.705z
			"/>
		<path d="M261.407,188.625h21.283c0.281,0,0.517-0.188,0.517-0.518v-3.476c0-0.282-0.188-0.518-0.517-0.518h-21.283
			c-0.281,0-0.517,0.188-0.517,0.518v3.476C260.937,188.437,261.126,188.625,261.407,188.625z M261.407,185.43
			c0.564,0,0.987,0.423,0.987,0.986c0,0.564-0.423,0.987-0.987,0.987V185.43z"/>
	</g>
	<g>
		<path d="M261.407,175.094c0,4.322,5.919,5.919,8.88,1.551c3.007,4.558,8.691,2.63,8.691-1.551c0-4.134-5.638-6.201-8.691-1.551
			C267.375,168.939,261.407,170.772,261.407,175.094L261.407,175.094z M263.005,175.094c0-3.1,4.416-4.086,6.436,0
			C267.327,178.993,263.005,178.195,263.005,175.094L263.005,175.094z M271.133,175.094c1.833-4.134,6.39-3.006,6.342,0
			C277.474,178.101,272.918,179.04,271.133,175.094z"/>
	</g>
	
		<rect x="256.521" y="262.573" fill="none" stroke="#000000" stroke-width="1.318" stroke-linecap="round" stroke-linejoin="round" stroke-miterlimit="10" width="30.068" height="23.868"/>
	
		<polygon fill="none" stroke="#000000" stroke-width="1.318" stroke-linecap="round" stroke-linejoin="round" stroke-miterlimit="10" points="
		258.495,264.547 266.199,264.547 266.199,272.252 258.495,272.252 258.495,272.533 266.199,272.533 266.199,280.24 258.495,280.24 
			"/>
	<path fill="#7BE019" stroke="#000000" stroke-width="1.318" stroke-miterlimit="10" d="M265.119,284.42
		c-0.658,0-1.176-0.518-1.176-1.175s0.518-1.175,1.176-1.175s1.174,0.518,1.174,1.175S265.777,284.42,265.119,284.42z"/>
	<path fill="#7BE019" stroke="#000000" stroke-width="1.318" stroke-miterlimit="10" d="M269.065,284.42
		c-0.657,0-1.175-0.518-1.175-1.175s0.518-1.175,1.175-1.175c0.658,0,1.175,0.518,1.175,1.175S269.723,284.42,269.065,284.42z"/>
	<path fill="#7BE019" stroke="#000000" stroke-width="1.318" stroke-miterlimit="10" d="M273.058,284.42
		c-0.657,0-1.175-0.518-1.175-1.175s0.518-1.175,1.175-1.175c0.658,0,1.175,0.518,1.175,1.175
		C274.186,283.903,273.669,284.42,273.058,284.42z"/>
	
		<rect x="266.481" y="272.533" fill="none" stroke="#000000" stroke-width="1.318" stroke-linecap="round" stroke-linejoin="round" stroke-miterlimit="10" width="7.705" height="7.706"/>
	
		<rect x="266.481" y="264.547" fill="none" stroke="#000000" stroke-width="1.318" stroke-linecap="round" stroke-linejoin="round" stroke-miterlimit="10" width="7.705" height="7.705"/>
	
		<path fill="none" stroke="#000000" stroke-width="1.318" stroke-linecap="round" stroke-linejoin="round" stroke-miterlimit="10" d="
		M280.905,284.091c-1.504,0-2.678-1.222-2.678-2.678c0-1.504,1.221-2.678,2.678-2.678c1.504,0,2.679,1.222,2.679,2.678
		C283.583,282.916,282.361,284.091,280.905,284.091z"/>
	
		<circle fill="none" stroke="#000000" stroke-width="1.318" stroke-linecap="round" stroke-linejoin="round" stroke-miterlimit="10" cx="280.905" cy="274.507" r="2.678"/>
	
		<circle fill="none" stroke="#000000" stroke-width="1.318" stroke-linecap="round" stroke-linejoin="round" stroke-miterlimit="10" cx="280.905" cy="267.6" r="2.678"/>
	<g>
		
			<path fill="none" stroke="#010101" stroke-width="1.318" stroke-linecap="round" stroke-linejoin="round" stroke-miterlimit="10" d="
			M289.08,286.581h16.537c0.141,0,0.234-0.095,0.234-0.235v-23.631c0-0.143-0.094-0.235-0.234-0.235H289.08V286.581z"/>
		
			<path fill="none" stroke="#010101" stroke-width="1.318" stroke-linecap="round" stroke-linejoin="round" stroke-miterlimit="10" d="
			M303.221,281.742c-1.41,1.268-3.478,2.067-5.731,2.067c-2.255,0-4.322-0.8-5.731-2.067v-3.571
			c1.222,1.738,3.289,2.913,5.591,2.913c2.537,0,4.745-1.362,5.918-3.43v4.088H303.221z"/>
		
			<path fill="#E01212" stroke="#000000" stroke-width="1.318" stroke-linecap="round" stroke-linejoin="round" stroke-miterlimit="10" d="
			M299.51,274.741c0.094,0.234,0.094,0.47,0.094,0.705c0,1.269-1.033,2.303-2.302,2.303s-2.303-1.034-2.303-2.303
			c0-0.235,0.047-0.471,0.094-0.705H299.51z"/>
		
			<path fill="none" stroke="#010101" stroke-width="1.318" stroke-linecap="round" stroke-linejoin="round" stroke-miterlimit="10" d="
			M302.61,265.157c0.141,0,0.282,0.048,0.282,0.094v6.248c0,0.049-0.142,0.095-0.282,0.095h-10.335
			c-0.143,0-0.283-0.046-0.283-0.095v-6.248c0-0.046,0.141-0.094,0.283-0.094H302.61z"/>
	</g>
	
		<rect x="265.729" y="252.143" fill="none" stroke="#010101" stroke-width="1.318" stroke-linecap="round" stroke-linejoin="round" stroke-miterlimit="10" width="3.008" height="1.504"/>
	
		<rect x="269.817" y="252.143" fill="none" stroke="#010101" stroke-width="1.318" stroke-linecap="round" stroke-linejoin="round" stroke-miterlimit="10" width="5.92" height="1.504"/>
	
		<rect x="265.729" y="255.244" fill="none" stroke="#010101" stroke-width="1.318" stroke-linecap="round" stroke-linejoin="round" stroke-miterlimit="10" width="3.008" height="1.504"/>
	
		<rect x="269.817" y="255.244" fill="none" stroke="#010101" stroke-width="1.318" stroke-linecap="round" stroke-linejoin="round" stroke-miterlimit="10" width="5.92" height="1.504"/>
	
		<rect x="286.12" y="252.143" fill="none" stroke="#010101" stroke-width="1.318" stroke-linecap="round" stroke-linejoin="round" stroke-miterlimit="10" width="4.51" height="1.504"/>
	
		<rect x="286.12" y="255.244" fill="none" stroke="#010101" stroke-width="1.318" stroke-linecap="round" stroke-linejoin="round" stroke-miterlimit="10" width="4.51" height="1.504"/>
	
		<rect x="292.226" y="252.143" fill="none" stroke="#010101" stroke-width="1.318" stroke-linecap="round" stroke-linejoin="round" stroke-miterlimit="10" width="4.512" height="1.504"/>
	
		<rect x="292.226" y="255.244" fill="none" stroke="#010101" stroke-width="1.318" stroke-linecap="round" stroke-linejoin="round" stroke-miterlimit="10" width="4.512" height="1.504"/>
	
		<path fill="none" stroke="#010101" stroke-width="1.318" stroke-linecap="round" stroke-linejoin="round" stroke-miterlimit="10" d="
		M285.039,192.806H261.36c-0.094,0-0.188,0.095-0.188,0.235v1.832h24.056v-1.832C285.227,192.948,285.134,192.806,285.039,192.806z"
		/>
	
		<path fill="none" stroke="#010101" stroke-width="1.318" stroke-linecap="round" stroke-linejoin="round" stroke-miterlimit="10" d="
		M285.039,196.894H261.36c-0.094,0-0.188,0.094-0.188,0.235v1.833h24.056v-1.833C285.227,196.987,285.134,196.894,285.039,196.894z"
		/>
	
		<line fill="none" stroke="#000000" stroke-width="1.7573" stroke-linecap="round" stroke-linejoin="round" stroke-miterlimit="10" x1="248.253" y1="152.215" x2="313.181" y2="152.215"/>
	
		<line fill="none" stroke="#000000" stroke-width="1.7573" stroke-linecap="round" stroke-linejoin="round" stroke-miterlimit="10" x1="248.253" y1="292.077" x2="313.181" y2="292.077"/>
	
		<rect x="242.991" y="255.009" fill="#FFDF22" stroke="#000000" stroke-width="1.7573" stroke-linecap="round" stroke-linejoin="round" stroke-miterlimit="10" width="4.463" height="39.56"/>
	<g>
		<path d="M114.59,242.841h-0.939c0-3.993,3.241-7.188,7.187-7.188v0.94C117.409,236.594,114.59,239.412,114.59,242.841z"/>
		<path d="M116.375,242.841h-0.986c0-3.006,2.442-5.402,5.449-5.402v0.987C118.395,238.378,116.375,240.352,116.375,242.841z"/>
		<path d="M118.16,242.841h-0.986c0-2.02,1.645-3.664,3.665-3.664v0.939C119.335,240.163,118.16,241.338,118.16,242.841z"/>
	</g>
	<g>
		<g>
			
				<rect x="259.058" y="231.519" stroke="#000000" stroke-width="0.4393" stroke-linecap="round" stroke-linejoin="round" stroke-miterlimit="10" width="12.402" height="2.866"/>
		</g>
		<g>
			
				<rect x="274.562" y="231.519" stroke="#000000" stroke-width="0.4393" stroke-linecap="round" stroke-linejoin="round" stroke-miterlimit="10" width="12.402" height="2.866"/>
		</g>
		<g>
			
				<rect x="290.019" y="231.519" stroke="#000000" stroke-width="0.4393" stroke-linecap="round" stroke-linejoin="round" stroke-miterlimit="10" width="12.403" height="2.866"/>
		</g>
		<g>
			
				<rect x="259.058" y="235.794" stroke="#000000" stroke-width="0.4393" stroke-linecap="round" stroke-linejoin="round" stroke-miterlimit="10" width="12.402" height="1.409"/>
		</g>
		<g>
			
				<rect x="259.058" y="238.66" stroke="#000000" stroke-width="0.4393" stroke-linecap="round" stroke-linejoin="round" stroke-miterlimit="10" width="12.402" height="1.409"/>
		</g>
		<g>
			
				<rect x="259.058" y="241.479" stroke="#000000" stroke-width="0.4393" stroke-linecap="round" stroke-linejoin="round" stroke-miterlimit="10" width="12.402" height="1.41"/>
		</g>
		<g>
			
				<rect x="274.562" y="235.794" stroke="#000000" stroke-width="0.4393" stroke-linecap="round" stroke-linejoin="round" stroke-miterlimit="10" width="12.402" height="1.409"/>
		</g>
		<g>
			
				<rect x="274.562" y="238.66" stroke="#000000" stroke-width="0.4393" stroke-linecap="round" stroke-linejoin="round" stroke-miterlimit="10" width="12.402" height="1.409"/>
		</g>
		<g>
			
				<rect x="274.562" y="241.479" stroke="#000000" stroke-width="0.4393" stroke-linecap="round" stroke-linejoin="round" stroke-miterlimit="10" width="12.402" height="1.41"/>
		</g>
		<g>
			
				<rect x="290.019" y="235.794" stroke="#000000" stroke-width="0.4393" stroke-linecap="round" stroke-linejoin="round" stroke-miterlimit="10" width="12.403" height="1.409"/>
		</g>
		<g>
			
				<rect x="290.019" y="238.66" stroke="#000000" stroke-width="0.4393" stroke-linecap="round" stroke-linejoin="round" stroke-miterlimit="10" width="12.403" height="1.409"/>
		</g>
		<g>
			
				<rect x="290.019" y="241.479" stroke="#000000" stroke-width="0.4393" stroke-linecap="round" stroke-linejoin="round" stroke-miterlimit="10" width="12.403" height="1.41"/>
		</g>
		<g>
			
				<circle fill="none" stroke="#000000" stroke-width="1.318" stroke-linecap="round" stroke-linejoin="round" stroke-miterlimit="10" cx="265.354" cy="224.237" r="5.121"/>
		</g>
		<g>
			
				<path fill="none" stroke="#000000" stroke-width="1.318" stroke-linecap="round" stroke-linejoin="round" stroke-miterlimit="10" d="
				M280.81,219.115c2.819,0,5.122,2.302,5.122,5.121c0,2.818-2.303,5.121-5.122,5.121c-2.818,0-5.121-2.302-5.121-5.121
				S277.992,219.115,280.81,219.115z"/>
		</g>
		<g>
			
				<circle fill="none" stroke="#000000" stroke-width="1.318" stroke-linecap="round" stroke-linejoin="round" stroke-miterlimit="10" cx="296.174" cy="224.237" r="5.121"/>
		</g>
		
			<rect x="256.334" y="215.781" fill="none" stroke="#000000" stroke-width="1.7573" stroke-linecap="round" stroke-linejoin="round" stroke-miterlimit="10" width="48.954" height="30.021"/>
	</g>
	
		<rect x="252.528" y="297.198" fill="none" stroke="#000000" stroke-width="1.7573" stroke-linecap="round" stroke-linejoin="round" stroke-miterlimit="10" width="56.236" height="30.444"/>
</g>
</svg>
