<?xml version="1.0" encoding="utf-8"?>
<!-- Generator: Adobe Illustrator 19.2.1, SVG Export Plug-In . SVG Version: 6.00 Build 0)  -->
<svg version="1.1" xmlns="http://www.w3.org/2000/svg" xmlns:xlink="http://www.w3.org/1999/xlink" x="0px" y="0px"
	 width="185.74933px" height="185.74933px" viewBox="0 0 185.74933 185.74933"
	 style="enable-background:new 0 0 185.74933 185.74933;" xml:space="preserve">
<style type="text/css">
	.st0{fill:none;stroke:#387CC6;stroke-width:2;stroke-miterlimit:10;}
	.st1{fill:#EDDD4F;}
	.st2{fill:#387CC6;}
	.st3{fill:#FFFFFF;}
	.st4{fill:none;stroke:#387CC6;stroke-width:2;stroke-linecap:round;stroke-linejoin:round;stroke-miterlimit:10;}
	.st5{fill:#EDDD4F;stroke:#387CC6;stroke-width:2;stroke-miterlimit:10;}
	.st6{opacity:0.3;}
	.st7{clip-path:url(#SVGID_2_);}
	.st8{clip-path:url(#SVGID_4_);fill-rule:evenodd;clip-rule:evenodd;}
	.st9{clip-path:url(#SVGID_4_);fill-rule:evenodd;clip-rule:evenodd;fill:#231F20;}
	.st10{clip-path:url(#SVGID_6_);}
	.st11{clip-path:url(#SVGID_8_);}
	.st12{clip-path:url(#SVGID_8_);fill:none;stroke:#000000;stroke-width:0.728;stroke-linejoin:bevel;}
	.st13{clip-path:url(#SVGID_8_);fill:none;stroke:#000000;stroke-width:0.894;stroke-linejoin:bevel;}
	.st14{clip-path:url(#SVGID_8_);fill:none;stroke:#000000;stroke-width:1.457;stroke-linejoin:bevel;}
	.st15{clip-path:url(#SVGID_8_);fill:none;stroke:#000000;stroke-width:0.088;}
	.st16{fill:#231F20;}
	.st17{fill:#ADACAC;}
	.st18{fill:#686868;}
	.st19{fill:#020202;}
	.st20{fill:none;stroke:#FFFFFF;stroke-width:0.215;}
	.st21{fill:none;stroke:#387CC6;stroke-width:2;stroke-linecap:round;stroke-miterlimit:10;}
	.st22{fill:none;stroke:#387CC6;stroke-miterlimit:10;}
	.st23{fill:none;stroke:#387CC6;stroke-linecap:round;stroke-miterlimit:10;}
	.st24{fill:#FA3700;}
	.st25{fill:#FFFFFF;stroke:#387CC6;stroke-width:2;stroke-miterlimit:10;}
</style>
<g id="Layer_3">
</g>
<g id="colour">
	<g>
		<circle class="st0" cx="92.87466" cy="92.87466" r="91.13544"/>
		<path class="st21" d="M108.218,69.85201c0.5744,3.64801,2.78197,16.29086,7.67868,29.59231
			c1.93763,5.26474,4.54048,8.09108,7.73672,8.40436c0.76939,0.07447,1.51957-0.00213,2.23698-0.19239
			c4.17562-1.10738,7.29298-6.02856,7.6872-6.67193c0.25937-0.51389,4.56122-9.41941,7.37314-21.25378
			c3.09865-13.04011-7.49242-17.68105-7.59802-17.72593l-20.79713-2.83555"/>
		<path class="st0" d="M50.50583,78.20115c0,0,3.38128,9.69201-4.49243,11.57815"/>
		<path class="st0" d="M89.56625,160.34782c-1.72966-11.04927,6.76335-37.90612,11.35255-45.56735l-5.21122-11.43575
			C53.79444,106.45604,43.1451,93.2728,43.92003,81.48536C43.98545,80.49907,74.29541,66.296,74.29541,66.296
			s-0.47788-18.75272,24.8698-17.73882c12.84103,0.51364,24.41627,8.6143,28.7672,12.71116"/>
		<path class="st0" d="M138.85376,87.26033c4.06894,10.23923,14.97214,23.88132,17.85722,27.5194"/>
		<path class="st21" d="M45.16319,87.70297c0,0,1.85439-1.82967,2.89828-4.21487"/>
		<g>
			<g>
				<g>
					<path class="st2" d="M61.7799,159.93449c0.21485-0.5482,0.80353-0.80641,1.3527-0.59253l3.95308,1.54443
						c1.25443,0.48944,2.10709,1.21974,2.48959,2.09167c0.29578,0.67731,0.31409,1.371,0.02602,2.10901l-0.01157,0.03084
						c-0.51449,1.31705-1.54346,1.72942-2.52523,1.83443c1.11569,0.94034,1.7217,2.02713,1.13978,3.51663l-0.01253,0.0318
						c-0.76595,1.96065-2.79018,2.37975-5.23738,1.42496l-4.11013-1.60512c-0.54821-0.21486-0.80642-0.80353-0.59156-1.35271
						L61.7799,159.93449z M63.63746,170.22137c1.31802,0.51546,2.32001,0.31024,2.70636-0.67827l0.01157-0.03084
						c0.3613-0.92589-0.16187-1.76218-1.68317-2.35663l-3.05899-1.19373l-1.17542,3.01082L63.63746,170.22137z M64.8861,165.35878
						c1.23901,0.48462,2.25932,0.32373,2.65145-0.68021l0.01253-0.03178c0.33624-0.86327-0.14548-1.66583-1.38354-2.15045
						l-2.7767-1.08389l-1.13881,2.91736L64.8861,165.35878z"/>
					<path class="st2" d="M71.17751,168.73476l0.00674-0.0318c0.65515-3.25072,3.71221-5.46957,7.26064-4.75468
						c3.5465,0.71585,5.48113,3.90298,4.82598,7.15468l-0.00674,0.03371c-0.65515,3.25073-3.71222,5.46765-7.25968,4.75276
						C72.45699,175.17549,70.52235,171.98643,71.17751,168.73476z M81.12814,170.74068l0.00674-0.03372
						c0.45187-2.2439-0.80546-4.4377-3.0985-4.90016c-2.294-0.4615-4.26428,1.04729-4.71711,3.29118l-0.00674,0.03372
						c-0.45283,2.24391,0.80931,4.42036,3.10331,4.88283C78.70889,174.47699,80.67628,172.98459,81.12814,170.74068z"/>
					<path class="st2" d="M85.5302,171.30719l0.00097-0.03275c0.11369-3.349,2.71503-6.0043,6.2808-5.88387
						c1.81805,0.06358,2.99348,0.64262,3.99259,1.46832c0.21388,0.17534,0.38828,0.46727,0.37575,0.83723
						c-0.01927,0.5723-0.48847,0.99333-1.06077,0.97504c-0.28615-0.0106-0.48366-0.11755-0.61565-0.22353
						c-0.78522-0.68407-1.64656-1.11665-2.77381-1.1552c-2.23619-0.07611-3.94827,1.71689-4.02727,4.02148l-0.00096,0.03372
						c-0.079,2.30461,1.48855,4.22768,3.74208,4.30475c1.24576,0.0424,2.10035-0.33238,2.98384-1.02608
						c0.15512-0.1291,0.37768-0.22353,0.6301-0.21486c0.5222,0.01735,0.96057,0.47113,0.94323,0.99237
						c-0.0106,0.31987-0.17053,0.56651-0.3613,0.72934c-1.14459,0.93745-2.42696,1.50011-4.32883,1.43459
						C87.88008,177.45119,85.41362,174.68895,85.5302,171.30719z"/>
					<path class="st2" d="M97.93188,171.59816l-0.00481-0.03372c-0.46535-3.28348,1.67835-6.3916,5.2605-6.89935
						c3.58311-0.5087,6.46772,1.85371,6.93404,5.13622l0.00481,0.03372c0.46535,3.28348-1.67834,6.39162-5.2605,6.89935
						C101.2828,177.24309,98.39723,174.88068,97.93188,171.59816z M107.98175,170.1732l-0.00482-0.03372
						c-0.32179-2.26607-2.23908-3.91551-4.55621-3.586c-2.3152,0.32758-3.66983,2.40672-3.349,4.67279l0.00578,0.03468
						c0.32083,2.26509,2.23523,3.89816,4.55139,3.56866C106.94603,174.50203,108.30162,172.43927,107.98175,170.1732z"/>
					<path class="st2" d="M111.53017,164.16313c-0.15222-0.55206,0.16476-1.11087,0.73223-1.26791
						c0.55206-0.15224,1.11088,0.16475,1.2631,0.71585l2.63411,9.53923c0.15126,0.55206-0.16476,1.10991-0.71682,1.26213
						c-0.56747,0.15704-1.12725-0.15993-1.27948-0.71007L111.53017,164.16313z"/>
					<path class="st2" d="M116.19911,162.9877c-0.21774-0.52893,0.02312-1.13785,0.56748-1.36234l0.20232-0.08286
						c0.46728-0.19269,0.82761-0.06841,1.22649,0.14934l8.35514,4.80382l-2.75935-6.6922
						c-0.21196-0.51353,0.03565-1.10799,0.54917-1.31898c0.52895-0.2187,1.1234,0.0289,1.3344,0.54243l3.77484,9.15096
						c0.21774,0.52895-0.01349,1.11665-0.5434,1.3344l-0.07707,0.0318c-0.45186,0.1869-0.82858,0.06841-1.23516-0.16476
						l-8.59311-4.94255l2.84991,6.9109c0.21197,0.51353-0.03468,1.10799-0.54917,1.31898
						c-0.5299,0.2187-1.12243-0.02794-1.3344-0.54146L116.19911,162.9877z"/>
				</g>
				<g>
					<path class="st2" d="M56.17352,17.02903c-0.22834-0.54339,0.01445-1.13881,0.55785-1.36619l3.91166-1.63981
						c1.2419-0.5222,2.36241-0.58964,3.24301-0.2293c0.68309,0.2794,1.17831,0.76499,1.48566,1.49337l0.01253,0.03083
						c0.54724,1.30453,0.09538,2.31616-0.53665,3.07344c1.4558-0.1002,2.64567,0.25821,3.26421,1.7323l0.01253,0.03083
						c0.81316,1.94041-0.34781,3.65152-2.76899,4.66701l-4.06677,1.70533c-0.54339,0.22931-1.13881-0.01542-1.36619-0.55688
						L56.17352,17.02903z M62.17492,18.76326c1.22649-0.51449,1.84696-1.33921,1.43074-2.3335l-0.01445-0.03083
						c-0.35744-0.85363-1.26117-1.09449-2.48766-0.58193l-2.74683,1.1523l1.21107,2.88846L62.17492,18.76326z M64.66065,23.12197
						c1.30357-0.54532,1.88068-1.39124,1.47025-2.36819l-0.01253-0.03083c-0.38442-0.91529-1.3421-1.1523-2.84703-0.52027
						l-3.02623,1.26792l1.24961,2.98095L64.66065,23.12197z"/>
					<path class="st2" d="M69.35464,16.93269l-0.00771-0.03276c-0.7303-3.23338,1.15327-6.50722,4.68435-7.30304
						c3.53013-0.79775,6.59586,1.32187,7.32616,4.55525l0.00867,0.03276c0.72934,3.2353-1.15423,6.50915-4.68339,7.30497
						C73.1526,22.28761,70.08591,20.16607,69.35464,16.93269z M79.25613,14.69746l-0.00771-0.03276
						c-0.50485-2.2333-2.54932-3.72282-4.83176-3.2064c-2.28245,0.51449-3.46268,2.69769-2.95879,4.931l0.00771,0.03276
						c0.50485,2.23138,2.54546,3.70355,4.82694,3.18906C78.57497,19.0947,79.76003,16.92883,79.25613,14.69746z"/>
					<path class="st2" d="M83.91737,13.96137l-0.00097-0.03276c-0.15607-3.34899,2.22271-6.20469,5.78848-6.37041
						c1.81612-0.08478,3.0349,0.39887,4.0976,1.14074c0.22641,0.15801,0.42489,0.43548,0.44126,0.80545
						c0.02602,0.5723-0.40658,1.0309-0.97887,1.05595c-0.28519,0.01349-0.49233-0.07708-0.63203-0.17342
						c-0.83724-0.61662-1.72941-0.9808-2.85762-0.92685c-2.2362,0.10213-3.79797,2.02905-3.69199,4.33365l0.00096,0.03276
						c0.10791,2.30267,1.82576,4.09471,4.08026,3.99066c1.24383-0.05781,2.06566-0.501,2.88942-1.26406
						c0.14548-0.14067,0.35938-0.25243,0.6118-0.26399c0.52123-0.02505,0.99622,0.39116,1.0203,0.91336
						c0.01445,0.31987-0.12525,0.58001-0.30253,0.75535c-1.06462,1.02705-2.29881,1.69184-4.1978,1.77855
						C86.75476,19.8963,84.07441,17.34119,83.91737,13.96137z"/>
					<path class="st2" d="M96.52715,13.47964l0.00481-0.03276c0.40369-3.29119,3.28059-5.73645,6.87238-5.29711
						c3.59178,0.44127,5.76343,3.47232,5.3607,6.7635l-0.00482,0.03276c-0.40369,3.29119-3.28155,5.73645-6.87334,5.29519
						C98.2951,19.80188,96.12346,16.77083,96.52715,13.47964z M106.60014,14.7148l0.00481-0.03276
						c0.27844-2.27184-1.14362-4.36255-3.46557-4.64774s-4.17082,1.37004-4.45023,3.64381l-0.00289,0.03276
						c-0.2794,2.27184,1.14651,4.34521,3.46846,4.6304C104.47571,18.62645,106.3217,16.98664,106.60014,14.7148z"/>
					<path class="st2" d="M112.93298,11.04979c0.14355-0.55495,0.69659-0.8806,1.26792-0.73416
						c0.55399,0.14259,0.88156,0.69562,0.73801,1.24865l-2.4655,9.58837c-0.14355,0.55495-0.69658,0.88253-1.25153,0.73994
						c-0.57037-0.14645-0.89795-0.69947-0.75439-1.25443L112.93298,11.04979z"/>
					<path class="st2" d="M118.95172,12.64721c0.20908-0.53376,0.80449-0.80353,1.3527-0.58771l0.20329,0.079
						c0.46921,0.18499,0.64359,0.52605,0.77944,0.95961l2.68324,9.24923l2.65337-6.72882
						c0.20329-0.51834,0.79196-0.77462,1.30838-0.57037c0.5328,0.21003,0.78907,0.79967,0.58482,1.31609l-3.62743,9.20299
						c-0.21004,0.53183-0.78329,0.79389-1.31513,0.58386l-0.079-0.0289c-0.45475-0.1792-0.64262-0.52605-0.77366-0.97502
						l-2.75935-9.51515l-2.73912,6.94849c-0.20425,0.51641-0.79293,0.7727-1.31031,0.56844
						c-0.53183-0.20811-0.78715-0.79775-0.58385-1.31416L118.95172,12.64721z"/>
				</g>
			</g>
			<g>
				<g>
					<path class="st2" d="M10.48616,104.7397l0.53183,1.14941c0.0501,0.11272,0.08671,0.26014,0.10116,0.35938
						c0.06552,0.48366-0.27459,0.95575-0.74187,1.0203c-0.43356,0.05878-0.80449-0.1609-0.97791-0.56073l-0.8122-1.68799
						c-0.17246-0.38442-0.28037-0.67538-0.3218-0.97502l-0.00482-0.03468c-0.08093-0.58193,0.30927-1.07812,0.87675-1.15712
						l9.86681-1.36619c0.56651-0.07804,1.08004,0.31023,1.15808,0.87675c0.07708,0.55014-0.30927,1.07908-0.87675,1.15808
						L10.48616,104.7397z"/>
					<path class="st2" d="M13.70124,99.24219h-0.03372c-3.36537,0.05106-6.12184-1.95968-6.17001-5.05625
						c-0.04721-3.07922,2.61484-5.15644,5.98117-5.20847h0.03276c3.36537-0.05106,6.1228,1.96161,6.17001,5.05721
						C19.72865,97.13028,17.06661,99.19016,13.70124,99.24219z M13.57791,91.11443h-0.03372
						c-2.32194,0.03564-4.20551,1.25924-4.17853,3.07729c0.02794,1.81709,1.89706,2.95012,4.23538,2.91447h0.03372
						c2.32291-0.03565,4.20551-1.24287,4.17757-3.0773C17.78439,92.19447,15.88348,91.07974,13.57791,91.11443z"/>
					<path class="st2" d="M13.70027,86.58326l-0.03372-0.00481c-3.33069-0.47787-5.73645-2.89809-5.29711-5.9619
						c0.43645-3.04839,3.39235-4.6805,6.72207-4.20262l0.03276,0.00481c3.33165,0.47788,5.73934,2.89713,5.29904,5.96191
						C19.98301,85.44541,17.03192,87.06017,13.70027,86.58326z M14.85546,78.53836l-0.03372-0.00482
						c-2.29882-0.32951-4.35099,0.58386-4.6092,2.38168c-0.25821,1.79878,1.41051,3.21122,3.72571,3.54265l0.03179,0.00482
						c2.29882,0.33047,4.3481-0.56555,4.60824-2.37975C18.83938,80.26585,17.13694,78.86594,14.85546,78.53836z"/>
				</g>
				<g>
					<path class="st2" d="M175.26413,81.13393l-0.53183-1.15038c-0.04913-0.11176-0.0867-0.26014-0.10019-0.35841
						c-0.06648-0.48463,0.27747-0.95576,0.74379-1.01935c0.43355-0.05973,0.80449,0.1609,0.97694,0.5617l0.80931,1.68895
						c0.17149,0.38442,0.2794,0.67538,0.32083,0.97502l0.00482,0.03372c0.07996,0.58289-0.31216,1.07908-0.87772,1.15616
						l-9.86971,1.35366c-0.56651,0.07611-1.07907-0.3112-1.15518-0.87772c-0.07613-0.55109,0.30927-1.07907,0.87674-1.15711
						L175.26413,81.13393z"/>
					<path class="st2" d="M172.03943,86.6218l0.03372-0.00097c3.36633-0.04528,6.12086,1.97124,6.16231,5.06781
						c0.04239,3.07922-2.62352,5.1526-5.98889,5.19884h-0.03372c-3.36633,0.04528-6.12086-1.97028-6.16229-5.06685
						C166.00816,88.72311,168.6731,86.66805,172.03943,86.6218z M172.14926,94.75053h0.03372
						c2.32291-0.03179,4.2084-1.25153,4.18431-3.07055c-0.02408-1.81709-1.89223-2.95301-4.23152-2.92218l-0.03276,0.00192
						c-2.32387,0.03083-4.20839,1.2342-4.18431,3.0696C167.94376,93.66278,169.8437,94.78233,172.14926,94.75053z"/>
					<path class="st2" d="M172.01823,99.32986l0.03372,0.00481c3.33069,0.48559,5.73259,2.91158,5.28651,5.97732
						c-0.44609,3.04839-3.40488,4.67568-6.73653,4.18913l-0.03372-0.00385c-3.33165-0.48752-5.73357-2.91351-5.28651-5.97829
						C165.72876,100.45422,168.68658,98.84332,172.01823,99.32986z M170.84377,107.37573l0.03372,0.00481
						c2.29787,0.33529,4.3539-0.5723,4.61595-2.37108c0.26303-1.80071-1.40184-3.217-3.718-3.55518l-0.03372-0.00385
						c-2.29881-0.33625-4.35098,0.55592-4.61594,2.37108C166.86179,105.63764,168.5623,107.04237,170.84377,107.37573z"/>
				</g>
			</g>
		</g>
		<circle class="st0" cx="92.87466" cy="92.87466" r="67.47316"/>
		<circle class="st0" cx="89.7997" cy="68.81849" r="3.07497"/>
	</g>
</g>
<g id="lines">
</g>
</svg>
