<?xml version="1.0" encoding="utf-8"?>
<!-- Generator: Adobe Illustrator 19.2.1, SVG Export Plug-In . SVG Version: 6.00 Build 0)  -->
<svg version="1.1" xmlns="http://www.w3.org/2000/svg" xmlns:xlink="http://www.w3.org/1999/xlink" x="0px" y="0px" width="140px"
	 height="60px" viewBox="0 0 140 60" style="enable-background:new 0 0 140 60;" xml:space="preserve">
<style type="text/css">
	.st0{fill:#EDDD4F;}
	.st1{fill:#387CC6;}
	.st2{fill:#FFFFFF;}
	.st3{fill:none;stroke:#387CC6;stroke-width:2;stroke-linecap:round;stroke-linejoin:round;stroke-miterlimit:10;}
	.st4{opacity:0.3;}
	.st5{clip-path:url(#SVGID_2_);}
	.st6{clip-path:url(#SVGID_4_);fill-rule:evenodd;clip-rule:evenodd;}
	.st7{clip-path:url(#SVGID_4_);fill-rule:evenodd;clip-rule:evenodd;fill:#231F20;}
	.st8{clip-path:url(#SVGID_6_);}
	.st9{clip-path:url(#SVGID_8_);}
	.st10{clip-path:url(#SVGID_8_);fill:none;stroke:#000000;stroke-width:0.728;stroke-linejoin:bevel;}
	.st11{clip-path:url(#SVGID_8_);fill:none;stroke:#000000;stroke-width:0.894;stroke-linejoin:bevel;}
	.st12{clip-path:url(#SVGID_8_);fill:none;stroke:#000000;stroke-width:1.457;stroke-linejoin:bevel;}
	.st13{clip-path:url(#SVGID_8_);fill:none;stroke:#000000;stroke-width:0.088;}
	.st14{fill:#231F20;}
	.st15{fill:#ADACAC;}
	.st16{fill:#686868;}
	.st17{fill:#020202;}
	.st18{fill:none;stroke:#FFFFFF;stroke-width:0.215;}
	.st19{fill:none;stroke:#387CC6;stroke-width:2;stroke-miterlimit:10;}
	.st20{fill:none;stroke:#387CC6;stroke-width:2;stroke-linecap:round;stroke-miterlimit:10;}
	.st21{fill:none;stroke:#387CC6;stroke-miterlimit:10;}
	.st22{fill:none;stroke:#387CC6;stroke-linecap:round;stroke-miterlimit:10;}
	.st23{fill:#FA3700;}
	.st24{fill:#FFFFFF;stroke:#387CC6;stroke-width:2;stroke-miterlimit:10;}
	.st25{fill:#EDDD4F;stroke:#387CC6;stroke-width:2;stroke-miterlimit:10;}
</style>
<g id="Layer_3">
</g>
<g id="colour">
	<g class="st4">
		<defs>
			<rect id="SVGID_1_" x="-531" class="st4" width="60" height="60"/>
		</defs>
		<clipPath id="SVGID_2_">
			<use xlink:href="#SVGID_1_"  style="overflow:visible;"/>
		</clipPath>
		<g class="st5">
			<g>
				<defs>
					<rect id="SVGID_3_" x="-567.19061" y="-15.89748" width="673.77173" height="1010.65759"/>
				</defs>
				<clipPath id="SVGID_4_">
					<use xlink:href="#SVGID_3_"  style="overflow:visible;"/>
				</clipPath>
			</g>
		</g>
	</g>
	<g class="st4">
		<polygon class="st16" points="90.06749,60 91.61581,59.95952 93.14391,59.84834 94.64164,59.65621 96.12939,59.39309 
			97.57638,59.05914 99.00327,58.65421 100.3998,58.17872 101.76598,57.64237 103.10179,57.03518 104.39713,56.37739 
			105.65198,55.64877 106.87647,54.86954 108.05037,54.0296 109.18378,53.13906 110.27673,52.19792 111.31921,51.19606 
			112.32092,50.15372 113.26206,49.06064 114.15261,47.92736 114.99255,46.75347 115.77177,45.52897 116.5004,44.27412 
			117.15819,42.97878 117.76537,41.64297 118.30173,40.27679 118.77735,38.88026 119.18214,37.45337 119.5161,36.00624 
			119.77921,34.51863 119.97149,33.0209 120.08281,31.49281 120.12329,29.94448 120.08281,28.40627 119.97149,26.8883 
			119.77921,25.39057 119.5161,23.9232 119.18214,22.47607 118.77735,21.0593 118.30173,19.66277 117.76537,18.30672 
			117.15819,16.98102 116.5004,15.68569 115.77177,14.44095 114.99255,13.21646 114.15261,12.04256 113.26206,10.91926 
			112.32092,9.82632 111.31921,8.78398 110.27673,7.79224 109.18378,6.8511 108.05037,5.96056 106.87647,5.12062 105.65198,4.34139 
			104.39713,3.62289 103.10179,2.9651 101.76598,2.35791 100.3998,1.82156 99.00327,1.34593 97.57638,0.94114 96.12939,0.60719 
			94.64164,0.34407 93.14391,0.1518 91.61581,0.04048 90.06749,0 88.52928,0.04048 87.00119,0.1518 85.50346,0.34407 
			84.02597,0.60719 82.57884,0.94114 81.15195,1.34593 79.76553,1.82156 78.39936,2.35791 77.07367,2.9651 75.78845,3.62289 
			74.5336,4.34139 73.31922,5.12062 72.14532,5.96056 71.01191,6.8511 69.92909,7.79224 68.88675,8.78398 67.89501,9.82632 
			66.95387,10.91926 66.06333,12.04256 65.23351,13.21646 64.45428,14.44095 63.73577,15.68569 63.06787,16.98102 62.4708,18.30672 
			61.93445,19.66277 61.46894,21.0593 61.06415,22.47607 60.73034,23.9232 60.46708,25.39057 60.2748,26.8883 60.16349,28.40627 
			60.12301,29.94448 60.16349,31.49281 60.2748,33.0209 60.46708,34.51863 60.73034,36.00624 61.06415,37.45337 61.46894,38.88026 
			61.93445,40.27679 62.4708,41.64297 63.06787,42.97878 63.73577,44.27412 64.45428,45.52897 65.23351,46.75347 66.06333,47.92736 
			66.95387,49.06064 67.89501,50.15372 68.88675,51.19606 69.92909,52.19792 71.01191,53.13906 72.14532,54.0296 73.31922,54.86954 
			74.5336,55.64877 75.78845,56.37739 77.07367,57.03518 78.39936,57.64237 79.76553,58.17872 81.15195,58.65421 82.57884,59.05914 
			84.02597,59.39309 85.50346,59.65621 87.00119,59.84834 88.52928,59.95952 		"/>
		<polygon class="st17" points="49.93237,60 51.47058,59.95952 52.99867,59.84834 54.4964,59.65621 55.97389,59.39309 
			57.42102,59.05914 58.84791,58.65421 60.23433,58.17872 61.6005,57.64237 62.92619,57.03518 64.2114,56.37739 65.46626,55.64877 
			66.68063,54.86954 67.85453,54.0296 68.98795,53.13906 70.07077,52.19792 71.11311,51.19606 72.10485,50.15372 73.04599,49.06064 
			73.93653,47.92736 74.76636,46.75347 75.54558,45.52897 76.26408,44.27412 76.93199,42.97878 77.52906,41.64297 
			78.06541,40.27679 78.53092,38.88026 78.93571,37.45337 79.26966,36.00624 79.53278,34.51863 79.72505,33.0209 79.83637,31.49281 
			79.87685,29.94448 79.83637,28.40627 79.72505,26.8883 79.53278,25.39057 79.26966,23.9232 78.93571,22.47607 78.53092,21.0593 
			78.06541,19.66277 77.52906,18.30672 76.93199,16.98102 76.26408,15.68569 75.54558,14.44095 74.76636,13.21646 
			73.93653,12.04256 73.04599,10.91926 72.10485,9.82632 71.11311,8.78398 70.07077,7.79224 68.98795,6.8511 67.85453,5.96056 
			66.68063,5.12062 65.46626,4.34139 64.2114,3.62289 62.92619,2.9651 61.6005,2.35791 60.23433,1.82156 58.84791,1.34593 
			57.42102,0.94114 55.97389,0.60719 54.4964,0.34407 52.99867,0.1518 51.47058,0.04048 49.93237,0 48.38404,0.04048 
			46.85595,0.1518 45.35822,0.34407 43.87061,0.60719 42.42348,0.94114 40.99673,1.34593 39.60006,1.82156 38.23388,2.35791 
			36.89807,2.9651 35.60274,3.62289 34.34788,4.34139 33.12339,5.12062 31.94949,5.96056 30.81607,6.8511 29.72313,7.79224 
			28.6808,8.78398 27.67894,9.82632 26.73779,10.91926 25.84725,12.04256 25.00731,13.21646 24.22808,14.44095 23.49946,15.68569 
			22.84167,16.98102 22.23448,18.30672 21.69814,19.66277 21.22264,21.0593 20.81771,22.47607 20.48376,23.9232 20.22064,25.39057 
			20.02837,26.8883 19.91705,28.40627 19.87671,29.94448 19.91705,31.49281 20.02837,33.0209 20.22064,34.51863 20.48376,36.00624 
			20.81771,37.45337 21.22264,38.88026 21.69814,40.27679 22.23448,41.64297 22.84167,42.97878 23.49946,44.27412 
			24.22808,45.52897 25.00731,46.75347 25.84725,47.92736 26.73779,49.06064 27.67894,50.15372 28.6808,51.19606 29.72313,52.19792 
			30.81607,53.13906 31.94949,54.0296 33.12339,54.86954 34.34788,55.64877 35.60274,56.37739 36.89807,57.03518 38.23388,57.64237 
			39.60006,58.17872 40.99673,58.65421 42.42348,59.05914 43.87061,59.39309 45.35822,59.65621 46.85595,59.84834 
			48.38404,59.95952 		"/>
		<polygon class="st16" points="66.48836,11.50621 82.42704,11.50621 82.42704,9.87692 67.86465,9.87692 		"/>
		<polygon class="st16" points="64.10009,15.1291 82.42704,15.1291 82.42704,13.49981 65.06147,13.49981 		"/>
		<polygon class="st16" points="62.319,18.74187 82.42704,18.74187 82.42704,17.11244 63.02753,17.11244 		"/>
		<polygon class="st16" points="61.09451,22.36461 82.42704,22.36461 82.42704,20.73547 61.6005,20.73547 		"/>
		<polygon class="st16" points="61.80289,39.872 82.47764,39.872 82.47764,38.24272 61.29691,38.24272 		"/>
		<polygon class="st16" points="63.33098,43.49489 82.47764,43.49489 82.47764,41.8656 62.572,41.8656 		"/>
		<polygon class="st16" points="65.47638,47.10766 82.47764,47.10766 82.47764,45.47837 64.45428,45.47837 		"/>
		<polygon class="st16" points="68.43136,50.73055 82.47764,50.73055 82.47764,49.09114 67.00447,49.09114 		"/>
		<polygon class="st16" points="60.376,25.97752 82.42704,25.97752 82.42704,24.34823 60.68972,24.34823 		"/>
		<polygon class="st16" points="73.81509,36.25924 82.22465,36.25924 82.22465,34.62995 74.11869,34.62995 		"/>
		<polygon class="st16" points="74.483,32.64647 82.22465,32.64647 82.22465,31.00706 74.78659,31.00706 		"/>
		<polygon class="st16" points="59.81941,31.00706 62.00529,31.00706 62.00529,32.64647 59.92061,32.64647 		"/>
		<polygon class="st2" points="55.74113,29.0337 55.59946,29.02358 55.45778,29.00334 55.32622,28.9831 55.19466,28.96286 
			55.07323,28.94262 54.94167,28.92238 54.81011,28.90214 54.66844,28.8819 54.52676,28.86166 54.36484,28.85154 54.18269,28.84142 
			53.99041,28.8313 53.77789,28.8313 53.54514,28.84142 53.28202,28.86166 52.98855,28.8819 52.78615,28.91226 52.59388,28.94262 
			52.42184,29.00334 52.27004,29.06406 52.12837,29.1349 51.99681,29.21586 51.89561,29.31705 51.80453,29.40813 51.74382,29.51945 
			51.69321,29.63077 51.67298,29.7522 51.67298,29.87364 51.70333,30.0052 51.74382,30.13676 51.82477,30.26831 51.92597,30.39987 
			52.12837,30.59215 52.37124,30.74395 52.65459,30.8755 52.95819,30.98682 53.28202,31.08802 53.61598,31.19934 53.94993,31.32077 
			54.27377,31.45233 54.57736,31.62437 54.86071,31.83688 55.11371,32.08988 55.32622,32.40359 55.48814,32.78814 
			55.58934,33.24353 55.62982,33.79 55.58934,34.42755 55.5185,34.90318 55.39706,35.3181 55.23515,35.70265 55.03275,36.0366 
			54.79999,36.33007 54.53688,36.58307 54.25352,36.80571 53.93981,36.99798 53.61598,37.14964 53.28202,37.28133 
			52.93795,37.38253 52.58376,37.46335 52.23969,37.52421 51.90573,37.55457 51.57178,37.57481 51.25806,37.58493 
			50.82291,37.58493 50.41812,37.57481 50.06393,37.57481 49.72998,37.56455 49.42638,37.55457 49.15314,37.53433 
			48.91027,37.51409 48.67752,37.48373 48.465,37.46335 48.27272,37.42301 48.08045,37.39265 47.90841,37.34205 47.73637,37.30157 
			47.57446,37.24086 47.41254,37.18014 47.24051,37.11942 47.6959,34.88294 47.78697,34.90318 47.89829,34.9334 48.03997,34.97402 
			48.21201,35.0145 48.39416,35.05498 48.59656,35.09546 48.81919,35.14592 49.06207,35.18654 49.31506,35.22702 49.57818,35.26749 
			49.85141,35.29786 50.13477,35.32821 50.42824,35.33833 50.72171,35.34845 51.01519,35.34845 51.30866,35.33833 
			51.60214,35.27761 51.83489,35.19666 52.01705,35.08534 52.15873,34.94366 52.25993,34.80198 52.34088,34.64007 
			52.39148,34.47815 52.43196,34.32635 52.4522,34.03288 52.36112,33.77988 52.18909,33.57749 51.93609,33.40545 51.6325,33.25365 
			51.27831,33.10186 50.88363,32.96018 50.48896,32.79826 50.08417,32.61611 49.69962,32.40359 49.34542,32.14048 
			49.02159,31.82676 48.76859,31.44221 48.58644,30.98682 48.49536,30.44035 48.50548,29.79268 48.55608,29.39801 
			48.62691,29.02358 48.72812,28.67951 48.84955,28.35567 49.01147,28.05208 49.19363,27.78897 49.40614,27.53597 
			49.65914,27.31333 49.95261,27.12106 50.27644,26.95914 50.64075,26.80734 51.04555,26.69603 51.50094,26.60495 
			51.99681,26.53411 52.54328,26.49363 53.14035,26.48351 53.51478,26.48351 53.85885,26.49363 54.17257,26.50375 
			54.45592,26.51387 54.70892,26.53411 54.94167,26.55435 55.14407,26.57459 55.32622,26.59483 55.49826,26.61507 
			55.63994,26.64543 55.7715,26.66567 55.89293,26.68591 55.99413,26.70615 56.08535,26.71627 56.17628,26.73651 56.25724,26.74663 
					"/>
		<g>
			<g>
				<polyline class="st18" points="55.74113,29.0337 55.74113,29.0337 55.59946,29.02358 55.45778,29.00334 55.32622,28.9831 
					55.19466,28.96286 55.07323,28.94262 54.94167,28.92238 54.81011,28.90214 54.66844,28.8819 54.52676,28.86166 
					54.36484,28.85154 54.18269,28.84142 53.99041,28.8313 53.77789,28.8313 53.54514,28.84142 53.28202,28.86166 52.98855,28.8819 
					52.98855,28.8819 52.78615,28.91226 52.59388,28.94262 52.42184,29.00334 52.27004,29.06406 52.12837,29.1349 
					51.99681,29.21586 51.89561,29.31705 51.80453,29.40813 51.74382,29.51945 51.69321,29.63077 51.67298,29.7522 
					51.67298,29.87364 51.70333,30.0052 51.74382,30.13676 51.82477,30.26831 51.92597,30.39987 51.92597,30.39987 
					52.12837,30.59215 52.37124,30.74395 52.65459,30.8755 52.95819,30.98682 53.28202,31.08802 53.61598,31.19934 
					53.94993,31.32077 54.27377,31.45233 54.57736,31.62437 54.86071,31.83688 55.11371,32.08988 55.32622,32.40359 
					55.48814,32.78814 55.58934,33.24353 55.62982,33.79 55.58934,34.42755 55.58934,34.42755 55.5185,34.90318 55.39706,35.3181 
					55.23515,35.70265 55.03275,36.0366 54.79999,36.33007 54.53688,36.58307 54.25352,36.80571 53.93981,36.99798 
					53.61598,37.14964 53.28202,37.28133 52.93795,37.38253 52.58376,37.46335 52.23969,37.52421 51.90573,37.55457 
					51.57178,37.57481 51.25806,37.58493 51.25806,37.58493 50.82291,37.58493 50.41812,37.57481 50.06393,37.57481 
					49.72998,37.56455 49.42638,37.55457 49.15314,37.53433 48.91027,37.51409 48.67752,37.48373 48.465,37.46335 
					48.27272,37.42301 48.08045,37.39265 47.90841,37.34205 47.73637,37.30157 47.57446,37.24086 47.41254,37.18014 
					47.24051,37.11942 47.6959,34.88294 47.6959,34.88294 47.78697,34.90318 47.89829,34.9334 48.03997,34.97402 48.21201,35.0145 
					48.39416,35.05498 48.59656,35.09546 48.81919,35.14592 49.06207,35.18654 49.31506,35.22702 49.57818,35.26749 
					49.85141,35.29786 50.13477,35.32821 50.42824,35.33833 50.72171,35.34845 51.01519,35.34845 51.30866,35.33833 
					51.30866,35.33833 51.60214,35.27761 51.83489,35.19666 52.01705,35.08534 52.15873,34.94366 52.25993,34.80198 
					52.34088,34.64007 52.39148,34.47815 52.43196,34.32635 52.43196,34.32635 52.4522,34.03288 52.36112,33.77988 
					52.18909,33.57749 51.93609,33.40545 51.6325,33.25365 51.27831,33.10186 50.88363,32.96018 50.48896,32.79826 
					50.08417,32.61611 49.69962,32.40359 49.34542,32.14048 49.02159,31.82676 48.76859,31.44221 48.58644,30.98682 
					48.49536,30.44035 48.50548,29.79268 48.50548,29.79268 48.55608,29.39801 48.62691,29.02358 48.72812,28.67951 
					48.84955,28.35567 49.01147,28.05208 49.19363,27.78897 49.40614,27.53597 49.65914,27.31333 49.95261,27.12106 
					50.27644,26.95914 50.64075,26.80734 51.04555,26.69603 51.50094,26.60495 51.99681,26.53411 52.54328,26.49363 
					53.14035,26.48351 53.14035,26.48351 53.51478,26.48351 53.85885,26.49363 54.17257,26.50375 54.45592,26.51387 
					54.70892,26.53411 54.94167,26.55435 55.14407,26.57459 55.32622,26.59483 55.49826,26.61507 55.63994,26.64543 
					55.7715,26.66567 55.89293,26.68591 55.99413,26.70615 56.08535,26.71627 56.17628,26.73651 56.25724,26.74663 
					55.74113,29.0337 				"/>
			</g>
		</g>
		<polygon class="st2" points="58.13953,24.24704 60.94271,24.24704 60.5278,26.69603 62.2178,26.69603 61.85349,28.9831 
			60.07241,28.9325 59.10091,34.57935 59.09079,34.78175 59.14139,34.95378 59.24273,35.08534 59.37414,35.19666 59.5563,35.26749 
			59.75869,35.32821 59.98133,35.36869 60.22421,35.38893 60.44684,35.37881 60.64923,35.35857 60.83139,35.32821 
			60.99331,35.28773 61.12487,35.24726 61.21595,35.2169 61.27666,35.19666 61.29691,35.18654 60.94271,37.06882 60.87187,37.11942 
			60.80103,37.1599 60.73034,37.20038 60.65936,37.24086 60.58852,37.27121 60.5077,37.30157 60.41648,37.33194 60.3254,37.36229 
			60.22421,37.39265 60.12301,37.41289 60.00157,37.43313 59.88027,37.45337 59.74857,37.47361 59.59678,37.49385 
			59.43486,37.51409 59.26283,37.53433 58.49372,37.53433 58.08893,37.50397 57.73473,37.46335 57.4109,37.40277 57.13781,37.33194 
			56.90491,37.24086 56.71278,37.13966 56.5406,37.01822 56.40904,36.88666 56.30798,36.74499 56.237,36.57295 56.18641,36.40091 
			56.15605,36.20864 56.14593,35.99612 56.14593,35.77349 56.17628,35.54073 56.20665,35.28773 		"/>
		<g>
			<g>
				<polyline class="st18" points="58.13953,24.24704 60.94271,24.24704 60.5278,26.69603 62.2178,26.69603 61.85349,28.9831 
					60.07241,28.9325 59.10091,34.57935 59.10091,34.57935 59.09079,34.78175 59.14139,34.95378 59.24273,35.08534 
					59.37414,35.19666 59.5563,35.26749 59.75869,35.32821 59.98133,35.36869 60.22421,35.38893 60.22421,35.38893 
					60.44684,35.37881 60.64923,35.35857 60.83139,35.32821 60.99331,35.28773 61.12487,35.24726 61.21595,35.2169 
					61.27666,35.19666 61.29691,35.18654 60.94271,37.06882 60.94271,37.06882 60.87187,37.11942 60.80103,37.1599 
					60.73034,37.20038 60.65936,37.24086 60.58852,37.27121 60.5077,37.30157 60.41648,37.33194 60.3254,37.36229 
					60.22421,37.39265 60.12301,37.41289 60.00157,37.43313 59.88027,37.45337 59.74857,37.47361 59.59678,37.49385 
					59.43486,37.51409 59.26283,37.53433 58.49372,37.53433 58.49372,37.53433 58.08893,37.50397 57.73473,37.46335 
					57.4109,37.40277 57.13781,37.33194 56.90491,37.24086 56.71278,37.13966 56.5406,37.01822 56.40904,36.88666 
					56.30798,36.74499 56.237,36.57295 56.18641,36.40091 56.15605,36.20864 56.14593,35.99612 56.14593,35.77349 
					56.17628,35.54073 56.20665,35.28773 58.13953,24.24704 				"/>
			</g>
		</g>
		<polygon class="st2" points="64.45428,32.79826 64.42392,32.9703 64.4138,33.15246 64.43404,33.34473 64.47452,33.53701 
			64.54536,33.72929 64.62632,33.91144 64.73763,34.10372 64.85907,34.27576 65.00075,34.44779 65.15255,34.59959 
			65.31446,34.75138 65.49662,34.87282 65.67878,34.98414 65.88117,35.07522 66.08356,35.14592 66.28596,35.18654 
			66.54908,35.22702 66.80207,35.25737 67.06519,35.28773 67.3283,35.30798 67.59142,35.3181 67.86465,35.3181 68.12777,35.30798 
			68.401,35.28773 68.67423,35.24726 68.94747,35.19666 69.23083,35.13594 69.50406,35.04486 69.78741,34.9334 70.08089,34.8121 
			70.36424,34.65019 70.65771,34.47815 70.25292,36.96762 70.09101,37.04858 69.92909,37.12954 69.76717,37.19026 
			69.61538,37.25084 69.46358,37.30157 69.30167,37.35217 69.13988,37.39265 68.96771,37.42301 68.78555,37.45337 
			68.58316,37.47361 68.37064,37.49385 68.13789,37.51409 67.87492,37.52421 67.60154,37.52421 67.28783,37.53433 
			66.95387,37.53433 66.458,37.52421 65.95201,37.47361 65.44602,37.40277 64.94003,37.28133 64.44416,37.12954 63.96853,36.93712 
			63.51314,36.68427 63.08811,36.39079 62.69344,36.04672 62.34936,35.63181 62.05589,35.1663 61.81301,34.62995 61.64098,34.03288 
			61.52966,33.35485 61.4993,32.60599 61.55004,31.77617 61.59038,31.45233 61.6511,31.0779 61.73206,30.68323 61.84337,30.2582 
			61.99517,29.82304 62.17733,29.38789 62.41022,28.94262 62.69344,28.51759 63.01727,28.1128 63.41194,27.72825 63.85721,27.38417 
			64.3632,27.08058 64.95015,26.82758 65.60794,26.64543 66.33656,26.52399 67.15627,26.48351 67.55094,26.49363 67.96585,26.53411 
			68.38076,26.60495 68.79568,26.70615 69.20046,26.85794 69.59514,27.0401 69.95945,27.28297 70.2934,27.56633 70.597,27.9104 
			70.84999,28.3152 71.05239,28.7807 71.19407,29.31705 71.27502,29.92424 71.28514,30.61239 71.2143,31.38149 71.06251,32.23156 
			71.01191,32.84887 63.63458,32.84887 64.10009,30.85526 68.53256,30.85526 68.5528,30.60227 68.54268,30.35939 68.52244,30.13676 
			68.48196,29.93436 68.41113,29.74209 68.34029,29.57005 68.23908,29.41825 68.13789,29.27658 68.01645,29.15514 67.8849,29.05394 
			67.73309,28.96286 67.5813,28.8819 67.41938,28.82118 67.25746,28.7807 67.08543,28.75035 66.90327,28.73011 66.711,28.74022 
			66.52884,28.77059 66.3568,28.81106 66.18477,28.87178 66.01273,28.95274 65.86093,29.04382 65.70914,29.15514 65.57758,29.27658 
			65.44602,29.41825 65.32458,29.57005 65.21326,29.73197 65.12218,29.904 65.03111,30.08616 64.96027,30.28856 64.89955,30.49095 
			64.85907,30.70347 		"/>
		<g>
			<g>
				<polyline class="st18" points="64.45428,32.79826 64.45428,32.79826 64.42392,32.9703 64.4138,33.15246 64.43404,33.34473 
					64.47452,33.53701 64.54536,33.72929 64.62632,33.91144 64.73763,34.10372 64.85907,34.27576 65.00075,34.44779 
					65.15255,34.59959 65.31446,34.75138 65.49662,34.87282 65.67878,34.98414 65.88117,35.07522 66.08356,35.14592 
					66.28596,35.18654 66.28596,35.18654 66.54908,35.22702 66.80207,35.25737 67.06519,35.28773 67.3283,35.30798 
					67.59142,35.3181 67.86465,35.3181 68.12777,35.30798 68.401,35.28773 68.67423,35.24726 68.94747,35.19666 69.23083,35.13594 
					69.50406,35.04486 69.78741,34.9334 70.08089,34.8121 70.36424,34.65019 70.65771,34.47815 70.25292,36.96762 
					70.25292,36.96762 70.09101,37.04858 69.92909,37.12954 69.76717,37.19026 69.61538,37.25084 69.46358,37.30157 
					69.30167,37.35217 69.13988,37.39265 68.96771,37.42301 68.78555,37.45337 68.58316,37.47361 68.37064,37.49385 
					68.13789,37.51409 67.87492,37.52421 67.60154,37.52421 67.28783,37.53433 66.95387,37.53433 66.95387,37.53433 
					66.458,37.52421 65.95201,37.47361 65.44602,37.40277 64.94003,37.28133 64.44416,37.12954 63.96853,36.93712 
					63.51314,36.68427 63.08811,36.39079 62.69344,36.04672 62.34936,35.63181 62.05589,35.1663 61.81301,34.62995 
					61.64098,34.03288 61.52966,33.35485 61.4993,32.60599 61.55004,31.77617 61.55004,31.77617 61.59038,31.45233 61.6511,31.0779 
					61.73206,30.68323 61.84337,30.2582 61.99517,29.82304 62.17733,29.38789 62.41022,28.94262 62.69344,28.51759 
					63.01727,28.1128 63.41194,27.72825 63.85721,27.38417 64.3632,27.08058 64.95015,26.82758 65.60794,26.64543 
					66.33656,26.52399 67.15627,26.48351 67.15627,26.48351 67.55094,26.49363 67.96585,26.53411 68.38076,26.60495 
					68.79568,26.70615 69.20046,26.85794 69.59514,27.0401 69.95945,27.28297 70.2934,27.56633 70.597,27.9104 70.84999,28.3152 
					71.05239,28.7807 71.19407,29.31705 71.27502,29.92424 71.28514,30.61239 71.2143,31.38149 71.06251,32.23156 
					71.01191,32.84887 63.63458,32.84887 64.10009,30.85526 68.53256,30.85526 68.53256,30.85526 68.5528,30.60227 
					68.54268,30.35939 68.52244,30.13676 68.48196,29.93436 68.41113,29.74209 68.34029,29.57005 68.23908,29.41825 
					68.13789,29.27658 68.01645,29.15514 67.8849,29.05394 67.73309,28.96286 67.5813,28.8819 67.41938,28.82118 67.25746,28.7807 
					67.08543,28.75035 66.90327,28.73011 66.90327,28.73011 66.711,28.74022 66.52884,28.77059 66.3568,28.81106 66.18477,28.87178 
					66.01273,28.95274 65.86093,29.04382 65.70914,29.15514 65.57758,29.27658 65.44602,29.41825 65.32458,29.57005 
					65.21326,29.73197 65.12218,29.904 65.03111,30.08616 64.96027,30.28856 64.89955,30.49095 64.85907,30.70347 
					64.45428,32.79826 				"/>
			</g>
		</g>
		<polygon class="st2" points="88.59,27.30322 88.45844,27.23238 88.32688,27.17166 88.1852,27.10082 88.03341,27.02998 
			87.88161,26.96926 87.70958,26.90854 87.53754,26.84782 87.35538,26.78711 87.16311,26.73651 86.97083,26.69603 
			86.75832,26.65555 86.5458,26.62519 86.31304,26.60495 86.08029,26.58471 85.83741,26.58471 85.58442,26.58471 85.33142,26.58471 
			85.06831,26.60495 84.79507,26.63531 84.51172,26.68591 84.22836,26.76686 83.94501,26.87818 83.66166,27.01986 83.3783,27.20202 
			83.10506,27.42465 82.84195,27.68777 82.58896,28.0116 82.34608,28.38603 82.12345,28.8313 81.91093,29.33729 81.71866,29.904 
			81.55674,30.55167 81.49602,30.91598 81.45554,31.27018 81.4353,31.62437 81.44542,31.96844 81.47578,32.31252 81.54662,32.63635 
			81.6377,32.93994 81.74902,33.24353 81.90081,33.51677 82.08297,33.77988 82.29549,34.01264 82.53836,34.22515 82.81159,34.40717 
			83.12531,34.55911 83.46938,34.69067 83.85394,34.78175 83.98549,34.8121 84.13729,34.84246 84.31944,34.86271 84.52184,34.88294 
			84.74448,34.90318 84.97723,34.90318 85.23022,34.90318 85.48322,34.88294 85.74634,34.85258 86.00945,34.80198 
			86.26244,34.73115 86.51544,34.65019 86.76843,34.53887 87.00119,34.40717 87.21371,34.2454 87.4161,34.06324 86.96071,36.76522 
			86.89999,36.81582 86.83927,36.87654 86.75832,36.94738 86.66724,37.0081 86.55592,37.08906 86.41424,37.1599 86.25233,37.23074 
			86.07017,37.29145 85.83741,37.36229 85.5743,37.41289 85.27071,37.45337 84.91651,37.49385 84.52184,37.51409 84.06645,37.52421 
			83.55034,37.51409 82.98363,37.48373 82.51812,37.43313 82.05261,37.33194 81.5871,37.18014 81.12159,36.97774 80.67632,36.73487 
			80.25128,36.43127 79.8465,36.07708 79.47206,35.67215 79.13811,35.2169 78.85475,34.71091 78.61188,34.1442 78.42972,33.52689 
			78.30828,32.84887 78.26781,32.13036 78.28805,31.34101 78.39936,30.50107 78.48032,30.08616 78.5714,29.68137 78.6726,29.2867 
			78.7738,28.91226 78.88511,28.55807 79.01667,28.20388 79.14822,27.86992 79.2899,27.55621 79.4417,27.2425 79.5935,26.94902 
			79.76553,26.66567 79.94769,26.40255 80.12984,26.14956 80.33224,25.90668 80.53464,25.68405 80.74715,25.47153 
			80.97991,25.26913 81.21267,25.07686 81.45554,24.90482 81.70853,24.7429 81.98177,24.59111 82.255,24.45955 82.53836,24.33811 
			82.83183,24.2268 83.14555,24.1256 83.45926,24.04464 83.7831,23.9738 84.12717,23.91308 84.47124,23.86234 84.83556,23.822 
			85.19987,23.80176 85.58442,23.79165 85.90825,23.80176 86.22196,23.822 86.52556,23.85222 86.82915,23.89284 87.11251,23.93332 
			87.38574,23.99404 87.64886,24.04464 87.89173,24.10536 88.12449,24.16608 88.32688,24.2268 88.51916,24.28752 88.68108,24.34823 
			88.82275,24.39883 88.94419,24.43931 89.03527,24.47979 89.09599,24.50003 		"/>
		<g>
			<g>
				<polyline class="st18" points="88.59,27.30322 88.59,27.30322 88.45844,27.23238 88.32688,27.17166 88.1852,27.10082 
					88.03341,27.02998 87.88161,26.96926 87.70958,26.90854 87.53754,26.84782 87.35538,26.78711 87.16311,26.73651 
					86.97083,26.69603 86.75832,26.65555 86.5458,26.62519 86.31304,26.60495 86.08029,26.58471 85.83741,26.58471 
					85.58442,26.58471 85.58442,26.58471 85.33142,26.58471 85.06831,26.60495 84.79507,26.63531 84.51172,26.68591 
					84.22836,26.76686 83.94501,26.87818 83.66166,27.01986 83.3783,27.20202 83.10506,27.42465 82.84195,27.68777 
					82.58896,28.0116 82.34608,28.38603 82.12345,28.8313 81.91093,29.33729 81.71866,29.904 81.55674,30.55167 81.55674,30.55167 
					81.49602,30.91598 81.45554,31.27018 81.4353,31.62437 81.44542,31.96844 81.47578,32.31252 81.54662,32.63635 
					81.6377,32.93994 81.74902,33.24353 81.90081,33.51677 82.08297,33.77988 82.29549,34.01264 82.53836,34.22515 
					82.81159,34.40717 83.12531,34.55911 83.46938,34.69067 83.85394,34.78175 83.85394,34.78175 83.98549,34.8121 
					84.13729,34.84246 84.31944,34.86271 84.52184,34.88294 84.74448,34.90318 84.97723,34.90318 85.23022,34.90318 
					85.48322,34.88294 85.74634,34.85258 86.00945,34.80198 86.26244,34.73115 86.51544,34.65019 86.76843,34.53887 
					87.00119,34.40717 87.21371,34.2454 87.4161,34.06324 86.96071,36.76522 86.96071,36.76522 86.89999,36.81582 
					86.83927,36.87654 86.75832,36.94738 86.66724,37.0081 86.55592,37.08906 86.41424,37.1599 86.25233,37.23074 
					86.07017,37.29145 85.83741,37.36229 85.5743,37.41289 85.27071,37.45337 84.91651,37.49385 84.52184,37.51409 
					84.06645,37.52421 83.55034,37.51409 82.98363,37.48373 82.98363,37.48373 82.51812,37.43313 82.05261,37.33194 
					81.5871,37.18014 81.12159,36.97774 80.67632,36.73487 80.25128,36.43127 79.8465,36.07708 79.47206,35.67215 79.13811,35.2169 
					78.85475,34.71091 78.61188,34.1442 78.42972,33.52689 78.30828,32.84887 78.26781,32.13036 78.28805,31.34101 
					78.39936,30.50107 78.39936,30.50107 78.48032,30.08616 78.5714,29.68137 78.6726,29.2867 78.7738,28.91226 78.88511,28.55807 
					79.01667,28.20388 79.14822,27.86992 79.2899,27.55621 79.4417,27.2425 79.5935,26.94902 79.76553,26.66567 79.94769,26.40255 
					80.12984,26.14956 80.33224,25.90668 80.53464,25.68405 80.74715,25.47153 80.97991,25.26913 81.21267,25.07686 
					81.45554,24.90482 81.70853,24.7429 81.98177,24.59111 82.255,24.45955 82.53836,24.33811 82.83183,24.2268 83.14555,24.1256 
					83.45926,24.04464 83.7831,23.9738 84.12717,23.91308 84.47124,23.86234 84.83556,23.822 85.19987,23.80176 85.58442,23.79165 
					85.58442,23.79165 85.90825,23.80176 86.22196,23.822 86.52556,23.85222 86.82915,23.89284 87.11251,23.93332 
					87.38574,23.99404 87.64886,24.04464 87.89173,24.10536 88.12449,24.16608 88.32688,24.2268 88.51916,24.28752 
					88.68108,24.34823 88.82275,24.39883 88.94419,24.43931 89.03527,24.47979 89.09599,24.50003 88.59,27.30322 				"/>
			</g>
		</g>
		<polygon class="st2" points="113.50494,37.53433 110.70176,37.53433 110.90429,36.41089 110.90429,36.30983 110.74223,36.51209 
			110.5702,36.69439 110.39816,36.8563 110.216,36.99798 110.03385,37.12954 109.85169,37.24086 109.66954,37.33194 
			109.47726,37.42301 109.28499,37.49385 109.09271,37.54445 108.90043,37.59505 108.69804,37.62541 108.49564,37.65577 
			108.30337,37.67587 108.10097,37.68613 107.89857,37.68613 107.37234,37.64565 106.88659,37.53433 106.44132,37.36229 
			106.03653,37.12954 105.67222,36.83606 105.34838,36.49199 105.06503,36.11756 104.82215,35.69253 104.61976,35.23714 
			104.45784,34.76151 104.34653,34.26564 104.26556,33.74953 104.23521,33.23342 104.24532,32.70719 104.29592,32.19108 
			104.387,31.67497 104.5388,31.0779 104.72095,30.51119 104.93347,29.99508 105.18647,29.50933 105.44958,29.05394 
			105.75317,28.64915 106.06689,28.28483 106.40084,27.95088 106.75504,27.65741 107.12947,27.40441 107.51416,27.18178 
			107.89857,27.00974 108.30337,26.86806 108.70815,26.77699 109.11295,26.71627 109.52786,26.69603 109.82133,26.70615 
			110.10469,26.73651 110.36781,26.78711 110.61068,26.85794 110.84344,26.9389 111.04583,27.02998 111.24822,27.1413 
			111.43038,27.25261 111.5923,27.37405 111.74424,27.50561 111.87566,27.63717 111.99709,27.76872 112.09829,27.90028 
			112.18937,28.03184 112.27032,28.15328 112.33105,28.27472 112.33105,28.27472 113.03943,24.29763 115.79202,24.29763 		"/>
		<g>
			<g>
				<polyline class="st18" points="113.50494,37.53433 110.70176,37.53433 110.90429,36.41089 110.90429,36.30983 
					110.90429,36.30983 110.74223,36.51209 110.5702,36.69439 110.39816,36.8563 110.216,36.99798 110.03385,37.12954 
					109.85169,37.24086 109.66954,37.33194 109.47726,37.42301 109.28499,37.49385 109.09271,37.54445 108.90043,37.59505 
					108.69804,37.62541 108.49564,37.65577 108.30337,37.67587 108.10097,37.68613 107.89857,37.68613 107.89857,37.68613 
					107.37234,37.64565 106.88659,37.53433 106.44132,37.36229 106.03653,37.12954 105.67222,36.83606 105.34838,36.49199 
					105.06503,36.11756 104.82215,35.69253 104.61976,35.23714 104.45784,34.76151 104.34653,34.26564 104.26556,33.74953 
					104.23521,33.23342 104.24532,32.70719 104.29592,32.19108 104.387,31.67497 104.387,31.67497 104.5388,31.0779 
					104.72095,30.51119 104.93347,29.99508 105.18647,29.50933 105.44958,29.05394 105.75317,28.64915 106.06689,28.28483 
					106.40084,27.95088 106.75504,27.65741 107.12947,27.40441 107.51416,27.18178 107.89857,27.00974 108.30337,26.86806 
					108.70815,26.77699 109.11295,26.71627 109.52786,26.69603 109.52786,26.69603 109.82133,26.70615 110.10469,26.73651 
					110.36781,26.78711 110.61068,26.85794 110.84344,26.9389 111.04583,27.02998 111.24822,27.1413 111.43038,27.25261 
					111.5923,27.37405 111.74424,27.50561 111.87566,27.63717 111.99709,27.76872 112.09829,27.90028 112.18937,28.03184 
					112.27032,28.15328 112.33105,28.27472 112.33105,28.27472 113.03943,24.29763 115.79202,24.29763 113.50494,37.53433 				"/>
			</g>
		</g>
		<polygon class="st16" points="108.92067,35.08534 109.20417,35.0651 109.46714,35.00438 109.71001,34.9334 109.94277,34.82222 
			110.15529,34.70079 110.35768,34.54899 110.54996,34.37695 110.72199,34.1948 110.87379,33.9924 111.01547,33.76976 
			111.14703,33.53701 111.25835,33.29414 111.35954,33.04114 111.4405,32.77803 111.51134,32.50479 111.56194,32.23156 
			111.61254,31.9482 111.6429,31.65473 111.6429,31.38149 111.63277,31.09814 111.60242,30.83502 111.56194,30.58203 
			111.4911,30.33915 111.41014,30.1064 111.30908,29.904 111.18751,29.71173 111.05595,29.54981 110.90429,29.40813 
			110.73212,29.2867 110.54996,29.20574 110.35768,29.15514 110.14516,29.1349 109.87193,29.15514 109.61908,29.19562 
			109.38618,29.27658 109.15343,29.37777 108.95103,29.50933 108.74863,29.67125 108.5766,29.84328 108.40456,30.03556 
			108.25276,30.2582 108.11109,30.49095 107.97953,30.73383 107.86821,30.99694 107.76701,31.27018 107.68606,31.54341 
			107.60509,31.83688 107.54452,32.13036 107.49378,32.57563 107.51416,33.06138 107.58486,33.55725 107.71642,34.03288 
			107.91882,34.44779 108.18193,34.78175 108.51588,35.00438 		"/>
		<polygon class="st2" points="46.77499,35.28773 46.3702,37.53433 43.82001,37.53433 43.89085,37.11942 43.94145,36.74499 
			43.98193,36.46163 44.02241,36.30983 43.88073,36.47175 43.71881,36.63367 43.52668,36.78547 43.31416,36.92714 
			43.07115,37.06882 42.81815,37.19026 42.55504,37.3117 42.2818,37.41289 41.98833,37.50397 41.69485,37.57481 41.40138,37.63553 
			41.09779,37.67587 40.80431,37.69625 40.51084,37.70637 40.22749,37.67587 39.95425,37.63553 39.60006,37.54445 
			39.27622,37.44325 38.99301,37.3117 38.73988,37.1599 38.51724,36.99798 38.31484,36.81582 38.15306,36.62355 38.01125,36.42115 
			37.88981,36.20864 37.78861,35.98586 37.70766,35.76337 37.64693,35.54073 37.60646,35.30798 37.5761,35.07522 37.55586,34.85258 
			37.55586,34.62995 37.58622,34.23528 37.64693,33.86084 37.74813,33.50665 37.87969,33.16258 38.04161,32.83875 
			38.22377,32.54527 38.43628,32.26192 38.67929,32.00892 38.93215,31.77617 39.21564,31.56365 39.50898,31.37137 
			39.81257,31.20946 40.13641,31.06778 40.4705,30.95646 40.81443,30.86538 41.16862,30.80466 41.18887,30.80466 41.23946,30.79454 
			41.31044,30.78443 41.42176,30.77431 41.54306,30.75406 41.68473,30.74395 41.83653,30.72371 42.00857,30.70347 
			42.18061,30.68323 42.35264,30.66299 42.5348,30.65287 42.69672,30.63263 42.85863,30.62251 43.01043,30.61239 43.15211,30.60227 
			43.26342,30.60227 43.49618,30.60227 43.7392,30.61239 43.96169,30.62251 44.18433,30.62251 44.36648,30.63263 44.50816,30.64275 
			44.60936,30.65287 44.63972,30.65287 44.65996,30.58203 44.72068,30.39987 44.77127,30.18736 44.79165,29.99508 
			44.75103,29.77245 44.65996,29.57005 44.53852,29.38789 44.3766,29.2361 44.18433,29.10454 43.97181,29.01346 43.72894,28.95274 
			43.46582,28.9325 43.18246,28.92238 42.87887,28.91226 42.56516,28.91226 42.24133,28.92238 41.90737,28.94262 41.58354,28.97298 
			41.2597,29.00334 40.94599,29.04382 40.6424,29.0843 40.34892,29.1349 40.08581,29.1855 39.84307,29.2361 39.6203,29.29681 
			39.43814,29.35753 39.29646,29.42837 39.18515,29.48909 39.90365,27.05022 40.12629,26.95914 40.34892,26.87818 40.5918,26.80734 
			40.83467,26.75675 41.07755,26.70615 41.34066,26.66567 41.60378,26.62519 41.87701,26.60495 42.16051,26.58471 
			42.45384,26.57459 42.75743,26.56447 43.07115,26.56447 43.39498,26.56447 43.72894,26.56447 44.08313,26.57459 
			44.43732,26.58471 44.72068,26.60495 45.02427,26.65555 45.33798,26.72639 45.66182,26.81746 45.97553,26.9389 46.27913,27.08058 
			46.58272,27.25261 46.86607,27.44489 47.11907,27.66753 47.3417,27.9104 47.5441,28.18364 47.6959,28.48723 47.79709,28.81106 
			47.85781,29.15514 47.85781,29.53969 47.79709,29.94448 		"/>
		<g>
			<g>
				<polyline class="st18" points="46.77499,35.28773 46.3702,37.53433 43.82001,37.53433 43.82001,37.53433 43.89085,37.11942 
					43.94145,36.74499 43.98193,36.46163 44.02241,36.30983 44.02241,36.30983 43.88073,36.47175 43.71881,36.63367 
					43.52668,36.78547 43.31416,36.92714 43.07115,37.06882 42.81815,37.19026 42.55504,37.3117 42.2818,37.41289 
					41.98833,37.50397 41.69485,37.57481 41.40138,37.63553 41.09779,37.67587 40.80431,37.69625 40.51084,37.70637 
					40.22749,37.67587 39.95425,37.63553 39.95425,37.63553 39.60006,37.54445 39.27622,37.44325 38.99301,37.3117 
					38.73988,37.1599 38.51724,36.99798 38.31484,36.81582 38.15306,36.62355 38.01125,36.42115 37.88981,36.20864 
					37.78861,35.98586 37.70766,35.76337 37.64693,35.54073 37.60646,35.30798 37.5761,35.07522 37.55586,34.85258 
					37.55586,34.62995 37.55586,34.62995 37.58622,34.23528 37.64693,33.86084 37.74813,33.50665 37.87969,33.16258 
					38.04161,32.83875 38.22377,32.54527 38.43628,32.26192 38.67929,32.00892 38.93215,31.77617 39.21564,31.56365 
					39.50898,31.37137 39.81257,31.20946 40.13641,31.06778 40.4705,30.95646 40.81443,30.86538 41.16862,30.80466 
					41.16862,30.80466 41.18887,30.80466 41.23946,30.79454 41.31044,30.78443 41.42176,30.77431 41.54306,30.75406 
					41.68473,30.74395 41.83653,30.72371 42.00857,30.70347 42.18061,30.68323 42.35264,30.66299 42.5348,30.65287 
					42.69672,30.63263 42.85863,30.62251 43.01043,30.61239 43.15211,30.60227 43.26342,30.60227 43.26342,30.60227 
					43.49618,30.60227 43.7392,30.61239 43.96169,30.62251 44.18433,30.62251 44.36648,30.63263 44.50816,30.64275 
					44.60936,30.65287 44.63972,30.65287 44.63972,30.65287 44.65996,30.58203 44.72068,30.39987 44.77127,30.18736 
					44.79165,29.99508 44.79165,29.99508 44.75103,29.77245 44.65996,29.57005 44.53852,29.38789 44.3766,29.2361 
					44.18433,29.10454 43.97181,29.01346 43.72894,28.95274 43.46582,28.9325 43.46582,28.9325 43.18246,28.92238 
					42.87887,28.91226 42.56516,28.91226 42.24133,28.92238 41.90737,28.94262 41.58354,28.97298 41.2597,29.00334 
					40.94599,29.04382 40.6424,29.0843 40.34892,29.1349 40.08581,29.1855 39.84307,29.2361 39.6203,29.29681 39.43814,29.35753 
					39.29646,29.42837 39.18515,29.48909 39.90365,27.05022 39.90365,27.05022 40.12629,26.95914 40.34892,26.87818 
					40.5918,26.80734 40.83467,26.75675 41.07755,26.70615 41.34066,26.66567 41.60378,26.62519 41.87701,26.60495 
					42.16051,26.58471 42.45384,26.57459 42.75743,26.56447 43.07115,26.56447 43.39498,26.56447 43.72894,26.56447 
					44.08313,26.57459 44.43732,26.58471 44.43732,26.58471 44.72068,26.60495 45.02427,26.65555 45.33798,26.72639 
					45.66182,26.81746 45.97553,26.9389 46.27913,27.08058 46.58272,27.25261 46.86607,27.44489 47.11907,27.66753 47.3417,27.9104 
					47.5441,28.18364 47.6959,28.48723 47.79709,28.81106 47.85781,29.15514 47.85781,29.53969 47.79709,29.94448 
					46.77499,35.28773 				"/>
			</g>
		</g>
		<polygon class="st17" points="44.33612,32.64647 44.326,32.59587 44.28552,32.54527 44.2248,32.51491 44.12361,32.49467 
			44.01229,32.47443 43.88073,32.46431 43.72894,32.46431 43.57714,32.46431 43.41522,32.47443 43.24318,32.49467 
			43.08127,32.51491 42.91935,32.53515 42.76756,32.55539 42.62588,32.58575 42.50444,32.61611 42.39312,32.64647 
			42.32228,32.66671 42.24133,32.69707 42.13,32.73755 42.01869,32.78814 41.88713,32.84887 41.75557,32.9197 41.6139,32.99054 
			41.48234,33.0715 41.34066,33.1727 41.20924,33.2739 41.08767,33.39533 40.97635,33.51677 40.87515,33.64833 40.80431,33.79 
			40.7436,33.95192 40.71323,34.11384 40.70311,34.45791 40.75372,34.73115 40.85491,34.9334 40.98647,35.08534 41.13827,35.18654 
			41.31044,35.24726 41.47222,35.27761 41.63428,35.28773 41.93773,35.27761 42.21096,35.24726 42.47422,35.20678 
			42.70684,35.14592 42.90923,35.07522 43.10151,34.98414 43.27354,34.89306 43.42534,34.78175 43.5569,34.68055 43.67834,34.55911 
			43.77953,34.44779 43.86049,34.32635 43.93133,34.20492 43.99205,34.08348 44.04265,33.97216 44.07301,33.86084 
			44.15396,33.56737 44.2248,33.23342 44.28552,32.90958 		"/>
		<polygon class="st2" points="25.48294,37.53433 22.73035,37.53433 25.02755,24.24704 29.81421,24.24704 30.2696,32.13036 
			33.57878,24.24704 38.5781,24.24704 36.23016,37.53433 33.47758,37.53433 35.21819,27.60681 35.10687,27.60681 30.98811,37.53433 
			27.88133,37.53433 27.86109,37.11942 27.79025,36.01636 27.69917,34.44779 27.59798,32.64647 27.49678,30.83502 27.4057,29.24622 
			27.33486,28.09256 27.31462,27.60681 27.28426,27.60681 27.22355,27.60681 27.16283,27.60681 27.16283,27.60681 		"/>
		<g>
			<g>
				<polyline class="st18" points="25.48294,37.53433 22.73035,37.53433 25.02755,24.24704 29.81421,24.24704 30.2696,32.13036 
					33.57878,24.24704 38.5781,24.24704 36.23016,37.53433 33.47758,37.53433 35.21819,27.60681 35.10687,27.60681 
					30.98811,37.53433 27.88133,37.53433 27.88133,37.53433 27.86109,37.11942 27.79025,36.01636 27.69917,34.44779 
					27.59798,32.64647 27.49678,30.83502 27.4057,29.24622 27.33486,28.09256 27.31462,27.60681 27.31462,27.60681 
					27.28426,27.60681 27.22355,27.60681 27.16283,27.60681 27.16283,27.60681 25.48294,37.53433 				"/>
			</g>
		</g>
		<polygon class="st2" points="96.99969,35.28773 96.58478,37.53433 94.04471,37.53433 94.06495,37.11942 94.07507,36.7551 
			94.07507,36.48187 94.09517,36.36043 93.96361,36.51209 93.81181,36.66403 93.6298,36.80571 93.42726,36.94738 93.21489,37.07894 
			92.97187,37.20038 92.71887,37.32182 92.46588,37.42301 92.19265,37.50397 91.90943,37.58493 91.62594,37.63553 
			91.34258,37.67587 91.04911,37.69625 90.76575,37.70637 90.49252,37.67587 90.21928,37.63553 89.85497,37.54445 
			89.53114,37.44325 89.24779,37.3117 88.98467,37.1599 88.76203,36.99798 88.56976,36.81582 88.40784,36.62355 88.26617,36.42115 
			88.14473,36.20864 88.05365,35.98586 87.97269,35.76337 87.92209,35.54073 87.88161,35.30798 87.85125,35.07522 
			87.83102,34.85258 87.83102,34.62995 87.85125,34.23528 87.91197,33.86084 88.00305,33.50665 88.13461,33.16258 
			88.28641,32.83875 88.47868,32.54527 88.69119,32.26192 88.92395,32.00892 89.18707,31.77617 89.4603,31.56365 89.75378,31.37137 
			90.06749,31.20946 90.3812,31.06778 90.71516,30.95646 91.04911,30.86538 91.39318,30.80466 91.41342,30.80466 91.46402,30.79454 
			91.53486,30.78443 91.63605,30.77431 91.76762,30.75406 91.90943,30.74395 92.06109,30.72371 92.22301,30.70347 
			92.39518,30.68323 92.5772,30.66299 92.74924,30.65287 92.92127,30.63263 93.08319,30.62251 93.22501,30.61239 93.36655,30.60227 
			93.47786,30.60227 93.72073,30.60227 93.96361,30.61239 94.19637,30.62251 94.419,30.62251 94.61127,30.63263 94.77319,30.64275 
			94.86441,30.65287 94.90489,30.65287 94.925,30.58203 94.95535,30.39987 94.98571,30.18736 95.00595,29.99508 94.96547,29.77245 
			94.88465,29.57005 94.75295,29.38789 94.60116,29.2361 94.419,29.10454 94.20649,29.01346 93.98385,28.95274 93.74097,28.9325 
			93.45762,28.92238 93.15403,28.91226 92.84032,28.91226 92.51648,28.92238 92.18253,28.94262 91.8587,28.97298 91.53486,29.00334 
			91.22115,29.04382 90.91755,29.0843 90.62408,29.1349 90.36096,29.1855 90.11809,29.2361 89.89545,29.29681 89.71329,29.35753 
			89.57162,29.42837 89.4603,29.48909 90.16869,27.05022 90.39132,26.95914 90.62408,26.87818 90.85683,26.80734 91.09971,26.75675 
			91.3527,26.70615 91.6057,26.66567 91.86881,26.62519 92.14204,26.60495 92.4254,26.58471 92.71887,26.57459 93.01235,26.56447 
			93.32607,26.56447 93.63992,26.56447 93.96361,26.56447 94.30769,26.57459 94.65176,26.58471 94.93511,26.60495 
			95.23871,26.65555 95.55242,26.72639 95.87625,26.81746 96.18996,26.9389 96.50368,27.08058 96.80727,27.25261 97.09063,27.44489 
			97.34362,27.66753 97.57638,27.9104 97.77878,28.18364 97.93057,28.48723 98.04189,28.81106 98.11272,29.15514 98.11272,29.53969 
			98.06213,29.94448 		"/>
		<polygon class="st2" points="96.58478,37.60517 96.64536,37.54445 97.06027,35.29786 96.93884,35.27761 96.52392,37.52421 
			96.58478,37.46335 96.58478,37.60517 96.63524,37.59505 96.64536,37.54445 		"/>
		<polygon class="st2" points="93.98385,37.53433 94.04471,37.60517 96.58478,37.60517 96.58478,37.46335 94.04471,37.46335 
			94.10529,37.53433 93.98385,37.53433 93.97373,37.60517 94.04471,37.60517 		"/>
		<polygon class="st2" points="94.14577,36.40091 94.05483,36.31995 94.01421,36.48187 94.00409,36.7551 94.00409,37.11942 
			93.98385,37.53433 94.10529,37.53433 94.12553,37.11942 94.14577,36.7551 94.13565,36.48187 94.13565,36.40091 94.04471,36.31995 
					"/>
		<polygon class="st2" points="90.20917,37.69625 90.20917,37.69625 90.49252,37.73672 90.76575,37.76709 91.04911,37.75697 
			91.34258,37.73672 91.63605,37.69625 91.91956,37.64565 92.20277,37.56455 92.48612,37.48373 92.73911,37.38253 93.00223,37.2611 
			93.2451,37.13966 93.45762,36.99798 93.67014,36.8563 93.85229,36.71463 94.01421,36.55271 94.14577,36.40091 94.04471,36.31995 
			93.91301,36.47175 93.77133,36.61343 93.58918,36.7551 93.3969,36.89678 93.18452,37.01822 92.94151,37.13966 92.69864,37.2611 
			92.44564,37.36229 92.18253,37.44325 91.89917,37.52421 91.61581,37.57481 91.34258,37.61529 91.04911,37.63553 
			90.76575,37.64565 90.49252,37.61529 90.22941,37.57481 90.22941,37.57481 		"/>
		<polygon class="st2" points="87.76018,34.62995 87.76018,34.62995 87.77029,34.85258 87.79053,35.07522 87.82089,35.3181 
			87.86137,35.55085 87.91197,35.77349 87.99293,36.00624 88.08401,36.23899 88.21557,36.45151 88.35725,36.66403 88.51916,36.8563 
			88.72156,37.04858 88.95431,37.21049 89.21742,37.37241 89.5109,37.50397 89.84486,37.60517 90.20917,37.69625 90.22941,37.57481 
			89.86509,37.48373 89.55138,37.38253 89.27814,37.25084 89.01503,37.1093 88.80251,36.94738 88.62036,36.77534 88.45844,36.58307 
			88.31676,36.39079 88.20544,36.17828 88.11436,35.96576 88.03341,35.75325 87.98281,35.53061 87.94233,35.29786 
			87.91197,35.07522 87.89173,34.85258 87.90186,34.62995 87.90186,34.62995 		"/>
		<polygon class="st2" points="91.39318,30.74395 91.39318,30.74395 91.03899,30.80466 90.69492,30.89574 90.36096,31.00706 
			90.03713,31.14874 89.72342,31.31065 89.41982,31.51305 89.14658,31.72557 88.88347,31.96844 88.64059,32.22144 
			88.42808,32.50479 88.22569,32.80838 88.07389,33.14234 87.94233,33.48641 87.85125,33.85072 87.79053,34.23528 
			87.76018,34.62995 87.90186,34.62995 87.91197,34.23528 87.97269,33.87096 88.06377,33.52689 88.19533,33.18282 88.34712,32.8691 
			88.52928,32.58575 88.7418,32.30239 88.96443,32.0494 89.22755,31.82676 89.50078,31.61425 89.78413,31.43209 90.09785,31.27018 
			90.40144,31.1285 90.7354,31.01718 91.05923,30.9261 91.39318,30.86538 91.39318,30.86538 		"/>
		<polygon class="st2" points="93.47786,30.53143 93.47786,30.53143 93.36655,30.53143 93.22501,30.55167 93.08319,30.56179 
			92.92127,30.57191 92.74924,30.59215 92.5772,30.60227 92.39518,30.62251 92.22301,30.64275 92.06109,30.66299 91.90943,30.68323 
			91.76762,30.69335 91.63605,30.71359 91.53486,30.72371 91.4539,30.73383 91.41342,30.74395 91.39318,30.74395 91.39318,30.86538 
			91.41342,30.86538 91.47414,30.85526 91.53486,30.84514 91.63605,30.83502 91.76762,30.81479 91.90943,30.80466 
			92.06109,30.78443 92.22301,30.76418 92.39518,30.74395 92.5772,30.72371 92.74924,30.71359 92.92127,30.69335 93.08319,30.68323 
			93.22501,30.67311 93.36655,30.67311 93.47786,30.67311 93.47786,30.67311 		"/>
		<polygon class="st2" points="94.84403,30.64275 94.90489,30.59215 94.86441,30.59215 94.77319,30.58203 94.61127,30.57191 
			94.419,30.55167 94.19637,30.55167 93.96361,30.55167 93.72073,30.53143 93.47786,30.53143 93.47786,30.67311 93.72073,30.67311 
			93.96361,30.67311 94.19637,30.69335 94.419,30.69335 94.61127,30.69335 94.77319,30.70347 94.86441,30.71359 94.90489,30.71359 
			94.96547,30.66299 94.90489,30.71359 94.95535,30.72371 94.96547,30.66299 		"/>
		<polygon class="st2" points="94.94523,29.99508 94.93511,29.99508 94.925,30.18736 94.89478,30.38975 94.86441,30.57191 
			94.84403,30.64275 94.96547,30.66299 94.98571,30.59215 95.01607,30.40999 95.04643,30.18736 95.07679,29.99508 
			95.06667,29.99508 		"/>
		<polygon class="st2" points="93.74097,28.99322 93.74097,29.00334 93.97373,29.01346 94.18625,29.07418 94.38864,29.16526 
			94.56068,29.2867 94.70235,29.42837 94.82379,29.60041 94.90489,29.78256 94.94523,29.99508 95.06667,29.99508 95.02619,29.76233 
			94.94523,29.53969 94.80355,29.34741 94.64164,29.1855 94.4495,29.04382 94.22672,28.95274 93.99397,28.89202 93.74097,28.86166 
			93.74097,28.87178 		"/>
		<polygon class="st2" points="89.39958,29.47897 89.50078,29.53969 89.60197,29.48909 89.73354,29.41825 89.90557,29.35753 
			90.1282,29.29681 90.37109,29.24622 90.6342,29.19562 90.92767,29.14502 91.22115,29.10454 91.53486,29.06406 91.8587,29.0337 
			92.18253,29.00334 92.51648,28.9831 92.84032,28.9831 93.15403,28.9831 93.45762,28.9831 93.74097,28.99322 93.74097,28.87178 
			93.45762,28.86166 93.15403,28.84142 92.84032,28.84142 92.51648,28.86166 92.18253,28.8819 91.8587,28.91226 91.53486,28.94262 
			91.22115,28.9831 90.90743,29.02358 90.61396,29.07418 90.35085,29.12478 90.10797,29.17538 89.88533,29.2361 89.69305,29.29681 
			89.54126,29.36765 89.41982,29.43849 89.52102,29.49921 		"/>
		<polygon class="st2" points="90.14845,26.9895 90.10797,27.0401 89.39958,29.47897 89.52102,29.49921 90.22941,27.06034 
			90.18893,27.11094 90.14845,26.9895 90.11809,26.99962 90.10797,27.0401 		"/>
		<polygon class="st2" points="94.65176,26.52399 94.65176,26.52399 94.30769,26.50375 93.96361,26.49363 93.63992,26.49363 
			93.32607,26.49363 93.01235,26.49363 92.71887,26.51387 92.4254,26.52399 92.14204,26.54423 91.86881,26.56447 91.59558,26.60495 
			91.34258,26.64543 91.08959,26.69603 90.84671,26.74663 90.60384,26.81746 90.37109,26.89842 90.14845,26.9895 90.18893,27.11094 
			90.41156,27.01986 90.64432,26.9389 90.86695,26.86806 91.10983,26.81746 91.36282,26.76686 91.61581,26.72639 91.86881,26.68591 
			92.14204,26.66567 92.4254,26.64543 92.71887,26.63531 93.01235,26.63531 93.32607,26.63531 93.63992,26.63531 93.96361,26.63531 
			94.30769,26.64543 94.65176,26.64543 94.65176,26.64543 		"/>
		<polygon class="st2" points="98.12285,29.9546 98.12285,29.9546 98.17345,29.53969 98.17345,29.15514 98.10261,28.80095 
			97.99129,28.46699 97.82951,28.15328 97.62698,27.86992 97.3841,27.61693 97.13111,27.39429 96.83763,27.20202 96.53404,27.01986 
			96.21021,26.87818 95.89649,26.75675 95.56254,26.66567 95.24883,26.59483 94.93511,26.54423 94.65176,26.52399 
			94.65176,26.64543 94.93511,26.66567 95.22858,26.71627 95.5423,26.78711 95.85601,26.87818 96.16987,26.99962 96.47332,27.1413 
			96.77692,27.30322 97.05015,27.49549 97.30315,27.71813 97.52578,27.95088 97.72817,28.214 97.86985,28.50747 97.98117,28.82118 
			98.05201,29.15514 98.05201,29.53969 98.00141,29.93436 98.00141,29.93436 		"/>
		<polygon class="st2" points="97.06027,35.29786 97.06027,35.29786 98.12285,29.9546 98.00141,29.93436 96.93884,35.27761 
			96.93884,35.27761 		"/>
		<polygon class="st16" points="94.55056,32.64647 94.53032,32.58575 94.48998,32.53515 94.419,32.50479 94.3178,32.47443 
			94.20649,32.46431 94.07507,32.45419 93.92313,32.45419 93.77133,32.46431 93.60956,32.48455 93.4475,32.50479 93.28558,32.52503 
			93.13379,32.54527 92.98199,32.57563 92.85043,32.59587 92.71887,32.62623 92.61768,32.64647 92.54684,32.65659 
			92.46588,32.68695 92.36482,32.71731 92.25336,32.75779 92.12181,32.8185 92.00037,32.87922 91.8587,32.95006 91.72713,33.04114 
			91.59558,33.13222 91.46402,33.24353 91.3527,33.35485 91.24139,33.48641 91.15031,33.62809 91.07947,33.77988 91.01875,33.9418 
			90.98839,34.11384 90.97827,34.45791 91.02887,34.73115 91.10983,34.9334 91.23126,35.08534 91.38306,35.18654 91.5551,35.24726 
			91.72713,35.27761 91.89917,35.28773 92.20277,35.27761 92.48612,35.24726 92.74924,35.19666 92.98199,35.12582 
			93.20477,35.04486 93.3969,34.95378 93.57906,34.85258 93.74097,34.73115 93.88265,34.61969 94.00409,34.48827 94.11541,34.36683 
			94.20649,34.23528 94.27732,34.11384 94.32793,33.9924 94.3684,33.87096 94.39877,33.75964 94.43938,33.47629 94.48998,33.18282 
			94.53032,32.89946 		"/>
		<polygon class="st2" points="97.75854,37.53433 100.61232,37.53433 100.61232,37.53433 101.63456,31.77617 101.6749,31.55353 
			101.73562,31.33089 101.79633,31.10826 101.8773,30.88562 101.97849,30.66299 102.09993,30.45047 102.23148,30.24808 
			102.3934,30.0558 102.57556,29.88376 102.77795,29.72185 103.01071,29.57005 103.27383,29.44861 103.5673,29.34741 
			103.89114,29.26645 104.24532,29.20574 104.64,29.1855 104.78168,29.1855 104.86263,29.1855 104.89299,29.1855 104.89299,29.1855 
			105.34838,26.58471 105.06503,26.60495 104.79179,26.63531 104.5388,26.68591 104.29592,26.75675 104.07329,26.8377 
			103.86077,26.9389 103.65838,27.05022 103.4661,27.17166 103.28394,27.31333 103.11191,27.45501 102.94999,27.61693 
			102.78808,27.77884 102.63628,27.95088 102.48462,28.14316 102.33269,28.32531 102.19101,28.52771 102.49474,26.69603 
			99.65094,26.69603 97.75854,37.53433 		"/>
		<g>
			<g>
				<polyline class="st18" points="97.75854,37.53433 100.61232,37.53433 100.61232,37.53433 101.63456,31.77617 
					101.63456,31.77617 101.6749,31.55353 101.73562,31.33089 101.79633,31.10826 101.8773,30.88562 101.97849,30.66299 
					102.09993,30.45047 102.23148,30.24808 102.3934,30.0558 102.57556,29.88376 102.77795,29.72185 103.01071,29.57005 
					103.27383,29.44861 103.5673,29.34741 103.89114,29.26645 104.24532,29.20574 104.64,29.1855 104.64,29.1855 104.78168,29.1855 
					104.86263,29.1855 104.89299,29.1855 104.89299,29.1855 105.34838,26.58471 105.34838,26.58471 105.06503,26.60495 
					104.79179,26.63531 104.5388,26.68591 104.29592,26.75675 104.07329,26.8377 103.86077,26.9389 103.65838,27.05022 
					103.4661,27.17166 103.28394,27.31333 103.11191,27.45501 102.94999,27.61693 102.78808,27.77884 102.63628,27.95088 
					102.48462,28.14316 102.33269,28.32531 102.19101,28.52771 102.49474,26.69603 99.65094,26.69603 97.75854,37.53433 
					97.75854,37.53433 				"/>
			</g>
		</g>
		<polygon class="st2" points="70.96131,37.53433 73.81509,37.53433 73.86569,37.53433 74.8372,31.77617 74.87767,31.55353 
			74.92827,31.34101 74.97887,31.1285 75.04971,30.9261 75.13067,30.72371 75.23186,30.53143 75.3533,30.34927 75.49498,30.17724 
			75.6569,30.02544 75.83905,29.87364 76.06169,29.7522 76.30457,29.64089 76.58792,29.54981 76.90163,29.46885 77.2457,29.41825 
			77.64038,29.38789 77.67074,29.38789 77.71121,29.39801 77.76182,29.40813 77.81242,29.40813 77.86301,29.41825 
			77.90349,29.42837 77.93385,29.43849 77.94397,29.43849 77.95409,29.39801 77.98445,29.27658 78.02493,29.09442 
			78.07553,28.87178 78.14637,28.60867 78.21721,28.32531 78.30828,28.04196 78.39936,27.75861 78.48032,27.56633 
			78.58152,27.37405 78.68272,27.18178 78.78391,27.00974 78.87499,26.85794 78.94583,26.73651 78.99643,26.66567 
			79.01667,26.63531 79.00655,26.63531 78.96607,26.62519 78.91547,26.61507 78.84464,26.60495 78.7738,26.60495 78.69283,26.59483 
			78.62199,26.58471 78.55116,26.58471 78.23744,26.60495 77.95409,26.63531 77.69098,26.68591 77.4481,26.74663 77.21535,26.82758 
			77.00283,26.92878 76.81055,27.02998 76.6284,27.15142 76.45636,27.28297 76.29444,27.43477 76.14265,27.58657 75.99085,27.75861 
			75.83905,27.93064 75.69737,28.12292 75.54558,28.32531 75.39378,28.52771 75.75809,26.69603 72.85371,26.69603 
			70.96131,37.53433 		"/>
		<g>
			<g>
				<polyline class="st18" points="70.96131,37.53433 73.81509,37.53433 73.86569,37.53433 74.8372,31.77617 74.8372,31.77617 
					74.87767,31.55353 74.92827,31.34101 74.97887,31.1285 75.04971,30.9261 75.13067,30.72371 75.23186,30.53143 75.3533,30.34927 
					75.49498,30.17724 75.6569,30.02544 75.83905,29.87364 76.06169,29.7522 76.30457,29.64089 76.58792,29.54981 
					76.90163,29.46885 77.2457,29.41825 77.64038,29.38789 77.64038,29.38789 77.67074,29.38789 77.71121,29.39801 
					77.76182,29.40813 77.81242,29.40813 77.86301,29.41825 77.90349,29.42837 77.93385,29.43849 77.94397,29.43849 
					77.94397,29.43849 77.95409,29.39801 77.98445,29.27658 78.02493,29.09442 78.07553,28.87178 78.14637,28.60867 
					78.21721,28.32531 78.30828,28.04196 78.39936,27.75861 78.39936,27.75861 78.48032,27.56633 78.58152,27.37405 
					78.68272,27.18178 78.78391,27.00974 78.87499,26.85794 78.94583,26.73651 78.99643,26.66567 79.01667,26.63531 
					79.01667,26.63531 79.00655,26.63531 78.96607,26.62519 78.91547,26.61507 78.84464,26.60495 78.7738,26.60495 
					78.69283,26.59483 78.62199,26.58471 78.55116,26.58471 78.55116,26.58471 78.23744,26.60495 77.95409,26.63531 
					77.69098,26.68591 77.4481,26.74663 77.21535,26.82758 77.00283,26.92878 76.81055,27.02998 76.6284,27.15142 
					76.45636,27.28297 76.29444,27.43477 76.14265,27.58657 75.99085,27.75861 75.83905,27.93064 75.69737,28.12292 
					75.54558,28.32531 75.39378,28.52771 75.75809,26.69603 72.85371,26.69603 70.96131,37.53433 70.96131,37.53433 				"/>
			</g>
		</g>
	</g>
</g>
<g id="lines">
</g>
</svg>
