<?xml version="1.0" encoding="utf-8"?>
<!-- Generator: Adobe Illustrator 19.2.1, SVG Export Plug-In . SVG Version: 6.00 Build 0)  -->
<svg version="1.1" xmlns="http://www.w3.org/2000/svg" xmlns:xlink="http://www.w3.org/1999/xlink" x="0px" y="0px" width="140px"
	 height="60px" viewBox="0 0 140 60" style="enable-background:new 0 0 140 60;" xml:space="preserve">
<style type="text/css">
	.st0{fill:#EDDD4F;}
	.st1{fill:#387CC6;}
	.st2{fill:#FFFFFF;}
	.st3{fill:none;stroke:#387CC6;stroke-width:2;stroke-linecap:round;stroke-linejoin:round;stroke-miterlimit:10;}
	.st4{opacity:0.3;}
	.st5{clip-path:url(#SVGID_2_);}
	.st6{clip-path:url(#SVGID_4_);fill-rule:evenodd;clip-rule:evenodd;}
	.st7{clip-path:url(#SVGID_4_);fill-rule:evenodd;clip-rule:evenodd;fill:#231F20;}
	.st8{clip-path:url(#SVGID_6_);}
	.st9{clip-path:url(#SVGID_8_);}
	.st10{clip-path:url(#SVGID_8_);fill:none;stroke:#000000;stroke-width:0.728;stroke-linejoin:bevel;}
	.st11{clip-path:url(#SVGID_8_);fill:none;stroke:#000000;stroke-width:0.894;stroke-linejoin:bevel;}
	.st12{clip-path:url(#SVGID_8_);fill:none;stroke:#000000;stroke-width:1.457;stroke-linejoin:bevel;}
	.st13{clip-path:url(#SVGID_8_);fill:none;stroke:#000000;stroke-width:0.088;}
	.st14{fill:#231F20;}
	.st15{fill:#ADACAC;}
	.st16{fill:#686868;}
	.st17{fill:#020202;}
	.st18{fill:none;stroke:#FFFFFF;stroke-width:0.215;}
	.st19{fill:none;stroke:#387CC6;stroke-width:2;stroke-miterlimit:10;}
	.st20{fill:none;stroke:#387CC6;stroke-width:2;stroke-linecap:round;stroke-miterlimit:10;}
	.st21{fill:none;stroke:#387CC6;stroke-miterlimit:10;}
	.st22{fill:none;stroke:#387CC6;stroke-linecap:round;stroke-miterlimit:10;}
	.st23{fill:#FA3700;}
	.st24{fill:#FFFFFF;stroke:#387CC6;stroke-width:2;stroke-miterlimit:10;}
	.st25{fill:#EDDD4F;stroke:#387CC6;stroke-width:2;stroke-miterlimit:10;}
</style>
<g id="Layer_3">
</g>
<g id="colour">
	<g class="st4">
		<defs>
			<rect id="SVGID_1_" x="-338" class="st4" width="60" height="60"/>
		</defs>
		<clipPath id="SVGID_2_">
			<use xlink:href="#SVGID_1_"  style="overflow:visible;"/>
		</clipPath>
		<g class="st5">
			<g>
				<defs>
					<rect id="SVGID_3_" x="-374.19058" y="-15.89748" width="673.77173" height="1010.65759"/>
				</defs>
				<clipPath id="SVGID_4_">
					<use xlink:href="#SVGID_3_"  style="overflow:visible;"/>
				</clipPath>
			</g>
		</g>
	</g>
	<g class="st4">
		<polyline class="st14" points="24.25072,0 115.74928,0 115.74928,60 24.25072,60 24.25072,0 		"/>
		<polyline class="st2" points="26.93635,57.31417 113.06358,57.31417 113.06358,2.68583 26.93635,2.68583 26.93635,57.31417 		"/>
		<polyline points="30.61559,18.6661 109.14262,18.6661 109.14262,7.22475 30.61559,7.22475 30.61559,18.6661 		"/>
		<polyline class="st15" points="30.61559,53.20503 109.14262,53.20503 109.14262,41.76362 30.61559,41.76362 30.61559,53.20503 		
			"/>
		<path d="M58.11621,21.96957h4.02835l-10.93039,17.7529h-4.75351l-0.42971-14.04657
			c-0.01949-0.63751-0.03663-1.29708-0.27727-1.80702c-0.24065-0.50994-0.61777-0.86691-1.1194-1.11548
			c-0.50163-0.24858-1.12764-0.38876-1.74547-0.38095v-0.40287h7.84194l0.3839,12.08429L58.11621,21.96957"/>
		<polyline points="62.9234,39.72247 68.53635,21.96957 63.54111,21.96957 57.92817,39.72247 62.9234,39.72247 		"/>
		<path d="M65.82388,38.21849c0.75864,0.76957,1.73614,1.30532,3.07054,1.5693c1.33442,0.26386,3.02581,0.25593,4.62989-0.01789
			c1.60408-0.27369,3.12071-0.81329,4.19249-1.63054c1.07177-0.81726,1.69868-1.91216,2.00381-3.09772
			c0.30528-1.18554,0.28866-2.46185-0.35473-3.45782c-0.64341-0.99585-1.91371-1.71141-2.97078-2.38612
			c-1.0572-0.67472-1.90104-1.30858-2.25144-2.02191c-0.35052-0.71332-0.2076-1.50615,0.20287-2.01475
			c0.41036-0.50852,1.08827-0.73281,1.922-0.78498c0.83363-0.05215,1.8232,0.06782,2.64404,0.29774
			c0.8207,0.22991,1.47279,0.56976,2.0313,1.02894l1.66507-2.65885c-0.77303-0.55277-1.65126-0.94611-2.89165-1.2356
			c-1.24051-0.28942-2.84332-0.47491-4.2366-0.37161c-1.39329,0.10328-2.57703,0.49542-3.62581,1.18976
			c-1.04876,0.6944-1.9624,1.69108-2.47533,2.76509c-0.51295,1.07408-0.62511,2.22543-0.31083,3.221
			c0.31427,0.99559,1.05495,1.83533,1.81948,2.43732c0.76445,0.60184,1.55269,0.96605,2.24517,1.38305
			c0.69249,0.41699,1.28923,0.88692,1.60997,1.45042s0.3656,1.2207-0.02097,1.76591
			c-0.38644,0.54535-1.20434,0.97897-2.14636,1.13314c-0.94202,0.1543-2.00816,0.02914-2.99992-0.27178
			c-0.99174-0.30105-1.90897-0.77801-2.70487-1.40759L65.82388,38.21849"/>
		<path d="M84.52008,35.61319l-2.26026,4.10927h-4.02848l10.71556-17.7529h4.53867l1.53084,17.7529h-4.72672l-0.33199-4.10927
			H84.52008 M89.26124,26.99362l-3.47073,6.30984h3.98055L89.26124,26.99362"/>
	</g>
</g>
<g id="lines">
</g>
</svg>
