<?xml version="1.0" encoding="utf-8"?>
<!-- Generator: Adobe Illustrator 16.0.0, SVG Export Plug-In . SVG Version: 6.00 Build 0)  -->
<!DOCTYPE svg PUBLIC "-//W3C//DTD SVG 1.1//EN" "http://www.w3.org/Graphics/SVG/1.1/DTD/svg11.dtd">
<svg version="1.1" id="Layer_1" xmlns="http://www.w3.org/2000/svg" xmlns:xlink="http://www.w3.org/1999/xlink" x="0px" y="0px"
	 width="453.771px" height="215.653px" viewBox="-21.964 1.047 453.771 215.653"
	 enable-background="new -21.964 1.047 453.771 215.653" xml:space="preserve">
<g>
	<g>
		<ellipse fill="#776A5B" cx="104.963" cy="206.8" rx="83" ry="9.9"/>
		<g>
			
				<path fill="#E28437" stroke="#000000" stroke-width="4.4236" stroke-linecap="round" stroke-linejoin="round" stroke-miterlimit="10" d="
				M166.563,192.1c2.6-2.8,4.8-5.8,6.7-9.1l-3.5-5.8c0-0.101,0-0.101,0-0.2c0.6-5.2,0.899-10.5,0.899-15.7l-0.1-3.899l-0.1-2v-1
				v-0.5v-0.199v-0.2c0,0,0,0,0-0.101c-0.2-2.199-0.2-4.699,0-7c0.199-2.301,0.6-4.601,1.399-6.601c0.4-1,1-1.899,1.9-2.7
				c0.8-0.8,2-1.398,3.3-1.898c-1.3-0.5-2.8-0.602-4.3-0.2c-1.5,0.3-3,1.2-4.101,2.2c-2.399,2.199-3.8,5-4.699,7.699
				c-0.5,1.399-0.801,2.801-1.101,4.199c-0.3,1.4-0.399,2.801-0.5,4.4v0.2l0,0c0-0.101,0,0.1,0-0.101l0,0v0.101v0.2v0.5v1l-0.1,2
				l-0.101,3.898c0,1.102,0,2.301,0.101,3.4l-30.5-50.5L99.863,65l1-0.5c21.601-2.9,40.5-19.3,45-40.5l-9.8-9.8h-90.8
				c0,0.1,0,0.3,0,0.399l0,0v192.2h20h11.899h23.7h1.9h29.8c13.2,0,25.1-5.6,33.6-14.399"/>
			<g>
				<path fill="#E28437" d="M40.463,44.9c0,1.6,0.8,1.899,1.8,0.699l28.5-33.8c1-1.2,0.6-2.2-1-2.2h-26.4
					c-1.6,0-2.8,1.301-2.8,2.801v32.5H40.463z"/>
				
					<path fill="none" stroke="#000000" stroke-width="4.4236" stroke-linecap="round" stroke-linejoin="round" stroke-miterlimit="10" d="
					M40.463,44.9c0,1.6,0.8,1.899,1.8,0.699l28.5-33.8c1-1.2,0.6-2.2-1-2.2h-26.4c-1.6,0-2.8,1.301-2.8,2.801v32.5H40.463z"/>
			</g>
			<polyline fill="none" stroke="#000000" stroke-width="3" stroke-linecap="round" stroke-miterlimit="10" points="57.263,117.9 
				57.263,206.8 45.263,206.8 45.263,117.9 			"/>
			<polyline fill="none" stroke="#000000" stroke-width="3" stroke-linecap="round" stroke-miterlimit="10" points="74.263,117.9 
				74.263,206.8 62.263,206.8 62.263,117.9 			"/>
			<circle cx="82.063" cy="26.5" r="2.3"/>
			
				<line fill="none" stroke="#EA0A0A" stroke-width="7.2946" stroke-miterlimit="10" x1="42.363" y1="67.1" x2="105.563" y2="67.1"/>
			<path stroke="#000000" stroke-width="3" stroke-miterlimit="10" d="M147.563,13.6h-11.5l10.4,10.4
				C147.163,20.6,147.563,17.1,147.563,13.6z"/>
			
				<path fill="#E28437" stroke="#000000" stroke-width="4.4236" stroke-linecap="round" stroke-linejoin="round" stroke-miterlimit="10" d="
				M173.163,183l-41.6-68.8c-25.1,0.6-45.2,21.1-45.2,46.3c0,13.7,5.9,25.9,15.3,34.4h-1.699h-6.5c-3.101,0-5.7,2.6-5.7,5.699v0.5
				v0.101v5.7h5.7h36.899h5.7V206.8C152.063,205.5,165.763,196.3,173.163,183z"/>
			<g>
				
					<line fill="none" stroke="#000000" stroke-width="2" stroke-linecap="round" stroke-linejoin="round" stroke-miterlimit="10" x1="66.163" y1="204.8" x2="66.163" y2="200.1"/>
				
					<line fill="none" stroke="#000000" stroke-width="2" stroke-linecap="round" stroke-linejoin="round" stroke-miterlimit="10" x1="70.163" y1="204.8" x2="70.163" y2="200.1"/>
			</g>
			<g>
				
					<line fill="none" stroke="#000000" stroke-width="2" stroke-linecap="round" stroke-linejoin="round" stroke-miterlimit="10" x1="93.163" y1="205.8" x2="93.163" y2="201.1"/>
				
					<line fill="none" stroke="#000000" stroke-width="2" stroke-linecap="round" stroke-linejoin="round" stroke-miterlimit="10" x1="97.163" y1="205.8" x2="97.163" y2="201.1"/>
			</g>
			<g>
				
					<line fill="none" stroke="#000000" stroke-width="2" stroke-linecap="round" stroke-linejoin="round" stroke-miterlimit="10" x1="49.263" y1="204.8" x2="49.263" y2="200.1"/>
				
					<line fill="none" stroke="#000000" stroke-width="2" stroke-linecap="round" stroke-linejoin="round" stroke-miterlimit="10" x1="53.263" y1="204.8" x2="53.263" y2="200.1"/>
			</g>
		</g>
	</g>
	<g>
		<ellipse fill="#776A5B" cx="317.605" cy="206.8" rx="104.299" ry="9.9"/>
		
			<path fill="#BF8B30" stroke="#000000" stroke-width="5" stroke-linecap="round" stroke-linejoin="round" stroke-miterlimit="10" d="
			M284.805,194.7h-8l4.6-73.5l-12.697,7.5c0,0-16.701,37-1.602,66h-6.701h-6.5c-3.1,0-5.6,1.399-5.6,4.5v0.5v0.1v6.9h5.6h30.9h6.5
			v-6.9v-0.6v-4.5H284.805z"/>
		<g>
			<path fill="#BF8B30" d="M239.805,127.7c-11.1,0-21.7-4.3-29.6-12.101c-1.4-1.301-2.102-3.101-2.102-5s0.7-3.701,2-5.101
				s3.2-2.101,5.102-2.101c1.898,0,3.6,0.701,5,2c5.3,5.201,12.3,8,19.698,8c15.5,0,28.102-12.601,28.102-28.101
				c0-3.899,3.199-7.1,7.1-7.1s7.102,3.2,7.102,7.1C282.105,108.7,263.105,127.7,239.805,127.7z"/>
			<path d="M275.006,80.4c2.699,0,5,2.199,5,5c0,22.199-18,40.199-40.201,40.199c-10.6,0-20.5-4.1-28.1-11.5c-2-1.898-2-5.1-0.102-7
				c1-1,2.3-1.5,3.5-1.5c1.3,0,2.5,0.5,3.5,1.4c5.7,5.6,13.2,8.6,21.2,8.6c16.7,0,30.299-13.6,30.299-30.3
				C270.105,82.6,272.305,80.4,275.006,80.4 M275.006,76c-5.102,0-9.3,4.2-9.3,9.3c0,14.3-11.602,25.9-25.9,25.9
				c-6.8,0-13.3-2.601-18.1-7.4c-1.7-1.7-4.102-2.7-6.5-2.7c-2.5,0-4.9,1-6.7,2.801c-1.7,1.8-2.7,4.1-2.7,6.6s1,4.8,2.8,6.5
				c8.4,8.2,19.4,12.7,31.102,12.7c24.6,0,44.5-20,44.5-44.5C284.305,80.2,280.105,76,275.006,76L275.006,76z"/>
		</g>
		
			<path fill="#BF8B30" stroke="#000000" stroke-width="4.8712" stroke-linecap="round" stroke-linejoin="round" stroke-miterlimit="10" d="
			M351.605,98.7c-18.898-26-49.1-73.9-49.1-73.9l-16.701,10.3l-16.5,7.301V206.1h96c17.6,0,33.201-8.6,42.801-21.8
			C408.105,184.3,366.305,118.9,351.605,98.7z"/>
		<path fill="#DDAC72" d="M292.805,159.7c9.6,0,17.4,3.7,17.4,8.2s-7.801,8.199-17.4,8.199s-17.4-3.699-17.4-8.199
			C275.404,163.3,283.205,159.7,292.805,159.7z"/>
		<path fill="#BF8B30" d="M252.206,9.1c-17.4,0-24.2,12.101-14.9,26.9l22.5,36.1c9.201,14.801,24.3,14.801,33.5,0l22.5-36.1
			c9.201-14.8,2.5-26.9-14.9-26.9H252.206z"/>
		
			<path fill="none" stroke="#000000" stroke-width="5.0489" stroke-linecap="round" stroke-linejoin="round" stroke-miterlimit="10" d="
			M252.206,9.1c-17.4,0-24.2,12.101-14.9,26.9l22.5,36.1c9.201,14.801,24.3,14.801,33.5,0l22.5-36.1c9.201-14.8,2.5-26.9-14.9-26.9
			H252.206z"/>
		<path d="M266.705,49.5c-3.4,0-4.801,2.4-3,5.3l4.5,7.101c1.801,2.899,4.801,2.899,6.6,0l4.5-7.101c1.801-2.899,0.5-5.3-3-5.3
			H266.705z"/>
		<path fill="#BF8B30" d="M331.705,32.6c0,5.801-3.4,7.2-7.5,3.101l-24.9-24.9c-4.1-4.1-2.699-7.5,3.1-7.5h18.701
			c5.799,0,10.602,4.8,10.602,10.601V32.6H331.705z"/>
		
			<path fill="none" stroke="#000000" stroke-width="4.5057" stroke-linecap="round" stroke-linejoin="round" stroke-miterlimit="10" d="
			M331.705,32.6c0,5.801-3.4,7.2-7.5,3.101l-24.9-24.9c-4.1-4.1-2.699-7.5,3.1-7.5h18.701c5.799,0,10.602,4.8,10.602,10.601V32.6
			H331.705z"/>
		<path d="M222.206,32.6c0,5.801,3.398,7.2,7.5,3.101l24.898-24.9c4.102-4.1,2.7-7.5-3.1-7.5h-18.699c-5.8,0-10.6,4.8-10.6,10.601
			V32.6z"/>
		
			<path fill="none" stroke="#000000" stroke-width="4.5057" stroke-linecap="round" stroke-linejoin="round" stroke-miterlimit="10" d="
			M222.206,32.6c0,5.801,3.398,7.2,7.5,3.101l24.898-24.9c4.102-4.1,2.7-7.5-3.1-7.5h-18.699c-5.8,0-10.6,4.8-10.6,10.601V32.6z"/>
		<circle cx="253.605" cy="32.2" r="2.6"/>
		<circle cx="285.904" cy="32.2" r="2.6"/>
		<line fill="none" stroke="#000000" stroke-width="2.2827" stroke-miterlimit="10" x1="271.506" y1="61.1" x2="271.506" y2="81"/>
		<path stroke="#000000" stroke-width="3" stroke-linecap="round" stroke-linejoin="round" stroke-miterlimit="10" d="
			M384.805,185.1c-1.299-5.898,17.1,0.4,17-5.398c0-5.801,0.301-11.602,0.9-17.301l0.5-4.301l0.301-2.1l0.199-1.1l0.1-0.5V154.1V154
			l0,0c0,0.3,0,0.1,0,0.1l0,0V153.9c0.301-1.7,0.6-3.2,1.1-4.7c0.4-1.5,1-3,1.701-4.5c1.4-2.9,3.299-5.8,6.102-7.9
			c1.398-1,3.1-1.7,4.799-1.899c1.701-0.199,3.301,0.101,4.701,0.801c-1.5,0.3-2.803,0.898-3.803,1.699s-1.799,1.699-2.398,2.699
			c-1.199,2.102-1.9,4.5-2.4,7s-0.799,5.2-0.898,7.7v0.101v0.301v0.3v0.5l-0.102,1.101l-0.199,2.199l-0.398,4.301
			c-0.602,5.699-1.602,11.399-2.9,17.101c-0.398,1.7-0.801,3.3-1.301,5C406.805,189.4,386.605,181.2,384.805,185.1z"/>
		
			<path fill="#BF8B30" stroke="#000000" stroke-width="4.8712" stroke-linecap="round" stroke-linejoin="round" stroke-miterlimit="10" d="
			M353.605,101.7c-21.801,6.5-37.1,27.7-37.1,51.6c0,15.8,7,30,18,39.7h-8.102h-7.199c-3.4,0-6.199,2.8-6.199,6.2v0.5v0.1v6.2h6.199
			h36.6h6.201l0,0c1.1,0.1,2.199,0.1,3.299,0.1c17.6,0,33.201-8.6,42.801-21.8L353.605,101.7z"/>
		
			<line fill="none" stroke="#000000" stroke-width="3.3035" stroke-linecap="round" stroke-miterlimit="10" x1="210.305" y1="108.9" x2="213.706" y2="111.5"/>
		
			<line fill="none" stroke="#000000" stroke-width="3.3035" stroke-linecap="round" stroke-miterlimit="10" x1="213.305" y1="105.9" x2="216.706" y2="108.5"/>
		
			<line fill="none" stroke="#000000" stroke-width="2" stroke-linecap="round" stroke-linejoin="round" stroke-miterlimit="10" x1="319.605" y1="204.1" x2="319.605" y2="199.4"/>
		
			<line fill="none" stroke="#000000" stroke-width="2" stroke-linecap="round" stroke-linejoin="round" stroke-miterlimit="10" x1="323.605" y1="204.1" x2="323.605" y2="199.4"/>
		
			<line fill="none" stroke="#000000" stroke-width="2" stroke-linecap="round" stroke-linejoin="round" stroke-miterlimit="10" x1="252.605" y1="204.1" x2="252.605" y2="199.4"/>
		<rect x="290.805" y="120.2" fill="#BF8B30" width="15" height="87"/>
		
			<line fill="none" stroke="#000000" stroke-width="2" stroke-linecap="round" stroke-linejoin="round" stroke-miterlimit="10" x1="256.605" y1="204.1" x2="256.605" y2="199.4"/>
		<path d="M335.305,145.2c-2.4-5.5-7.9-6-13.1-6c-2.602,0-3.9,2.1-3.9,4.1c-0.5,0.601-0.799,1.4-0.799,2.2
			c-0.102,5.5-2,12.1,0.898,17.2c3.4,6.1,10.301,5.399,15,1.399C339.105,159.3,337.904,151.2,335.305,145.2z"/>
		<g>
			
				<line fill="none" stroke="#000000" stroke-width="2" stroke-linecap="round" stroke-linejoin="round" stroke-miterlimit="10" x1="300.105" y1="204.1" x2="300.105" y2="199.4"/>
			<polyline fill="none" stroke="#000000" stroke-width="3.3035" stroke-linecap="round" stroke-miterlimit="10" points="
				304.705,113.2 304.705,206.1 291.506,206.1 291.506,113.2 			"/>
			
				<line fill="none" stroke="#000000" stroke-width="2" stroke-linecap="round" stroke-linejoin="round" stroke-miterlimit="10" x1="296.105" y1="204.1" x2="296.105" y2="199.4"/>
			<path d="M301.404,159.7c-4.5,6.1-9.197,15.1,0.102,19.399c1.398,0.699,3.6-0.399,2.898-2.301c-1.197-3.3-2.197-7.199-0.5-10.5
				c0.5-1,0.102-2-0.6-2.5c0.5-0.8,1.1-1.5,1.6-2.1C306.404,159.6,302.904,157.6,301.404,159.7z"/>
		</g>
		<path d="M399.305,170.7c-0.1,0-0.199,0-0.199,0.1c1.102-2,0.602-4.8-2.301-5.8c-0.799-0.3-1.6-0.7-2.4-1.2
			c0-0.6-0.197-1.2-0.5-1.7c-1.299-2.1-2.398-4.398-4.799-5.5c-0.301-0.199-0.6-0.3-1-0.3c-2.1-3.899-3.701-8.2-4.898-11.5
			c-0.701-2-2.5-2.899-4.201-2.8c-0.299-0.3-0.699-0.6-1.102-0.9c0.102-0.699-0.197-1.5-0.898-2c0.1-0.199,0.201-0.5,0.398-0.699
			c1.201-2.301-2.197-4.301-3.5-2c-6.1,11.5-10.6,23.601-2.898,35.5c2.701,4.101,7.801,7.699,12.801,8.301
			c7,0.699,10.1-4.102,16.4-5.4C402.904,174,401.904,170.2,399.305,170.7z"/>
		<path d="M317.605,75.1c-3.1-0.6-6.5-0.699-9.398,0.601c-1.5,0.7-2.4,2.2-3,3.7c-0.303,0.399-0.602,0.899-0.9,1.399
			c-2.301,5.601-5.1,12.8,1.799,16.5c7,3.8,15.5-0.6,19.602-6.5C330.605,83.9,324.605,76.5,317.605,75.1z"/>
		<g>
			<path d="M419.105,168.1c0,0-0.701-1.3-1.1-3.3c-0.102-0.5-0.201-1.1-0.301-1.7c-0.102-0.6-0.102-1.3-0.102-1.898
				c0-0.7,0-1.4,0.102-2.102c0.1-0.699,0.199-1.398,0.398-2.1c0.201-0.701,0.4-1.4,0.701-2.1c0.299-0.7,0.6-1.301,1-1.801
				c0.199-0.301,0.4-0.601,0.6-0.801c0.199-0.199,0.5-0.5,0.699-0.699c0.201-0.199,0.4-0.399,0.602-0.601
				c0.199-0.2,0.5-0.3,0.699-0.5c0.4-0.3,0.801-0.601,1.199-0.8c0.4-0.2,0.701-0.301,1-0.5c0.602-0.2,0.9-0.4,0.9-0.4
				s-0.299,0.2-0.799,0.602c-0.201,0.199-0.5,0.398-0.9,0.699c-0.301,0.301-0.6,0.601-1,1c-0.201,0.199-0.4,0.301-0.5,0.601
				c-0.201,0.2-0.301,0.399-0.5,0.7c-0.201,0.199-0.4,0.5-0.5,0.699c-0.1,0.301-0.301,0.5-0.5,0.801c-0.1,0.3-0.301,0.5-0.5,0.8
				c-0.1,0.3-0.201,0.6-0.4,0.899c-0.301,0.601-0.398,1.199-0.6,1.899c-0.201,0.601-0.301,1.3-0.4,1.899
				c-0.1,0.699-0.199,1.301-0.199,1.899c0,0.601-0.102,1.2-0.102,1.8c0,0.602,0,1.102,0,1.7c0,0.5,0,1,0.102,1.4
				c0,0.398,0.1,0.8,0.1,1.1C419.105,167.8,419.105,168.1,419.105,168.1z"/>
		</g>
		<g>
			<path d="M398.605,153.4c0,0,0.199-0.801,0.4-1.9c0.1-0.6,0.199-1.2,0.299-1.9c0.1-0.3,0-0.699,0.1-1.1c0-0.4,0-0.7,0-1.1
				c0-0.4,0-0.7-0.1-1.102c0-0.398-0.1-0.699-0.1-1c-0.102-0.3-0.102-0.699-0.199-1c-0.102-0.3-0.201-0.6-0.301-0.8
				c-0.102-0.3-0.199-0.5-0.301-0.7c-0.1-0.199-0.199-0.398-0.301-0.5c-0.1-0.3-0.199-0.5-0.199-0.5s0.102,0.102,0.4,0.4
				c0.1,0.1,0.299,0.3,0.4,0.5c0.1,0.199,0.299,0.398,0.398,0.699c0.199,0.199,0.299,0.5,0.4,0.801c0.1,0.199,0.1,0.3,0.199,0.5
				c0.1,0.199,0.1,0.3,0.199,0.5c0.199,0.699,0.301,1.5,0.301,2.3s-0.102,1.601-0.199,2.3c-0.102,0.7-0.4,1.4-0.602,1.9
				C399.105,152.7,398.605,153.4,398.605,153.4z"/>
		</g>
		<g>
			<path d="M425.305,166.1c0,0-0.4-0.699-0.4-1.898c0-0.301,0-0.602,0.102-1c0.1-0.301,0.1-0.7,0.301-1c0.1-0.4,0.299-0.7,0.5-1.102
				c0.199-0.3,0.4-0.699,0.699-1c0.301-0.3,0.5-0.6,0.801-0.8c0.299-0.2,0.6-0.5,0.9-0.7c0.6-0.398,1.197-0.699,1.799-0.898
				c0.5-0.2,1-0.301,1.301-0.4c0.299-0.1,0.5-0.1,0.5-0.1s-0.201,0.1-0.4,0.3c-0.301,0.2-0.699,0.399-1.199,0.7
				c-0.199,0.199-0.5,0.3-0.699,0.5c-0.301,0.199-0.5,0.398-0.801,0.6c-0.301,0.2-0.5,0.5-0.801,0.7s-0.5,0.5-0.699,0.8
				c-0.199,0.301-0.4,0.602-0.602,0.801c-0.199,0.301-0.398,0.601-0.5,0.899c-0.1,0.3-0.299,0.601-0.398,0.899
				c-0.102,0.301-0.199,0.601-0.199,0.801C425.305,165.4,425.305,166.1,425.305,166.1z"/>
		</g>
		<g>
			<path fill="none" stroke="#379B32" stroke-width="3" stroke-linecap="round" stroke-linejoin="round" stroke-miterlimit="10" d="
				M213.305,84.1c-2,16.801,0.8,33,7.3,47.101"/>
			<g>
				<path fill="#F91010" d="M223.305,79.8c10.4,11.601,1,21-10.6,10.601c-11.602,10.399-21,1-10.602-10.601
					c-10.398-11.6-1-21,10.602-10.6C224.305,58.9,233.706,68.3,223.305,79.8z"/>
				<circle fill="#F5F5F5" cx="212.706" cy="79.8" r="2.8"/>
			</g>
		</g>
	</g>
</g>
</svg>
